<?xml version="1.0" encoding="UTF-8"?>
<svg width="281px" height="159px" viewBox="0 0 281 159" version="1.1" xmlns="http://www.w3.org/2000/svg" xmlns:xlink="http://www.w3.org/1999/xlink">
    <!-- Generator: Sketch 61 (89581) - https://sketch.com -->
    <title>编组</title>
    <desc>Created with Sketch.</desc>
    <g id="CN-" stroke="none" stroke-width="1" fill="none" fill-rule="evenodd">
        <g id="landing-copy" transform="translate(-47.000000, -188.000000)">
            <g id="编组" transform="translate(46.000000, 184.000000)">
                <g id="编组-3" transform="translate(3.000000, 48.000000)">
                    <g id="Group" transform="translate(0.000000, 0.675000)">
                        <line x1="187" y1="9.5" x2="276.99987" y2="9.3468497" id="Line-3" stroke="#272033" stroke-width="2" stroke-linecap="round" stroke-linejoin="round"></line>
                        <line x1="0" y1="9.325" x2="89.999836" y2="9.49683037" id="Line-3-Copy" stroke="#272033" stroke-width="2" stroke-linecap="round" stroke-linejoin="round"></line>
                        <path d="M108.661918,7.251 C109.093918,6.555 109.417918,5.838 109.633918,5.1 C109.849918,4.362 109.975918,3.579 110.011918,2.751 L110.011918,2.751 L111.109918,2.751 L111.109918,5.271 L110.191918,5.271 L110.821918,7.197 L111.235918,7.197 C111.895918,7.197 112.378918,7.02 112.684918,6.666 C112.990918,6.312 113.143918,5.811 113.143918,5.163 L113.143918,5.163 L113.143918,0.447 L112.189918,0.447 L112.189918,1.023 L106.951918,1.023 L106.951918,2.751 L107.977918,2.751 C107.941918,3.363 107.842918,3.954 107.680918,4.524 C107.518918,5.094 107.257918,5.685 106.897918,6.297 L106.897918,6.297 L108.661918,7.251 Z M104.611918,17.403 C105.295918,17.439 105.796918,17.289 106.114918,16.953 C106.432918,16.617 106.591918,16.095 106.591918,15.387 L106.591918,15.387 L106.591918,5.019 L105.493918,5.019 L106.051918,3.741 L106.051918,1.491 L105.205918,1.491 L105.205918,2.031 L102.937918,2.031 C102.985918,1.863 103.033918,1.698 103.081918,1.536 C103.129918,1.374 103.177918,1.209 103.225918,1.041 L103.225918,1.041 L101.353918,0.555 C101.053918,1.791 100.585918,2.967 99.949918,4.083 L99.949918,4.083 L101.731918,4.839 L101.731918,4.839 L102.019918,4.299 C102.115918,4.119 102.205918,3.933 102.289918,3.741 L102.289918,3.741 L104.071918,3.741 L103.495918,5.019 L100.381918,5.019 L100.381918,10.959 C100.381918,11.991 100.351918,13.008 100.291918,14.01 C100.231918,15.012 100.111918,16.023 99.931918,17.043 L99.931918,17.043 L101.677918,17.349 C101.797918,16.749 101.893918,16.143 101.965918,15.531 C102.037918,14.919 102.091918,14.301 102.127918,13.677 L102.127918,13.677 L104.791918,13.677 L104.791918,15.495 L103.963918,15.495 L104.611918,17.403 Z M102.703918,8.475 L102.199918,8.475 L102.199918,6.747 L102.703918,6.747 L102.703918,8.475 Z M104.791918,8.475 L104.305918,8.475 L104.305918,6.747 L104.791918,6.747 L104.791918,8.475 Z M111.451918,17.385 L111.451918,14.721 L113.467918,14.721 L113.467918,12.417 L112.621918,12.417 L112.621918,13.029 L111.451918,13.029 L111.451918,10.977 L113.143918,10.977 L113.143918,9.267 L111.451918,9.267 L111.451918,7.701 L109.399918,7.701 L109.399918,9.267 L108.985918,9.267 C109.009918,9.075 109.030918,8.883 109.048918,8.691 C109.066918,8.499 109.087918,8.301 109.111918,8.097 L109.111918,8.097 L107.491918,7.899 C107.419918,8.619 107.332918,9.294 107.230918,9.924 C107.128918,10.554 106.981918,11.205 106.789918,11.877 L106.789918,11.877 L108.355918,12.309 C108.415918,12.081 108.472918,11.859 108.526918,11.643 C108.580918,11.427 108.637918,11.205 108.697918,10.977 L108.697918,10.977 L109.399918,10.977 L109.399918,13.029 L106.915918,13.029 L106.915918,14.721 L109.399918,14.721 L109.399918,17.385 L111.451918,17.385 Z M102.703918,11.967 L102.181918,11.967 C102.193918,11.799 102.199918,11.631 102.199918,11.463 L102.199918,11.463 L102.199918,10.167 L102.703918,10.167 L102.703918,11.967 Z M104.791918,11.967 L104.305918,11.967 L104.305918,10.167 L104.791918,10.167 L104.791918,11.967 Z M117.739918,17.439 C117.919918,16.959 118.072918,16.443 118.198918,15.891 C118.324918,15.339 118.432918,14.775 118.522918,14.199 C118.612918,13.623 118.678918,13.044 118.720918,12.462 C118.762918,11.88 118.783918,11.319 118.783918,10.779 L118.783918,10.779 L118.783918,2.751 L129.313918,2.751 L129.313918,0.411 L128.341918,0.411 L128.341918,1.041 L116.731918,1.041 L116.731918,10.779 C116.731918,11.235 116.713918,11.724 116.677918,12.246 C116.641918,12.768 116.587918,13.299 116.515918,13.839 C116.443918,14.379 116.347918,14.907 116.227918,15.423 C116.107918,15.939 115.963918,16.407 115.795918,16.827 L115.795918,16.827 L117.739918,17.439 Z M129.385918,16.899 L129.385918,14.577 L128.413918,14.577 L128.413918,15.189 L125.137918,15.189 L125.137918,9.429 L129.007918,9.429 L129.007918,7.071 L128.035918,7.071 L128.035918,7.719 L125.137918,7.719 L125.137918,3.597 L123.085918,3.597 L123.085918,7.719 L119.413918,7.719 L119.413918,9.429 L123.085918,9.429 L123.085918,15.189 L118.927918,15.189 L118.927918,16.899 L129.385918,16.899 Z M126.919918,14.271 L128.845918,13.875 L128.017918,10.473 L126.109918,10.869 L126.919918,14.271 Z M137.617918,17.367 C138.277918,17.367 138.763918,17.19 139.075918,16.836 C139.387918,16.482 139.543918,15.981 139.543918,15.333 L139.543918,15.333 L139.543918,0.537 L137.491918,0.537 L137.491918,15.441 L136.087918,15.441 L136.879918,17.367 L137.617918,17.367 Z M143.179918,14.235 L145.195918,13.803 L143.431918,4.515 L141.415918,4.929 L143.179918,14.235 Z M133.729918,14.235 C133.933918,13.527 134.128918,12.789 134.314918,12.021 C134.500918,11.253 134.668918,10.473 134.818918,9.681 C134.968918,8.889 135.103918,8.094 135.223918,7.296 C135.343918,6.498 135.439918,5.709 135.511918,4.929 L135.511918,4.929 L133.495918,4.677 C133.327918,6.213 133.111918,7.713 132.847918,9.177 C132.583918,10.641 132.229918,12.147 131.785918,13.695 L131.785918,13.695 L133.729918,14.235 Z M159.259918,17.241 C159.907918,17.241 160.378918,17.058 160.672918,16.692 C160.966918,16.326 161.113918,15.837 161.113918,15.225 L161.113918,15.225 L161.113918,0.573 L159.133918,0.573 L159.133918,15.279 L157.783918,15.279 L158.557918,17.241 L159.259918,17.241 Z M153.211918,13.065 L153.211918,12.435 L154.831918,12.435 L154.831918,13.065 L156.865918,13.065 L156.865918,0.591 L155.803918,0.591 L155.803918,1.329 L151.159918,1.329 L151.159918,13.065 L153.211918,13.065 Z M149.017918,4.551 L150.799918,3.867 L149.557918,0.699 L147.793918,1.365 L149.017918,4.551 Z M158.773918,13.677 L158.773918,2.139 L157.351918,2.139 L157.351918,13.677 L158.773918,13.677 Z M154.831918,4.479 L153.211918,4.479 L153.211918,3.039 L154.831918,3.039 L154.831918,4.479 Z M149.017918,9.879 L150.799918,9.087 L149.449918,5.847 L147.703918,6.675 L149.017918,9.879 Z M154.831918,7.611 L153.211918,7.611 L153.211918,6.171 L154.831918,6.171 L154.831918,7.611 Z M154.831918,10.725 L153.211918,10.725 L153.211918,9.303 L154.831918,9.303 L154.831918,10.725 Z M149.593918,17.349 L150.925918,12.057 L148.981918,11.535 L147.667918,16.809 L149.593918,17.349 Z M152.563918,17.367 L153.607918,13.983 L151.681918,13.389 L150.637918,16.755 L152.563918,17.367 Z M155.479918,17.367 L157.405918,16.755 L156.361918,13.389 L154.435918,13.983 L155.479918,17.367 Z M175.987918,17.367 L177.049918,14.541 L176.131918,14.073 L175.879918,14.685 C175.699918,13.929 175.552918,13.182 175.438918,12.444 C175.324918,11.706 175.237918,10.959 175.177918,10.203 C175.117918,9.447 175.072918,8.667 175.042918,7.863 C175.012918,7.059 174.997918,6.207 174.997918,5.307 L174.997918,5.307 L177.049918,5.307 L177.049918,3.597 L174.997918,3.597 L174.997918,0.411 L173.035918,0.411 L173.035918,3.597 L167.923918,3.597 L167.923918,5.307 L173.035918,5.307 C173.035918,6.147 173.047918,7.002 173.071918,7.872 C173.095918,8.742 173.140918,9.594 173.206918,10.428 C173.272918,11.262 173.371918,12.06 173.503918,12.822 C173.635918,13.584 173.809918,14.274 174.025918,14.892 C174.241918,15.51 174.511918,16.035 174.835918,16.467 C175.159918,16.899 175.543918,17.199 175.987918,17.367 L175.987918,17.367 Z M165.025918,4.353 L166.915918,3.525 L165.547918,0.555 L163.657918,1.401 L165.025918,4.353 Z M175.879918,3.183 L177.067918,2.715 L176.365918,0.555 L175.213918,1.005 L175.879918,3.183 Z M164.179918,17.205 L167.977918,15.945 L167.599918,14.253 L166.699918,14.541 L166.699918,5.073 L165.727918,5.073 L165.727918,5.703 L163.531918,5.703 L163.531918,7.413 L164.647918,7.413 L164.647918,15.225 L163.819918,15.531 L164.179918,17.205 Z M168.373918,16.143 L173.161918,15.531 L172.981918,13.875 L171.487918,14.073 L171.487918,8.367 L172.783918,8.367 L172.783918,6.171 L171.865918,6.171 L171.865918,6.711 L168.193918,6.711 L168.193918,8.367 L169.489918,8.367 L169.489918,14.325 L168.193918,14.505 L168.373918,16.143 Z" id="解压小测试" fill="#272033" fill-rule="nonzero"></path>
                    </g>
                </g>
                <path d="M72.4453125,163.046875 C74.984375,160.638021 76.6119792,158.229167 77.328125,155.820312 C78.2395833,158.164062 79.9648438,160.540365 82.5039062,162.949219 L82.5039062,162.949219 L83.96875,161.386719 C80.9088542,158.652344 79.0533854,155.885417 78.4023438,153.085938 L78.4023438,153.085938 L83.96875,153.085938 L83.96875,151.132812 L82.015625,151.132812 L82.015625,144.003906 L77.9140625,144.003906 L77.9140625,140.195312 L75.8632812,140.195312 L75.8632812,144.003906 L72.9335938,144.003906 L72.9335938,145.957031 L75.8632812,145.957031 L75.8632812,151.132812 L72.1523438,151.132812 L72.1523438,153.085938 L75.765625,153.085938 C75.5052083,156.080729 73.9101562,158.880208 70.9804688,161.484375 L70.9804688,161.484375 L70.9804688,147.03125 L72.7382812,148.984375 L74.0078125,147.714844 L71.6640625,145.078125 L70.9804688,145.859375 L70.9804688,140.195312 L68.9296875,140.195312 L68.9296875,162.949219 L70.9804688,162.949219 L70.9804688,161.582031 L72.4453125,163.046875 Z M67.8554688,156.308594 L67.8554688,144.101562 L66,144.101562 L66,156.308594 L67.8554688,156.308594 Z M80.0625,151.132812 L77.9140625,151.132812 L77.9140625,145.957031 L80.0625,145.957031 L80.0625,151.132812 Z M104.910156,159.53125 L104.910156,154.941406 L109.011719,158.261719 L110.28125,156.699219 L105.984375,153.28125 L104.910156,154.550781 L104.910156,152.597656 L109.402344,152.597656 L109.402344,146.054688 L104.910156,146.054688 L104.910156,144.394531 L109.988281,144.394531 L109.988281,142.441406 L104.910156,142.441406 L104.910156,140.097656 L102.761719,140.097656 L102.761719,142.441406 L97.6835938,142.441406 L97.6835938,144.394531 L102.761719,144.394531 L102.761719,146.054688 L98.2695312,146.054688 L98.2695312,152.597656 L101.980469,152.597656 C101.003906,153.89974 99.3763021,155.266927 97.0976562,156.699219 L97.0976562,156.699219 L98.171875,158.359375 C100.059896,157.252604 101.589844,156.015625 102.761719,154.648438 L102.761719,154.648438 L102.761719,159.53125 L104.910156,159.53125 Z M95.6328125,145.859375 L97.390625,144.785156 L94.7539062,140.390625 L92.9960938,141.464844 L95.6328125,145.859375 Z M93.6796875,162.558594 L95.5351562,159.726562 C96.7721354,161.354167 98.5625,162.167969 100.90625,162.167969 L100.90625,162.167969 L110.183594,162.167969 L110.671875,160.019531 L100.90625,160.019531 C98.7578125,160.084635 97.2929688,159.205729 96.5117188,157.382812 L96.5117188,157.382812 L96.5117188,148.007812 L92.3125,148.007812 L92.3125,150.058594 L94.4609375,150.058594 L94.4609375,157.382812 L91.921875,161.484375 L93.6796875,162.558594 Z M107.351562,150.742188 L104.910156,150.742188 L104.910156,148.007812 L107.351562,148.007812 L107.351562,150.742188 Z M102.761719,150.742188 L100.320312,150.742188 L100.320312,148.007812 L102.761719,148.007812 L102.761719,150.742188 Z M135.324219,161.679688 L135.324219,153.964844 L133.175781,153.964844 L133.175781,159.628906 L128.976562,159.628906 L128.976562,151.914062 L136.984375,151.914062 L136.984375,149.765625 L128.976562,149.765625 L128.976562,146.054688 L135.714844,146.054688 L135.714844,144.003906 L128.976562,144.003906 L128.976562,140.097656 L126.925781,140.097656 L126.925781,144.003906 L120.1875,144.003906 L120.1875,146.054688 L126.925781,146.054688 L126.925781,149.765625 L118.917969,149.765625 L118.917969,151.914062 L126.925781,151.914062 L126.925781,159.628906 L122.628906,159.628906 L122.628906,153.964844 L120.578125,153.964844 L120.578125,161.679688 L135.324219,161.679688 Z M162.515625,162.949219 L163.980469,161.582031 C161.96224,159.36849 160.497396,157.415365 159.585938,155.722656 C160.822917,153.378906 161.701823,150.091146 162.222656,145.859375 L162.222656,145.859375 L163.589844,145.859375 L163.589844,143.808594 L157.730469,143.808594 C158.121094,142.766927 158.446615,141.660156 158.707031,140.488281 L158.707031,140.488281 L156.753906,140 C155.972656,143.385417 154.898438,146.315104 153.53125,148.789062 L153.53125,148.789062 L153.53125,141.171875 L146.109375,141.171875 L146.109375,155.625 L147.964844,155.625 L147.964844,143.125 L151.773438,143.125 L151.773438,155.625 L153.53125,155.625 L153.53125,150.449219 L154.605469,151.035156 C154.865885,150.644531 155.061198,150.351562 155.191406,150.15625 C155.25651,149.960938 155.321615,149.830729 155.386719,149.765625 C155.777344,151.914062 156.428385,153.89974 157.339844,155.722656 C156.363281,157.545573 154.865885,159.498698 152.847656,161.582031 L152.847656,161.582031 L154.410156,162.949219 C156.03776,161.25651 157.372396,159.53125 158.414062,157.773438 C159.520833,159.53125 160.888021,161.25651 162.515625,162.949219 L162.515625,162.949219 Z M146.597656,162.949219 C148.290365,160.800781 149.397135,158.945312 149.917969,157.382812 L149.917969,157.382812 L152.457031,160.703125 L153.921875,159.628906 L150.40625,155.136719 C150.601562,154.290365 150.699219,152.890625 150.699219,150.9375 L150.699219,150.9375 L150.699219,144.394531 L148.941406,144.394531 L148.941406,150.9375 C148.941406,153.476562 148.68099,155.429688 148.160156,156.796875 C147.704427,158.164062 146.695312,159.824219 145.132812,161.777344 L145.132812,161.777344 L146.597656,162.949219 Z M158.414062,153.28125 C157.697917,151.523438 157.144531,149.277344 156.753906,146.542969 C156.81901,146.477865 156.884115,146.347656 156.949219,146.152344 C157.014323,146.022135 157.046875,145.924479 157.046875,145.859375 L157.046875,145.859375 L160.171875,145.859375 C159.911458,148.59375 159.325521,151.067708 158.414062,153.28125 Z M174.082031,162.949219 C176.360677,160.14974 177.402344,156.015625 177.207031,150.546875 L177.207031,150.546875 L177.207031,144.492188 L190.195312,144.492188 L190.195312,142.539062 L184.140625,142.539062 L184.140625,140.488281 L182.089844,140.097656 L182.089844,142.539062 L175.15625,142.539062 L175.15625,148.398438 L173.789062,144.785156 L171.835938,145.46875 L173.789062,150.546875 L175.15625,150.058594 L175.15625,151.230469 L171.542969,153.867188 L172.714844,155.625 L175.058594,153.867188 C174.928385,157.057292 174.016927,159.69401 172.324219,161.777344 L172.324219,161.777344 L174.082031,162.949219 Z M180.039062,162.753906 L180.039062,158.164062 L181.308594,159.238281 C182.480469,158.001302 183.326823,156.861979 183.847656,155.820312 L183.847656,155.820312 L186.289062,158.75 L187.558594,157.773438 L187.558594,160.019531 C187.623698,160.540365 187.395833,160.768229 186.875,160.703125 L186.875,160.703125 L184.921875,160.703125 L185.410156,162.65625 L187.460938,162.65625 C189.023438,162.721354 189.739583,162.070312 189.609375,160.703125 L189.609375,160.703125 L189.609375,150.546875 L184.921875,150.546875 L184.921875,148.398438 L190,148.398438 L190,146.445312 L177.988281,146.445312 L177.988281,148.398438 L182.871094,148.398438 L182.871094,150.546875 L178.085938,150.546875 L178.085938,162.753906 L180.039062,162.753906 Z M180.039062,157.578125 L180.039062,152.5 L182.773438,152.5 C182.643229,154.127604 181.731771,155.820312 180.039062,157.578125 L180.039062,157.578125 Z M187.558594,157.285156 L185.019531,153.964844 L184.335938,154.550781 C184.596354,154.029948 184.759115,153.346354 184.824219,152.5 L184.824219,152.5 L187.558594,152.5 L187.558594,157.285156 Z M216.605469,149.472656 L216.605469,147.714844 L208.792969,147.714844 L208.792969,146.542969 L214.652344,146.542969 L214.652344,144.882812 L208.792969,144.882812 L208.792969,143.710938 L215.824219,143.710938 L215.824219,141.953125 L208.792969,141.953125 L208.792969,140 L206.742188,140 L206.742188,141.953125 L199.710938,141.953125 L199.710938,143.710938 L206.742188,143.710938 L206.742188,144.882812 L200.882812,144.882812 L200.882812,146.542969 L206.742188,146.542969 L206.742188,147.714844 L198.929688,147.714844 L198.929688,149.472656 L216.605469,149.472656 Z M212.796875,162.753906 C213.96875,162.81901 214.522135,162.265625 214.457031,161.09375 L214.457031,161.09375 L214.457031,159.921875 L216.019531,159.921875 L216.019531,158.261719 L214.457031,158.261719 L214.457031,156.113281 L216.898438,156.113281 L216.898438,154.355469 L214.457031,154.355469 L214.457031,150.546875 L201.273438,150.546875 L200.882812,154.355469 L198.636719,154.355469 L198.636719,156.113281 L200.785156,156.113281 L200.394531,159.921875 L212.503906,159.921875 L212.503906,160.507812 C212.503906,160.898438 212.308594,161.09375 211.917969,161.09375 L211.917969,161.09375 L209.671875,161.09375 L210.160156,162.753906 L212.796875,162.753906 Z M208.109375,154.355469 L202.933594,154.355469 L203.128906,152.304688 L206.253906,152.304688 L205.765625,153.183594 L208.109375,154.355469 Z M212.503906,154.355469 L209.28125,154.355469 L209.671875,153.476562 L207.523438,152.304688 L212.503906,152.304688 L212.503906,154.355469 Z M207.914062,158.261719 L202.542969,158.261719 L202.738281,156.113281 L206.058594,156.113281 L205.570312,156.992188 L207.914062,158.261719 Z M212.503906,158.261719 L209.085938,158.261719 L209.574219,157.382812 L207.328125,156.113281 L212.503906,156.113281 L212.503906,158.261719 Z" id="快速击败病毒" fill="#272033" fill-rule="nonzero"></path>
                <g id="编组-2" transform="translate(92.000000, 100.000000)" fill-rule="nonzero">
                    <path d="M5.078125,22.8515625 L5.078125,9.86328125 C6.11979167,8.30078125 7.03125,6.70572917 7.8125,5.078125 L7.8125,5.078125 L18.4570312,5.078125 L18.4570312,3.02734375 L8.7890625,3.02734375 C9.11458333,2.24609375 9.375,1.46484375 9.5703125,0.68359375 L9.5703125,0.68359375 L7.71484375,0 C7.32421875,0.9765625 6.90104167,1.98567708 6.4453125,3.02734375 L6.4453125,3.02734375 L1.07421875,3.02734375 L1.07421875,5.078125 L5.46875,5.078125 C3.90625,8.13802083 2.08333333,10.8072917 -1.42108547e-14,13.0859375 L-1.42108547e-14,13.0859375 L1.46484375,14.453125 C1.66015625,14.2578125 1.92057292,13.9648438 2.24609375,13.5742188 C2.63671875,13.1835937 2.89713542,12.890625 3.02734375,12.6953125 L3.02734375,12.6953125 L3.02734375,22.8515625 L5.078125,22.8515625 Z M18.359375,21.5820312 L18.359375,19.53125 L13.1835937,19.53125 L13.1835937,12.6953125 L17.4804687,12.6953125 L17.4804687,10.546875 L13.1835937,10.546875 L13.1835937,6.25 L11.0351562,6.25 L11.0351562,10.546875 L6.73828125,10.546875 L6.73828125,12.6953125 L11.0351562,12.6953125 L11.0351562,19.53125 L5.859375,19.53125 L5.859375,21.5820312 L18.359375,21.5820312 Z M68.1445312,13.7695312 L68.1445312,0 L65.9960937,0 L65.9960937,13.7695312 L68.1445312,13.7695312 Z M59.6484375,22.8515625 L59.6484375,13.28125 L61.6992187,15.9179688 L63.2617187,14.6484375 L60.625,11.2304688 L59.6484375,12.0117188 L59.6484375,8.88671875 L61.9921875,8.88671875 L61.9921875,6.8359375 L59.6484375,6.8359375 L59.6484375,3.3203125 C59.9088542,3.25520833 60.3320312,3.19010417 60.9179687,3.125 C61.4388021,3.05989583 61.8294271,3.02734375 62.0898437,3.02734375 L62.0898437,3.02734375 L61.796875,1.07421875 C61.4713542,1.13932292 60.9179687,1.20442708 60.1367187,1.26953125 C57.5976562,1.52994792 55.8723958,1.69270833 54.9609375,1.7578125 L54.9609375,1.7578125 L55.0585937,3.7109375 C55.9049479,3.7109375 56.71875,3.64583333 57.5,3.515625 L57.5,3.515625 L57.5,6.8359375 L54.5703125,6.8359375 L54.5703125,8.88671875 L57.5,8.88671875 C56.5885417,11.7513021 55.3841146,14.2252604 53.8867187,16.3085938 L53.8867187,16.3085938 L55.546875,17.578125 C56.328125,16.3411458 56.8815104,15.3320312 57.2070312,14.5507812 C57.2851562,14.3945312 57.3515625,14.2617188 57.40625,14.1523438 L57.5,13.9648438 L57.5,22.8515625 L59.6484375,22.8515625 Z M71.171875,11.1328125 L73.0273437,10.4492188 L70.2929687,3.22265625 L68.4375,3.90625 L71.171875,11.1328125 Z M63.5546875,12.0117188 L65.6054687,3.90625 L63.6523437,3.41796875 L61.6015625,11.5234375 L63.5546875,12.0117188 Z M62.1875,22.8515625 C66.6796875,19.8567708 69.8697917,16.2434896 71.7578125,12.0117188 L71.7578125,12.0117188 L69.9023437,11.1328125 C68.1445312,14.9739583 65.1822917,18.3268229 61.015625,21.1914062 L61.015625,21.1914062 L62.1875,22.8515625 Z M95.921875,22.4609375 C97.6145833,22.5911458 98.3958333,21.875 98.265625,20.3125 L98.265625,20.3125 L98.265625,3.7109375 L91.234375,3.7109375 L91.234375,0 L89.1835937,0 L89.1835937,3.7109375 L82.1523437,3.7109375 L82.1523437,22.4609375 L84.203125,22.4609375 L84.203125,5.859375 L89.1835937,5.859375 L89.1835937,5.95703125 C89.4440104,9.27734375 87.8815104,12.3372396 84.4960937,15.1367188 L84.4960937,15.1367188 L85.8632812,16.6015625 C88.0117187,14.7786458 89.4440104,13.0859375 90.1601562,11.5234375 L90.1601562,11.5234375 L94.359375,16.40625 L95.921875,15.1367188 L90.9414062,9.1796875 C91.1367187,8.203125 91.234375,7.09635417 91.234375,5.859375 L91.234375,5.859375 L96.2148437,5.859375 L96.2148437,19.6289063 C96.2799479,20.2148438 95.9544271,20.4752604 95.2382812,20.4101563 L95.2382812,20.4101563 L92.796875,20.4101563 L93.3828125,22.4609375 L95.921875,22.4609375 Z" id="在秒内" fill="#272033"></path>
                    <path d="M35.328125,20.3125 L35.328125,18.0664063 L27.125,18.0664063 C28.0364583,16.5039063 29.3385417,15.0390625 31.03125,13.671875 C34.15625,11.328125 35.5885417,9.21223958 35.328125,7.32421875 C35.2630208,4.06901042 33.4726562,2.40885417 29.9570312,2.34375 C26.9622396,2.27864583 25.0742188,3.80859375 24.2929688,6.93359375 L24.2929688,6.93359375 L26.5390625,7.32421875 C27.0598958,5.50130208 28.1992188,4.62239583 29.9570312,4.6875 C31.9101562,4.6875 32.8867188,5.56640625 32.8867188,7.32421875 C33.1471354,8.56119792 32.0078125,10.1888021 29.46875,12.2070313 C27.2552083,14.1601563 25.4648438,16.3736979 24.0976562,18.8476563 L24.0976562,18.8476563 L24.0976562,20.3125 L35.328125,20.3125 Z M43.2382812,20.6054688 C47.0794271,20.6705729 49,17.6106771 49,11.4257813 C49,5.37109375 47.046875,2.34375 43.140625,2.34375 C39.3645833,2.47395833 37.4440104,5.50130208 37.3789062,11.4257813 C37.3789062,17.5455729 39.3320312,20.6054688 43.2382812,20.6054688 Z M46.5585938,11.4257813 C46.6888021,16.3085938 45.5820312,18.5872396 43.2382812,18.2617188 C40.8945312,18.3919271 39.7552083,16.1132813 39.8203125,11.4257813 C39.8203125,6.86848958 40.9270833,4.62239583 43.140625,4.6875 C45.484375,4.23177083 46.6236979,6.47786458 46.5585938,11.4257813 Z" id="20" fill="#848FF1"></path>
                </g>
                <path d="M13.9140625,38.4375 C16.0911458,38.5364583 17.1302083,37.4973958 17.03125,35.3203125 L17.03125,35.3203125 L17.03125,27.15625 L27.5703125,27.15625 L27.5703125,23.4453125 L17.03125,23.4453125 L17.03125,20.1796875 L28.7578125,20.1796875 L28.7578125,16.6171875 L21.484375,16.6171875 L24.3046875,12.1640625 L21.9296875,10.9765625 L27.2734375,10.9765625 L27.2734375,7.4140625 L17.03125,7.4140625 L17.03125,4.7421875 L13.3203125,4 L13.3203125,7.4140625 L3.2265625,7.4140625 L3.2265625,10.9765625 L8.5703125,10.9765625 L6.1953125,12.3125 L8.71875,16.6171875 L1.7421875,16.6171875 L1.7421875,20.1796875 L13.3203125,20.1796875 L13.3203125,23.4453125 L2.78125,23.4453125 L2.78125,27.15625 L13.3203125,27.15625 L13.3203125,33.984375 C13.3203125,34.4791667 13.0234375,34.7265625 12.4296875,34.7265625 L12.4296875,34.7265625 L9.4609375,34.7265625 L10.5,38.4375 L13.9140625,38.4375 Z M17.03125,16.6171875 L11.09375,16.6171875 L12.7265625,15.7265625 L9.7578125,10.9765625 L20.59375,10.9765625 L17.03125,16.6171875 Z M3.671875,37.3984375 L10.9453125,30.2734375 L8.421875,27.6015625 L1,34.578125 L3.671875,37.3984375 Z M26.6796875,37.3984375 L29.3515625,34.578125 L21.9296875,27.6015625 L19.40625,30.2734375 L26.6796875,37.3984375 Z M44.7890625,38.5859375 C47.5598958,38.7838542 48.8463542,37.4479167 48.6484375,34.578125 L48.6484375,34.578125 L48.6484375,26.859375 L59.9296875,26.859375 L59.9296875,23.1484375 L48.6484375,23.1484375 L48.6484375,18.546875 L57.40625,18.546875 L57.40625,14.984375 L48.6484375,14.984375 L48.6484375,10.0859375 C51.6171875,9.98697917 54.734375,9.73958333 58,9.34375 L58,9.34375 L57.5546875,5.78125 C49.0442708,6.47395833 41.4739583,6.86979167 34.84375,6.96875 L34.84375,6.96875 L34.9921875,10.6796875 C35.6848958,10.6796875 36.7734375,10.6302083 38.2578125,10.53125 C41.1276042,10.4322917 43.3046875,10.3333333 44.7890625,10.234375 L44.7890625,10.234375 L44.7890625,14.984375 L35.734375,14.984375 L35.734375,18.546875 L44.7890625,18.546875 L44.7890625,23.1484375 L33.2109375,23.1484375 L33.2109375,26.859375 L44.7890625,26.859375 L44.7890625,33.2421875 C44.8880208,34.4296875 44.34375,34.9739583 43.15625,34.875 L43.15625,34.875 L39.59375,34.875 L40.6328125,38.5859375 L44.7890625,38.5859375 Z M71.5234375,39.03125 L71.5234375,6.8203125 L77.4609375,6.8203125 L77.4609375,4.1484375 L68.109375,4.1484375 L68.109375,39.03125 L71.5234375,39.03125 Z M90.09375,39.03125 L90.09375,36.8046875 L92.3203125,38.8828125 C94.8932292,36.2109375 96.9713542,33.6380208 98.5546875,31.1640625 C100.236979,33.6380208 102.315104,36.2109375 104.789062,38.8828125 L104.789062,38.8828125 L107.757812,36.359375 C104.888021,33.4895833 102.513021,30.5703125 100.632812,27.6015625 C102.611979,23.7421875 103.947917,18.8932292 104.640625,13.0546875 L104.640625,13.0546875 L106.867188,13.0546875 L106.867188,9.34375 L97.6640625,9.34375 C97.8619792,8.75 98.1588542,7.859375 98.5546875,6.671875 C98.7526042,5.97916667 98.9010417,5.43489583 99,5.0390625 L99,5.0390625 L95.2890625,4.1484375 C94.1015625,8.99739583 92.3697917,13.6484375 90.09375,18.1015625 L90.09375,18.1015625 L90.09375,4.296875 L86.3828125,4.296875 L86.3828125,24.78125 L83.7109375,25.8203125 L83.7109375,9.34375 L80.1484375,9.34375 L80.1484375,27.453125 L78.8125,28.046875 L80.296875,31.4609375 L86.3828125,28.7890625 L86.3828125,39.03125 L90.09375,39.03125 Z M98.40625,23.296875 C97.3177083,20.7239583 96.4765625,17.7057292 95.8828125,14.2421875 C95.9817708,14.0442708 96.0807292,13.8463542 96.1796875,13.6484375 C96.2786458,13.3515625 96.328125,13.1536458 96.328125,13.0546875 L96.328125,13.0546875 L100.929688,13.0546875 C100.335938,17.2109375 99.4947917,20.625 98.40625,23.296875 Z M90.09375,35.765625 L90.09375,19.8828125 L92.46875,21.3671875 C92.5677083,21.2682292 92.6666667,21.0703125 92.765625,20.7734375 C93.0625,20.3776042 93.3098958,20.03125 93.5078125,19.734375 C94.2005208,22.5052083 95.140625,25.1276042 96.328125,27.6015625 C95.140625,29.7786458 93.0625,32.5 90.09375,35.765625 L90.09375,35.765625 Z M114.585938,38.5859375 C116.664062,38.6848958 117.653646,37.6458333 117.554688,35.46875 L117.554688,35.46875 L117.554688,23.890625 L121.117188,22.8515625 L120.226562,19.4375 L117.554688,20.1796875 L117.554688,14.2421875 L120.375,14.2421875 L120.375,10.6796875 L117.554688,10.6796875 L117.554688,4.1484375 L113.84375,4.1484375 L113.84375,10.6796875 L110.578125,10.6796875 L110.578125,14.2421875 L113.84375,14.2421875 L113.84375,21.21875 L109.984375,22.40625 L110.875,25.8203125 L113.84375,24.9296875 L113.84375,34.1328125 C113.942708,34.5286458 113.645833,34.7265625 112.953125,34.7265625 L112.953125,34.7265625 L110.578125,34.7265625 L111.46875,38.5859375 L114.585938,38.5859375 Z M136.703125,19.5859375 L139.226562,16.765625 C135.268229,13.0052083 132.596354,8.94791667 131.210938,4.59375 L131.210938,4.59375 L127.203125,4.59375 C125.421875,9.046875 122.700521,13.1536458 119.039062,16.9140625 L119.039062,16.9140625 L121.710938,19.5859375 C122.502604,18.6953125 123.244792,17.8046875 123.9375,16.9140625 L123.9375,16.9140625 L123.9375,19.2890625 L134.03125,19.2890625 L134.03125,16.6171875 C134.328125,16.9140625 134.723958,17.359375 135.21875,17.953125 C135.8125,18.6458333 136.307292,19.1901042 136.703125,19.5859375 L136.703125,19.5859375 Z M133.289062,15.578125 L125.125,15.578125 C126.807292,13.3020833 128.143229,10.9765625 129.132812,8.6015625 C130.122396,10.8776042 131.507812,13.203125 133.289062,15.578125 L133.289062,15.578125 Z M136.554688,37.6953125 L136.554688,22.5546875 L121.710938,22.5546875 L121.710938,37.6953125 L136.554688,37.6953125 Z M132.992188,33.984375 L125.421875,33.984375 L125.421875,26.265625 L132.992188,26.265625 L132.992188,33.984375 Z M149.632812,39.03125 L149.632812,4.1484375 L146.070312,4.1484375 L146.070312,36.359375 L140.28125,36.359375 L140.28125,39.03125 L149.632812,39.03125 Z M165.710938,28.34375 L162.59375,26.7109375 L159.476562,33.5390625 L162.445312,35.171875 L165.710938,28.34375 Z M167.640625,16.3203125 L165.710938,16.3203125 L166.75,15.7265625 L164.375,10.9765625 L170.164062,10.9765625 L167.640625,16.3203125 Z M165.710938,28.34375 L165.710938,33.8359375 C165.908854,34.9244792 165.463542,35.3697917 164.375,35.171875 L164.375,35.171875 L163.039062,35.171875 L163.929688,38.5859375 L166.15625,38.5859375 C168.432292,38.6848958 169.520833,37.6953125 169.421875,35.6171875 L169.421875,35.6171875 L169.421875,28.640625 L171.5,33.8359375 L173.726562,32.9453125 C173.528646,33.6380208 173.083333,34.6770833 172.390625,36.0625 C172.09375,36.65625 171.895833,37.1015625 171.796875,37.3984375 L171.796875,37.3984375 L175.210938,38.8828125 C176.695312,35.8151042 177.684896,32.9947917 178.179688,30.421875 C178.674479,27.9479167 178.921875,24.5338542 178.921875,20.1796875 L178.921875,20.1796875 L181.742188,20.1796875 L181.742188,38.734375 L185.453125,38.734375 L185.453125,20.1796875 L188.273438,20.1796875 L188.273438,16.46875 L178.921875,16.46875 L178.921875,10.0859375 C182.286458,9.7890625 185.15625,9.44270833 187.53125,9.046875 L187.53125,9.046875 L186.789062,5.3359375 C183.820312,5.83072917 180.010417,6.27604167 175.359375,6.671875 L175.359375,6.671875 L175.359375,19.5859375 C175.359375,24.8307292 174.963542,28.7890625 174.171875,31.4609375 L174.171875,31.4609375 L172.390625,27.0078125 L169.421875,28.1953125 L169.421875,25.671875 L174.171875,25.671875 L174.171875,22.2578125 L169.421875,22.2578125 L169.421875,19.734375 L174.617188,19.734375 L174.617188,16.3203125 L171.5,16.3203125 L173.429688,12.3125 L170.757812,10.9765625 L173.875,10.9765625 L173.875,7.5625 L169.273438,7.5625 L169.273438,4.7421875 L165.5625,4 L165.5625,7.5625 L160.8125,7.5625 L160.8125,10.9765625 L164.078125,10.9765625 L161.40625,12.4609375 L163.335938,16.3203125 L160.070312,16.3203125 L160.070312,19.734375 L165.710938,19.734375 L165.710938,22.2578125 L160.515625,22.2578125 L160.515625,25.671875 L165.710938,25.671875 L165.710938,28.34375 Z M212.171875,33.2421875 C214.546875,33.2421875 215.734375,32.1536458 215.734375,29.9765625 L215.734375,29.9765625 L215.734375,18.84375 L218.851562,18.84375 L218.851562,15.4296875 L215.734375,15.4296875 L215.734375,13.3515625 L218.851562,13.3515625 L218.851562,6.078125 L191.984375,6.078125 L191.984375,13.796875 L193.765625,13.796875 L193.765625,16.765625 L204.15625,16.765625 L204.15625,13.3515625 L195.546875,13.3515625 L195.546875,9.640625 L215.289062,9.640625 L215.289062,11.71875 L212.171875,11.71875 L212.171875,15.4296875 L205.34375,15.4296875 L205.34375,18.84375 L212.171875,18.84375 L212.171875,28.640625 C212.171875,29.4322917 211.726562,29.828125 210.835938,29.828125 L210.835938,29.828125 L208.164062,29.828125 L209.203125,33.2421875 L212.171875,33.2421875 Z M209.351562,27.15625 L212.023438,25.375 L208.609375,19.8828125 L205.789062,21.6640625 L209.351562,27.15625 Z M193.914062,39.03125 C196.783854,35.0729167 198.119792,30.6692708 197.921875,25.8203125 L197.921875,25.8203125 L197.921875,23.59375 L200,23.59375 L200,34.875 C200,36.953125 201.039062,37.9921875 203.117188,37.9921875 L203.117188,37.9921875 L216.03125,37.9921875 C218.307292,38.0911458 219.395833,37.0520833 219.296875,34.875 L219.296875,34.875 L219.296875,31.4609375 L215.882812,30.8671875 L215.882812,33.5390625 C215.882812,34.2317708 215.536458,34.578125 214.84375,34.578125 L214.84375,34.578125 L204.75,34.578125 C203.958333,34.578125 203.5625,34.2317708 203.5625,33.5390625 L203.5625,33.5390625 L203.5625,23.59375 L205.492188,23.59375 L205.492188,20.1796875 L192.132812,20.1796875 L192.132812,23.59375 L194.359375,23.59375 L194.359375,25.671875 C194.557292,29.828125 193.369792,33.6380208 190.796875,37.1015625 L190.796875,37.1015625 L193.914062,39.03125 Z M226.273438,38.8828125 C229.934896,34.7265625 231.617188,28.2942708 231.320312,19.5859375 L231.320312,19.5859375 L231.320312,11.2734375 L250.617188,11.2734375 L250.617188,7.5625 L241.710938,7.5625 L241.710938,4.890625 L238,4.1484375 L238,7.5625 L227.609375,7.5625 L227.609375,15.875 L225.679688,11.125 L222.265625,12.4609375 L225.234375,20.1796875 L227.609375,19.2890625 L227.609375,21.0703125 L221.96875,25.078125 L223.898438,28.1953125 L227.3125,25.8203125 C227.114583,30.0755208 225.778646,33.7369792 223.304688,36.8046875 L223.304688,36.8046875 L226.273438,38.8828125 Z M235.773438,38.734375 L235.773438,31.7578125 L237.554688,33.5390625 C238.742188,32.3515625 239.929688,30.7682292 241.117188,28.7890625 L241.117188,28.7890625 L244.234375,32.6484375 L246.164062,31.015625 L246.164062,33.984375 C246.263021,34.7760417 245.916667,35.1223958 245.125,35.0234375 L245.125,35.0234375 L242.15625,35.0234375 L243.046875,38.5859375 L246.015625,38.5859375 C248.786458,38.7838542 250.072917,37.6458333 249.875,35.171875 L249.875,35.171875 L249.875,20.03125 L242.75,20.03125 L242.75,17.2109375 L250.171875,17.2109375 L250.171875,13.6484375 L232.507812,13.6484375 L232.507812,17.2109375 L239.1875,17.2109375 L239.1875,20.03125 L232.0625,20.03125 L232.0625,38.734375 L235.773438,38.734375 Z M246.164062,29.53125 L243.046875,25.5234375 L242.007812,26.265625 C242.304688,25.375 242.502604,24.484375 242.601562,23.59375 L242.601562,23.59375 L246.164062,23.59375 L246.164062,29.53125 Z M235.773438,30.125 L235.773438,23.59375 L239.039062,23.59375 C238.841146,25.5729167 237.752604,27.75 235.773438,30.125 L235.773438,30.125 Z M281.640625,18.6953125 L281.640625,15.578125 L269.914062,15.578125 L269.914062,14.2421875 L278.671875,14.2421875 L278.671875,11.2734375 L269.914062,11.2734375 L269.914062,9.9375 L280.453125,9.9375 L280.453125,6.8203125 L269.914062,6.8203125 L269.914062,4.1484375 L266.203125,4.1484375 L266.203125,6.8203125 L255.664062,6.8203125 L255.664062,9.9375 L266.203125,9.9375 L266.203125,11.2734375 L257.445312,11.2734375 L257.445312,14.2421875 L266.203125,14.2421875 L266.203125,15.578125 L254.476562,15.578125 L254.476562,18.6953125 L281.640625,18.6953125 Z M275.703125,38.734375 C277.484375,38.734375 278.375,37.84375 278.375,36.0625 L278.375,36.0625 L278.375,34.578125 L280.75,34.578125 L280.75,31.609375 L278.375,31.609375 L278.375,28.9375 L281.9375,28.9375 L281.9375,25.8203125 L278.375,25.8203125 L278.375,20.1796875 L258.039062,20.1796875 L257.59375,25.8203125 L254.179688,25.8203125 L254.179688,28.9375 L257.296875,28.9375 L256.703125,34.578125 L274.8125,34.578125 L274.8125,35.0234375 C274.8125,35.5182292 274.614583,35.765625 274.21875,35.765625 L274.21875,35.765625 L270.65625,35.765625 L271.546875,38.734375 L275.703125,38.734375 Z M267.6875,25.8203125 L261.15625,25.8203125 L261.304688,23.1484375 L265.609375,23.1484375 L265.015625,24.3359375 L267.6875,25.8203125 Z M274.8125,25.8203125 L270.359375,25.8203125 L271.101562,24.484375 L268.578125,23.1484375 L274.8125,23.1484375 L274.8125,25.8203125 Z M267.539062,31.609375 L260.5625,31.609375 L260.859375,28.9375 L265.460938,28.9375 L264.71875,30.125 L267.539062,31.609375 Z M274.8125,31.609375 L270.0625,31.609375 L270.804688,30.2734375 L268.28125,28.9375 L274.8125,28.9375 L274.8125,31.609375 Z" id="亲手「收拾」新冠病毒" fill="#272033" fill-rule="nonzero"></path>
            </g>
        </g>
    </g>
</svg>