<?xml version="1.0" encoding="UTF-8"?>
<svg width="40px" height="40px" viewBox="0 0 40 40" version="1.1" xmlns="http://www.w3.org/2000/svg" xmlns:xlink="http://www.w3.org/1999/xlink">
    <!-- Generator: Sketch 61 (89581) - https://sketch.com -->
    <title>Group 3</title>
    <desc>Created with Sketch.</desc>
    <defs>
        <polygon id="path-1" points="0 0 40.0114685 0 40.0114685 39.7717483 0 39.7717483"></polygon>
    </defs>
    <g id="CN-" stroke="none" stroke-width="1" fill="none" fill-rule="evenodd">
        <g id="loading" transform="translate(-167.000000, -314.000000)">
            <g id="Group-3" transform="translate(167.000000, 314.000000)">
                <mask id="mask-2" fill="white">
                    <use xlink:href="#path-1"></use>
                </mask>
                <g id="Clip-2"></g>
                <path d="M29.0018741,17.7222378 C28.6936224,17.591049 28.215021,17.3874126 27.9780979,17.2355245 C28.0790769,16.9639161 28.3593566,16.493986 28.5392168,16.193007 C29.1380979,15.1893706 29.7576783,14.1518881 29.1269091,13.2855944 C28.4925035,12.4145455 27.307049,12.685035 26.161035,12.9465734 C25.8225734,13.0237762 25.2955804,13.1440559 25.0085874,13.1572028 C24.9341818,12.8822378 24.8871888,12.351049 24.856979,12.0103497 C24.7520839,10.8318881 24.6435524,9.61314685 23.6091469,9.27748252 C22.6004755,8.95020979 21.8113846,9.85146853 21.0491469,10.7239161 C20.8083077,10.9994406 20.429007,11.4332867 20.1985175,11.6064336 C19.968028,11.4332867 19.5887273,10.9991608 19.3476084,10.7236364 C18.5856503,9.85174825 17.7993566,8.95104895 16.7876084,9.27748252 C15.7534825,9.61314685 15.644951,10.8318881 15.5403357,12.0103497 C15.5101259,12.351049 15.4631329,12.881958 15.3887273,13.1566434 C15.1017343,13.1437762 14.5744615,13.0234965 14.2365594,12.946014 C13.089986,12.6844755 11.9045315,12.413986 11.2704056,13.2853147 C10.6396364,14.1518881 11.2589371,15.1893706 11.8578182,16.193007 C12.037958,16.493986 12.3182378,16.9636364 12.4189371,17.2352448 C12.1822937,17.3871329 11.7034126,17.5907692 11.3951608,17.7222378 C10.3484476,18.1675524 9.16215385,18.6724476 9.16215385,19.7711888 C9.16215385,20.8702098 10.3484476,21.3751049 11.3951608,21.8201399 C11.7034126,21.9516084 12.182014,22.1552448 12.4189371,22.3071329 C12.317958,22.5787413 12.0376783,23.0483916 11.8578182,23.3496503 C11.2589371,24.353007 10.6393566,25.3907692 11.2701259,26.2570629 C11.9048112,27.1283916 13.089986,26.8579021 14.2362797,26.5960839 C14.5744615,26.5188811 15.1014545,26.3986014 15.3887273,26.3854545 C15.4628531,26.6604196 15.5101259,27.1913287 15.5400559,27.532028 C15.644951,28.7104895 15.7532028,29.9292308 16.7873287,30.2646154 C16.7873287,30.2646154 17.5498462,28.6545455 17.564951,28.6797203 C17.4561399,28.4970629 17.3934825,27.7921678 17.356,27.3709091 C17.263972,26.3359441 17.176979,25.3586014 16.4986573,24.8646154 C15.8136224,24.366993 14.8502657,24.5871329 13.8304056,24.8198601 C13.6021538,24.8718881 13.288028,24.9434965 13.0194965,24.9888112 C13.143972,24.7513287 13.3056503,24.4805594 13.4234126,24.2833566 C13.9621538,23.3806993 14.4712448,22.5281119 14.2077483,21.7174825 C13.9515245,20.9281119 13.0566993,20.5474126 12.1092867,20.1440559 C11.8737622,20.0436364 11.5431329,19.9029371 11.2855105,19.7711888 C11.5434126,19.6394406 11.8737622,19.4987413 12.1092867,19.3983217 C13.0566993,18.9952448 13.9515245,18.6142657 14.208028,17.8248951 C14.4712448,17.0142657 13.9621538,16.161958 13.4236923,15.2593007 C13.3056503,15.0620979 13.143972,14.791049 13.0194965,14.5532867 C13.288028,14.5986014 13.6021538,14.6702098 13.8304056,14.7225175 C14.8502657,14.9552448 15.8141818,15.1753846 16.4986573,14.6777622 C17.1772587,14.1837762 17.2642517,13.2061538 17.3562797,12.1714685 C17.3772587,11.9356643 17.4060699,11.6109091 17.4463497,11.3387413 C17.6284476,11.5261538 17.8287273,11.754965 17.975021,11.9225175 C18.674042,12.721958 19.3341818,13.4772028 20.1985175,13.4772028 C21.0628531,13.4772028 21.722993,12.7222378 22.422014,11.9227972 C22.5683077,11.754965 22.7685874,11.5261538 22.9506853,11.3384615 C22.9912448,11.6106294 23.0200559,11.9356643 23.041035,12.1714685 C23.1333427,13.2064336 23.2200559,14.1843357 23.8986573,14.6777622 C24.5834126,15.1753846 25.5467692,14.9552448 26.5669091,14.7227972 C26.7948811,14.6707692 27.109007,14.5988811 27.3775385,14.5538462 C27.2533427,14.7913287 27.0913846,15.0620979 26.9739021,15.2593007 C26.4348811,16.161958 25.9257902,17.0145455 26.1892867,17.8251748 C26.4455105,18.6145455 27.3406154,18.9955245 28.2877483,19.3986014 C28.5235524,19.4987413 28.8536224,19.6394406 29.1118042,19.7711888 C28.8539021,19.9029371 28.5235524,20.0436364 28.2877483,20.1440559 C27.3406154,20.5474126 26.4457902,20.9281119 26.1892867,21.7174825 C25.9257902,22.5281119 26.4348811,23.3806993 26.9739021,24.2836364 C27.0913846,24.4805594 27.2530629,24.7513287 27.3775385,24.9890909 C27.109007,24.9437762 26.7946014,24.8721678 26.5663497,24.8198601 C25.5464895,24.5871329 24.5828531,24.3667133 23.8983776,24.8648951 C23.2197762,25.3586014 23.1330629,26.3362238 23.0407552,27.3711888 C23.0035524,27.7921678 22.9408951,28.4973427 22.8318042,28.68 C22.8469091,28.6545455 23.6094266,30.2651748 23.6094266,30.2651748 C24.6435524,29.9295105 24.7520839,28.7107692 24.8566993,27.5323077 C24.8869091,27.1913287 24.9341818,26.6606993 25.0083077,26.3854545 C25.2955804,26.3988811 25.8225734,26.5188811 26.1604755,26.5963636 C27.3067692,26.8576224 28.4919441,27.1283916 29.1266294,26.2570629 C29.7573986,25.3907692 29.1380979,24.3532867 28.5392168,23.3499301 C28.3593566,23.0486713 28.0790769,22.5787413 27.9780979,22.3071329 C28.215021,22.1555245 28.6939021,21.9516084 29.0018741,21.8201399 C30.0485874,21.3751049 31.2348811,20.8702098 31.2348811,19.7711888 C31.2348811,18.6724476 30.0485874,18.1675524 29.0018741,17.7222378 L29.0018741,17.7222378 Z M31.9780979,24.6397203 C31.3353007,26.1804196 30.4208951,27.5468531 29.3048112,28.6951049 C29.2927832,28.706014 29.2793566,28.7138462 29.2678881,28.7253147 C29.2555804,28.7373427 29.2471888,28.7516084 29.236,28.7641958 C28.0877483,29.9275524 26.7305455,30.8620979 25.236,31.5186014 C25.2108252,31.5264336 25.1856503,31.5309091 25.1613147,31.540979 C25.1263497,31.5552448 25.0955804,31.5751049 25.0631329,31.593007 C23.4958601,32.2545455 21.7836923,32.6137063 20.008028,32.6137063 C18.2955804,32.6137063 16.6186573,32.2763636 15.0236923,31.6117483 C10.0222937,29.5267133 7.01753846,24.6528671 7.05362238,19.5443357 C7.10872727,19.4265734 7.14201399,19.2967832 7.14201399,19.1583217 C7.14201399,19.0427972 7.11851748,18.9331469 7.07907692,18.8313287 C7.16662937,17.4341259 7.48047552,16.027972 8.04914685,14.6648951 C8.11068531,14.5172028 8.17502098,14.3714685 8.24159441,14.2271329 C8.24830769,14.2134266 8.25641958,14.2008392 8.26229371,14.1862937 C8.26341259,14.1834965 8.26369231,14.1806993 8.26481119,14.1779021 C8.93054545,12.7485315 9.83488112,11.4808392 10.9185175,10.4128671 C10.9235524,10.4081119 10.9294266,10.4047552 10.9344615,10.4 C10.9394965,10.3946853 10.9428531,10.3885315 10.9481678,10.3832168 C12.1755804,9.18125874 13.6312448,8.2358042 15.2306853,7.6027972 C15.2541818,7.59524476 15.277958,7.59132867 15.3008951,7.58181818 C15.3187972,7.57426573 15.3341818,7.56307692 15.3515245,7.55468531 C16.7817343,7.00503497 18.3243916,6.70517483 19.9190769,6.69314685 C19.9274685,6.69342657 19.9355804,6.69566434 19.943972,6.69566434 C19.9565594,6.69566434 19.968028,6.69230769 19.9806154,6.69202797 C19.9934825,6.69174825 20.0063497,6.69118881 20.0192168,6.69118881 C21.7316643,6.69118881 23.4083077,7.02853147 25.0035524,7.69314685 C26.5297063,8.32951049 27.8911049,9.23356643 29.0435524,10.3507692 C29.0505455,10.3583217 29.0553007,10.366993 29.0628531,10.3742657 C29.074042,10.3854545 29.0877483,10.3935664 29.0994965,10.4041958 C30.3344615,11.6159441 31.3241119,13.074965 32.0024336,14.7227972 C33.3196364,17.9236364 33.3112448,21.4455944 31.9780979,24.6397203 L31.9780979,24.6397203 Z M37.116,20.0707692 C37.4043916,20.4808392 37.8804755,20.7502098 38.4189371,20.7502098 C39.296979,20.7502098 40.0116643,20.0358042 40.0116643,19.158042 C40.0116643,18.2805594 39.296979,17.5664336 38.4189371,17.5664336 C37.8801958,17.5664336 37.4043916,17.8355245 37.1157203,18.2458741 L34.7397762,18.2458741 C34.627049,17.081958 34.3725035,15.9272727 33.9792168,14.8008392 L36.103972,13.9272727 C36.3414545,14.0648951 36.6133427,14.1448951 36.9014545,14.1448951 C37.1098462,14.1448951 37.3137622,14.1043357 37.5067692,14.0251748 C38.3187972,13.6914685 38.7078881,12.7597203 38.3739021,11.9471329 C38.1271888,11.347972 37.5487273,10.9611189 36.9008951,10.9611189 C36.6925035,10.9611189 36.4888671,11.0011189 36.2953007,11.0808392 C35.7741818,11.2953846 35.4287273,11.7560839 35.3353007,12.2732867 L33.2737622,13.1205594 C32.6642517,11.88 31.8972587,10.7429371 30.989007,9.73734266 L32.5084476,8.21874126 C32.5683077,8.22573427 32.627049,8.23636364 32.688028,8.23636364 C33.1134825,8.23636364 33.5132028,8.07076923 33.8141818,7.77006993 C34.1154406,7.46937063 34.281035,7.06937063 34.281035,6.64391608 C34.2807552,6.21874126 34.1148811,5.81902098 33.8141818,5.51944056 C33.5134825,5.21874126 33.1137622,5.05314685 32.688028,5.05314685 C32.2628531,5.05314685 31.8628531,5.21874126 31.5624336,5.5186014 C31.2614545,5.81902098 31.0955804,6.21874126 31.0955804,6.64391608 C31.0953007,6.76839161 31.1137622,6.88979021 31.1414545,7.00839161 L29.6824336,8.46657343 C28.7442517,7.6579021 27.7003357,6.96531469 26.5669091,6.40699301 L27.347049,4.58041958 C27.8863497,4.49398601 28.3484476,4.1379021 28.562993,3.62321678 C28.7269091,3.23076923 28.7283077,2.79804196 28.5663497,2.40447552 C28.4046713,2.01118881 28.0992168,1.70433566 27.7062098,1.5406993 C27.5106853,1.45902098 27.3048112,1.4179021 27.0936224,1.4179021 C26.4491469,1.4179021 25.8720839,1.80195804 25.6234126,2.39692308 C25.4597762,2.78937063 25.4586573,3.2220979 25.6206154,3.61538462 C25.6443916,3.67328671 25.6776783,3.72503497 25.7076084,3.7793007 L24.8869091,5.7006993 C23.5806154,5.24307692 22.2312448,4.97314685 20.856979,4.89538462 L20.856979,2.93482517 C21.3017343,2.65230769 21.5985175,2.15636364 21.5985175,1.59160839 C21.5985175,0.714125874 20.8838322,0 20.0057902,0 C19.1274685,0 18.4130629,0.714125874 18.4130629,1.59160839 C18.4130629,2.10461538 18.6580979,2.56027972 19.0362797,2.85174825 C19.0351608,2.86881119 19.030965,2.88475524 19.030965,2.90181818 L19.030965,4.90377622 C17.8015944,4.9848951 16.6060699,5.21706294 15.4645315,5.58461538 L14.5518042,3.36727273 C14.5669091,3.3365035 14.587049,3.30881119 14.6004755,3.27664336 C14.7641119,2.88447552 14.7652308,2.45174825 14.6032727,2.05846154 C14.3571189,1.45902098 13.7786573,1.07188811 13.129986,1.07188811 C12.9221538,1.07188811 12.7185175,1.11216783 12.5243916,1.19188811 C11.7126434,1.52615385 11.3241119,2.45818182 11.6580979,3.26965035 C11.8801958,3.80923077 12.3719441,4.17398601 12.9406154,4.24195804 L13.7666294,6.24895105 C12.5154406,6.83104895 11.3534825,7.58629371 10.3132028,8.49090909 L8.56830769,6.74685315 C8.57054545,6.71244755 8.57837762,6.67916084 8.57837762,6.64447552 C8.57837762,6.2193007 8.4125035,5.8193007 8.1118042,5.51944056 C7.81082517,5.21874126 7.4111049,5.05314685 6.98565035,5.05314685 C6.5601958,5.05314685 6.1601958,5.21874126 5.86005594,5.51888112 C5.5587972,5.8193007 5.39292308,6.2193007 5.39292308,6.64447552 C5.39292308,7.06965035 5.55851748,7.46937063 5.85977622,7.77034965 C6.16047552,8.07076923 6.5601958,8.23636364 6.98565035,8.23636364 C7.13362238,8.23636364 7.276,8.20951049 7.41474126,8.17090909 L9.01334266,9.76839161 C8.23236364,10.6391608 7.55068531,11.6103497 6.98509091,12.6668531 L4.98648951,11.8335664 C4.93418182,11.2651748 4.57781818,10.7426573 4.01474126,10.5076923 C3.81921678,10.4262937 3.61306294,10.3851748 3.40187413,10.3851748 C2.75683916,10.3851748 2.17977622,10.7695105 1.93166434,11.3644755 C1.59404196,12.1745455 1.97837762,13.1082517 2.78788811,13.4458741 C2.98369231,13.5275524 3.19012587,13.5692308 3.40159441,13.5692308 C3.6401958,13.5692308 3.86900699,13.5158042 4.07572028,13.4195804 C4.09893706,13.4316084 4.11991608,13.4461538 4.14425175,13.4565035 L6.22676923,14.3247552 C5.72802797,15.6125874 5.41893706,16.9300699 5.2939021,18.2458741 L3.00271329,18.2458741 C2.73613986,17.7387413 2.20467133,17.3913287 1.59264336,17.3913287 C0.714601399,17.3913287 -8.39160839e-05,18.1054545 -8.39160839e-05,18.9832168 C-8.39160839e-05,19.860979 0.714601399,20.5751049 1.59264336,20.5751049 C2.05893706,20.5751049 2.47767832,20.3725874 2.76914685,20.0525874 C2.82732867,20.0643357 2.88774825,20.0707692 2.94956643,20.0707692 L5.23823776,20.0707692 C5.28187413,21.5306294 5.54201399,22.9667133 6.00047552,24.3348252 L3.73474126,25.2662937 C3.73278322,25.2671329 3.7311049,25.2688112 3.72886713,25.2693706 C3.46313287,25.0766434 3.14005594,24.9647552 2.79544056,24.9647552 C2.58704895,24.9647552 2.38313287,25.0053147 2.18956643,25.0847552 C1.3780979,25.4187413 0.989006993,26.3504895 1.32299301,27.1627972 C1.56998601,27.7616783 2.14816783,28.1485315 2.796,28.1485315 C3.00467133,28.1485315 3.20802797,28.1082517 3.40131469,28.0288112 C3.79488112,27.8671329 4.10173427,27.561958 4.26565035,27.1692308 C4.29082517,27.1085315 4.30509091,27.0455944 4.32271329,26.9832168 C4.35795804,26.9734266 4.39376224,26.9655944 4.42844755,26.9516084 L6.68243357,26.0246154 C7.24606993,27.2044755 7.96690909,28.3107692 8.82844755,29.311049 L7.0180979,31.1205594 C7.01613986,31.1225175 7.01474126,31.125035 7.01278322,31.126993 C6.89418182,31.0993007 6.77306294,31.0808392 6.64830769,31.0808392 C6.22285315,31.0808392 5.82313287,31.2464336 5.52215385,31.5471329 C5.22117483,31.8481119 5.05558042,32.2475524 5.05558042,32.6727273 C5.05558042,33.0979021 5.22117483,33.4979021 5.52243357,33.7983217 C5.82313287,34.0987413 6.22285315,34.2643357 6.64830769,34.2643357 C7.07348252,34.2643357 7.47348252,34.0987413 7.7739021,33.7986014 C8.07516084,33.4979021 8.24103497,33.0979021 8.24103497,32.6727273 C8.24103497,32.6067133 8.22984615,32.5429371 8.22201399,32.478042 C8.25054545,32.4556643 8.28047552,32.4352448 8.30704895,32.4086713 L10.1008951,30.6156643 C11.1025734,31.5225175 12.242993,32.3029371 13.5078881,32.9216783 L12.5048112,35.2369231 C11.9627133,35.3213986 11.4978182,35.6788811 11.2827133,36.1955245 C11.1185175,36.5882517 11.1171189,37.020979 11.2790769,37.4145455 C11.441035,37.8078322 11.7462098,38.1144056 12.1392168,38.2783217 C12.3347413,38.3597203 12.5408951,38.4008392 12.7520839,38.4008392 C13.3965594,38.4008392 13.9733427,38.0167832 14.222014,37.4218182 C14.3859301,37.0293706 14.3867692,36.5966434 14.2250909,36.2036364 C14.2018741,36.1474126 14.1697063,36.0973427 14.1408951,36.0447552 L15.1912448,33.620979 C16.4376783,34.0525874 17.7227133,34.3127273 19.030965,34.3994406 L19.030965,36.8774825 C18.6208951,37.1655944 18.3512448,37.6413986 18.3512448,38.1795804 C18.3512448,39.0576224 19.0659301,39.7717483 19.943972,39.7717483 C20.8222937,39.7717483 21.5366993,39.0576224 21.5366993,38.1795804 C21.5366993,37.6413986 21.2673287,37.1655944 20.856979,36.8774825 L20.856979,34.408951 C22.2911049,34.3278322 23.6813147,34.0422378 24.9937622,33.5745455 L25.8452308,35.7636364 C25.8471888,35.7678322 25.849986,35.772028 25.8519441,35.7765035 C25.7814545,35.8744056 25.7187972,35.9784615 25.670965,36.0925874 C25.5073287,36.485035 25.5062098,36.918042 25.6681678,37.3113287 C25.9146014,37.9102098 26.4930629,38.2973427 27.1411748,38.2973427 C27.3495664,38.2973427 27.5529231,38.2573427 27.747049,38.1773427 C28.5585175,37.8433566 28.9473287,36.9113287 28.6136224,36.1001399 C28.4222937,35.634965 28.0301259,35.3001399 27.5615944,35.1723077 C27.5520839,35.1381818 27.5450909,35.1037762 27.5311049,35.0702098 L26.6701259,32.8567832 C27.8407552,32.2676923 28.9288671,31.5264336 29.903972,30.648951 L31.4035524,32.1482517 C31.4346014,32.1793007 31.4692867,32.2041958 31.5031329,32.2296503 C31.4617343,32.3725874 31.4332028,32.52 31.4332028,32.6727273 C31.4332028,33.0979021 31.5987972,33.4976224 31.9000559,33.7983217 C32.2007552,34.0987413 32.6007552,34.2643357 33.0259301,34.2643357 C33.4511049,34.2643357 33.8508252,34.0987413 34.1515245,33.7986014 C34.4525035,33.4979021 34.6183776,33.0979021 34.6183776,32.6727273 C34.6183776,32.2475524 34.4525035,31.8481119 34.1518042,31.5468531 C33.8508252,31.2464336 33.4511049,31.0808392 33.0259301,31.0808392 C32.9691469,31.0808392 32.9146014,31.0911888 32.8589371,31.0970629 C32.8161399,31.012028 32.7635524,30.9309091 32.6925035,30.8601399 L31.1786573,29.3471329 C32.1157203,28.266014 32.9045315,27.038042 33.5084476,25.6872727 L35.8455105,26.6332867 C35.9618741,27.107972 36.2925035,27.5236364 36.776979,27.7255944 C36.9725035,27.8072727 37.1786573,27.8483916 37.3898462,27.8483916 C38.0346014,27.8483916 38.6116643,27.4640559 38.8597762,26.8693706 C39.0236923,26.4769231 39.0248112,26.0439161 38.8628531,25.6509091 C38.7008951,25.2576224 38.3957203,24.951049 38.0035524,24.7876923 C37.8077483,24.7057343 37.6013147,24.6643357 37.3901259,24.6643357 C37.0662098,24.6643357 36.7593566,24.7616783 36.5028531,24.9337063 L34.1520839,23.9820979 C34.547049,22.7015385 34.7596364,21.387972 34.7976783,20.0707692 L37.116,20.0707692 Z" id="Fill-1" fill="#212E46" mask="url(#mask-2)"></path>
            </g>
        </g>
    </g>
</svg>