<?xml version="1.0" encoding="UTF-8"?>
<svg width="75px" height="13px" viewBox="0 0 75 13" version="1.1" xmlns="http://www.w3.org/2000/svg" xmlns:xlink="http://www.w3.org/1999/xlink">
    <!-- Generator: Sketch 61 (89581) - https://sketch.com -->
    <title>病毒正在袭来…</title>
    <desc>Created with Sketch.</desc>
    <g id="CN-" stroke="none" stroke-width="1" fill="none" fill-rule="evenodd">
        <g id="loading" transform="translate(-156.000000, -365.000000)" fill="#212E46" fill-rule="nonzero">
            <path d="M158.021484,377.371094 C158.664714,376.457031 159.087891,375.559896 159.291016,374.679688 C159.527995,373.833333 159.646484,372.614583 159.646484,371.023438 L159.646484,371.023438 L159.646484,367.671875 L166.501953,367.671875 L166.501953,366.808594 L163.302734,366.808594 L163.302734,365.640625 L162.388672,365.488281 L162.388672,366.808594 L158.732422,366.808594 L158.732422,370.058594 L157.970703,367.976562 L157.158203,368.230469 L158.072266,370.871094 L158.732422,370.617188 L158.732422,371.277344 L156.904297,372.648438 L157.412109,373.410156 L158.732422,372.445312 C158.698568,374.104167 158.224609,375.576823 157.310547,376.863281 L157.310547,376.863281 L158.021484,377.371094 Z M161.119141,377.21875 L161.119141,374.832031 L161.728516,375.390625 C162.439453,374.679688 162.930339,374.019531 163.201172,373.410156 L163.201172,373.410156 L164.623047,375.136719 L165.283203,374.628906 L165.283203,376 C165.317057,376.236979 165.198568,376.338542 164.927734,376.304688 L164.927734,376.304688 L163.912109,376.304688 L164.115234,377.167969 L165.181641,377.167969 C165.892578,377.201823 166.214193,376.914062 166.146484,376.304688 L166.146484,376.304688 L166.146484,370.921875 L163.658203,370.921875 L163.658203,369.652344 L166.501953,369.652344 L166.501953,368.789062 L160.052734,368.789062 L160.052734,369.652344 L162.794922,369.652344 L162.794922,370.921875 L160.205078,370.921875 L160.205078,377.21875 L161.119141,377.21875 Z M161.119141,374.78125 L161.119141,371.785156 L162.744141,371.785156 C162.676432,372.733073 162.134766,373.731771 161.119141,374.78125 L161.119141,374.78125 Z M165.283203,374.578125 L163.759766,372.648438 L163.404297,372.953125 C163.539714,372.580729 163.607422,372.191406 163.607422,371.785156 L163.607422,371.785156 L165.283203,371.785156 L165.283203,374.578125 Z M177.166016,370.261719 L177.166016,369.5 L173.001953,369.5 L173.001953,368.738281 L176.099609,368.738281 L176.099609,367.976562 L173.001953,367.976562 L173.001953,367.265625 L176.658203,367.265625 L176.658203,366.503906 L173.001953,366.503906 L173.001953,365.4375 L172.138672,365.4375 L172.138672,366.503906 L168.431641,366.503906 L168.431641,367.265625 L172.138672,367.265625 L172.138672,367.976562 L169.041016,367.976562 L169.041016,368.738281 L172.138672,368.738281 L172.138672,369.5 L167.974609,369.5 L167.974609,370.261719 L177.166016,370.261719 Z M175.185547,377.21875 C175.794922,377.21875 176.082682,376.947917 176.048828,376.40625 L176.048828,376.40625 L176.048828,375.746094 L176.861328,375.746094 L176.861328,374.984375 L176.048828,374.984375 L176.048828,373.714844 L177.318359,373.714844 L177.318359,372.953125 L176.048828,372.953125 L176.048828,370.921875 L169.244141,370.921875 L169.041016,372.953125 L167.822266,372.953125 L167.822266,373.714844 L168.990234,373.714844 L168.787109,375.746094 L175.134766,375.746094 L175.134766,376.203125 C175.134766,376.40625 175.033203,376.507812 174.830078,376.507812 L174.830078,376.507812 L173.662109,376.507812 L173.865234,377.21875 L175.185547,377.21875 Z M175.134766,372.953125 L173.306641,372.953125 L173.560547,372.445312 L172.138672,371.683594 L175.134766,371.683594 L175.134766,372.953125 Z M173.001953,372.953125 L169.904297,372.953125 L170.056641,371.683594 L171.783203,371.683594 L171.529297,372.140625 L173.001953,372.953125 Z M175.134766,374.984375 L173.255859,374.984375 L173.509766,374.476562 L172.037109,373.714844 L175.134766,373.714844 L175.134766,374.984375 Z M172.900391,374.984375 L169.751953,374.984375 L169.853516,373.714844 L171.681641,373.714844 L171.427734,374.171875 L172.900391,374.984375 Z M187.880859,376.660156 L187.880859,375.746094 L184.275391,375.746094 L184.275391,371.582031 L187.119141,371.582031 L187.119141,370.667969 L184.275391,370.667969 L184.275391,367.164062 L187.474609,367.164062 L187.474609,366.300781 L179.095703,366.300781 L179.095703,367.164062 L183.412109,367.164062 L183.412109,375.746094 L181.076172,375.746094 L181.076172,369.195312 L180.162109,369.195312 L180.162109,375.746094 L178.689453,375.746094 L178.689453,376.660156 L187.880859,376.660156 Z M191.638672,377.371094 L191.638672,370.566406 C192.180339,369.753906 192.654297,368.907552 193.060547,368.027344 L193.060547,368.027344 L198.646484,368.027344 L198.646484,367.113281 L193.466797,367.113281 C193.669922,366.639323 193.805339,366.317708 193.873047,366.148438 C193.906901,365.979167 193.940755,365.860677 193.974609,365.792969 L193.974609,365.792969 L193.111328,365.488281 C193.04362,365.72526 192.92513,366.063802 192.755859,366.503906 C192.620443,366.77474 192.535807,366.977865 192.501953,367.113281 L192.501953,367.113281 L189.607422,367.113281 L189.607422,368.027344 L192.044922,368.027344 C191.164714,369.753906 190.166016,371.209635 189.048828,372.394531 L189.048828,372.394531 L189.708984,373.003906 C190.08138,372.63151 190.419922,372.242188 190.724609,371.835938 L190.724609,371.835938 L190.724609,377.371094 L191.638672,377.371094 Z M198.595703,376.710938 L198.595703,375.796875 L195.802734,375.796875 L195.802734,371.988281 L198.138672,371.988281 L198.138672,371.074219 L195.802734,371.074219 L195.802734,368.738281 L194.888672,368.738281 L194.888672,371.074219 L192.552734,371.074219 L192.552734,371.988281 L194.888672,371.988281 L194.888672,375.796875 L192.095703,375.796875 L192.095703,376.710938 L198.595703,376.710938 Z M200.373047,371.429688 C201.185547,370.955729 201.845703,370.464844 202.353516,369.957031 L202.353516,369.957031 L202.658203,370.769531 C203.030599,370.701823 203.555339,370.549479 204.232422,370.3125 C204.469401,370.244792 204.638672,370.19401 204.740234,370.160156 C204.70638,370.769531 205.027995,371.057292 205.705078,371.023438 L205.705078,371.023438 L208.294922,371.023438 C208.904297,371.023438 209.208984,370.769531 209.208984,370.261719 L209.208984,370.261719 L209.208984,369.449219 L208.345703,369.296875 L208.345703,369.855469 C208.345703,370.126302 208.210286,370.244792 207.939453,370.210938 L207.939453,370.210938 L205.958984,370.210938 C205.722005,370.210938 205.603516,370.092448 205.603516,369.855469 C206.619141,369.449219 207.465495,369.042969 208.142578,368.636719 L208.142578,368.636719 L207.736328,367.976562 C207.126953,368.28125 206.416016,368.602865 205.603516,368.941406 L205.603516,368.941406 L205.603516,367.773438 L209.310547,367.773438 L209.310547,366.910156 L207.177734,366.910156 L207.533203,366.503906 L206.060547,365.488281 L205.552734,366.148438 L206.669922,366.910156 L203.876953,366.910156 L203.876953,366.910156 L203.876953,365.488281 L203.013672,365.488281 L203.013672,366.605469 C203.013672,366.77474 202.996745,366.876302 202.962891,366.910156 L202.962891,366.910156 L200.373047,366.910156 L200.373047,367.773438 L202.810547,367.773438 C202.505859,368.755208 201.524089,369.720052 199.865234,370.667969 L199.865234,370.667969 L200.373047,371.429688 Z M202.404297,369.957031 C203.115234,369.313802 203.555339,368.585938 203.724609,367.773438 L203.724609,367.773438 L204.740234,367.773438 L204.740234,369.246094 C203.961589,369.516927 203.267578,369.736979 202.658203,369.90625 C202.556641,369.940104 202.472005,369.957031 202.404297,369.957031 Z M202.201172,377.421875 L205.705078,376.355469 L205.501953,375.542969 L203.369141,376.152344 L203.369141,374.171875 C203.809245,373.867188 204.181641,373.545573 204.486328,373.207031 C205.332682,374.798177 206.889974,376.084635 209.158203,377.066406 L209.158203,377.066406 L209.564453,376.253906 C208.345703,375.71224 207.465495,375.204427 206.923828,374.730469 L206.923828,374.730469 L208.701172,373.867188 L208.294922,373.054688 L206.212891,374.121094 C205.874349,373.714844 205.552734,373.27474 205.248047,372.800781 L205.248047,372.800781 L209.361328,372.800781 L209.361328,371.9375 L205.146484,371.9375 L205.146484,371.175781 L204.283203,371.023438 L204.283203,371.9375 L200.220703,371.9375 L200.220703,372.800781 L203.724609,372.800781 C202.776693,373.68099 201.473307,374.459635 199.814453,375.136719 L199.814453,375.136719 L200.169922,375.949219 C201.05013,375.576823 201.828776,375.170573 202.505859,374.730469 L202.505859,374.730469 L202.505859,376.40625 L201.998047,376.558594 L202.201172,377.421875 Z M215.861328,377.371094 L215.861328,372.800781 C216.707682,374.019531 217.994141,375.153646 219.720703,376.203125 L219.720703,376.203125 L220.228516,375.390625 C218.264974,374.205729 216.927734,373.071615 216.216797,371.988281 L216.216797,371.988281 L219.974609,371.988281 L219.974609,371.074219 L215.861328,371.074219 L215.861328,367.976562 L219.568359,367.976562 L219.568359,367.0625 L215.861328,367.0625 L215.861328,365.488281 L214.947266,365.488281 L214.947266,367.0625 L211.240234,367.0625 L211.240234,367.976562 L214.947266,367.976562 L214.947266,371.074219 L210.833984,371.074219 L210.833984,371.988281 L214.591797,371.988281 C213.813151,373.105469 212.475911,374.239583 210.580078,375.390625 L210.580078,375.390625 L211.087891,376.203125 C212.848307,375.119792 214.134766,374.002604 214.947266,372.851562 L214.947266,372.851562 L214.947266,377.371094 L215.861328,377.371094 Z M213.322266,370.71875 L214.033203,370.160156 L212.611328,368.332031 L211.900391,368.890625 L213.322266,370.71875 Z M217.486328,370.71875 L218.908203,368.890625 L218.197266,368.332031 L216.775391,370.160156 L217.486328,370.71875 Z M226.830078,372.191406 L226.830078,370.667969 L225.458984,370.667969 L225.458984,372.191406 L226.830078,372.191406 Z M223.173828,372.191406 L223.173828,370.667969 L221.802734,370.667969 L221.802734,372.191406 L223.173828,372.191406 Z M230.537109,372.191406 L230.537109,370.667969 L229.166016,370.667969 L229.166016,372.191406 L230.537109,372.191406 Z" id="病毒正在袭来…"></path>
        </g>
    </g>
</svg>