<?xml version="1.0" encoding="UTF-8"?>
<svg width="37px" height="13px" viewBox="0 0 37 13" version="1.1" xmlns="http://www.w3.org/2000/svg" xmlns:xlink="http://www.w3.org/1999/xlink">
    <!-- Generator: Sketch 61 (89581) - https://sketch.com -->
    <title>编组</title>
    <desc>Created with Sketch.</desc>
    <g id="CN-" stroke="none" stroke-width="1" fill="none" fill-rule="evenodd">
        <g id="result-copy-15" transform="translate(-22.000000, -94.000000)" fill-rule="nonzero">
            <g id="编组" transform="translate(22.000000, 94.792969)">
                <path d="M18.3867188,2.58984375 L19.0976562,2.1328125 L17.7773438,0 L17.015625,0.45703125 L18.3867188,2.58984375 Z M20.7226562,9.69921875 C21.7721354,8.98828125 22.6184896,8.29427083 23.2617188,7.6171875 L23.2617188,7.6171875 L25.1914062,9.59765625 L25.8515625,8.98828125 L23.8710938,6.95703125 C24.5820312,6.11067708 25.1236979,5.12890625 25.4960938,4.01171875 L25.4960938,4.01171875 L25.4960938,3.09765625 L20.9765625,3.09765625 L20.9765625,1.37109375 C22.5,1.30338542 24.1080729,1.21875 25.8007812,1.1171875 L25.8007812,1.1171875 L25.6992188,0.203125 C23.3971354,0.40625 21.5182292,0.5078125 20.0625,0.5078125 L20.0625,0.5078125 L20.0625,3.65625 C20.1302083,5.61979167 19.7578125,7.34635417 18.9453125,8.8359375 L18.9453125,8.8359375 L19.7578125,9.2421875 C20.6380208,7.65104167 21.0442708,5.90755208 20.9765625,4.01171875 L20.9765625,4.01171875 L24.53125,4.01171875 C24.2265625,4.82421875 23.7864583,5.5859375 23.2109375,6.296875 L23.2109375,6.296875 L21.5859375,4.5703125 L20.9765625,5.23046875 L22.6523438,6.95703125 C21.9075521,7.70182292 21.0950521,8.36197917 20.2148438,8.9375 L20.2148438,8.9375 L20.7226562,9.69921875 Z M17.1679688,11.3242188 L18.2851562,9.6484375 C18.9283854,10.6302083 19.9101562,11.1210938 21.2304688,11.1210938 L21.2304688,11.1210938 L26.0039062,11.1210938 L26.2070312,10.2070312 L21.2304688,10.2070312 C20.0794271,10.2408854 19.2669271,9.73307292 18.7929688,8.68359375 L18.7929688,8.68359375 L18.7929688,4.01171875 L16.6601562,4.01171875 L16.6601562,4.92578125 L17.8789062,4.92578125 L17.8789062,8.68359375 L16.40625,10.8164062 L17.1679688,11.3242188 Z M36.2109375,11.0703125 L36.2109375,0.3046875 L27.9335938,0.3046875 L27.9335938,11.0703125 L36.2109375,11.0703125 Z M35.296875,10.15625 L28.796875,10.15625 L28.796875,1.21875 L35.296875,1.21875 L35.296875,10.15625 Z M34.0273438,8.4296875 L34.0273438,2.84375 L30.1171875,2.84375 L30.1171875,8.4296875 L34.0273438,8.4296875 Z M33.1640625,7.56640625 L30.9804688,7.56640625 L30.9804688,3.7578125 L33.1640625,3.7578125 L33.1640625,7.56640625 Z" id="返回" fill="#727272"></path>
                <g id="right.9" transform="translate(5.500000, 6.207031) scale(-1, 1) translate(-5.500000, -6.207031) translate(0.000000, 0.207031)" fill="#4D9D96">
                    <path d="M4.99975,11.75 C4.93575,11.75 4.87175,11.7255 4.82275,11.677 C4.72525,11.5795 4.72525,11.421 4.82275,11.3235 L10.14625,6 L4.82275,0.677 C4.72525,0.5795 4.72525,0.421 4.82275,0.3235 C4.92025,0.226 5.07875,0.226 5.17625,0.3235 L10.67625,5.8235 C10.77375,5.921 10.77375,6.0795 10.67625,6.177 L5.17625,11.677 C5.12775,11.7255 5.06375,11.75 4.99975,11.75 Z" id="Path"></path>
                    <path d="M0.5,11.75 C0.436,11.75 0.372,11.7255 0.323,11.677 C0.2255,11.5795 0.2255,11.421 0.323,11.3235 L5.6465,6 L0.323,0.677 C0.2255,0.5795 0.2255,0.421 0.323,0.3235 C0.4205,0.226 0.579,0.226 0.6765,0.3235 L6.1765,5.8235 C6.274,5.921 6.274,6.0795 6.1765,6.177 L0.6765,11.677 C0.628,11.7255 0.564,11.75 0.5,11.75 Z" id="Path"></path>
                </g>
            </g>
        </g>
    </g>
</svg>