<?xml version="1.0" encoding="UTF-8"?>
<svg width="118px" height="93px" viewBox="0 0 118 93" version="1.1" xmlns="http://www.w3.org/2000/svg" xmlns:xlink="http://www.w3.org/1999/xlink">
    <!-- Generator: Sketch 55.2 (78181) - https://sketchapp.com -->
    <title>Group</title>
    <desc>Created with Sketch.</desc>
    <defs>
        <polygon id="path-1" points="0.0673364268 46 37.33264 46 37.33264 0.000104293183 0.0673364268 0.000104293183"></polygon>
    </defs>
    <g id="Page-1" stroke="none" stroke-width="1" fill="none" fill-rule="evenodd">
        <g id="iPhone-8" transform="translate(-275.000000, -141.000000)">
            <g id="Group" transform="translate(275.000000, 141.000000)">
                <g id="Group-Copy" transform="translate(14.000000, 0.000000)">
                    <g id="Group-3" opacity="0.518229167" transform="translate(49.000000, 0.000000)" fill="#313131">
                        <path d="M33.9166667,0 L3.08333333,0 C1.38133333,0 0,1.407 0,3.140625 L0,63.859375 C0,65.593 1.38133333,67 3.08333333,67 L33.9166667,67 C35.6186667,67 37,65.593 37,63.859375 L37,3.140625 C37,1.407 35.6186667,0 33.9166667,0 L33.9166667,0 Z M32.8888889,60.71875 C32.8888889,61.8703125 31.9638889,62.8125 30.8333333,62.8125 L6.16666667,62.8125 C5.032,62.8125 4.11111111,61.8745 4.11111111,60.71875 L4.11111111,6.28125 C4.11111111,5.1255 5.032,4.1875 6.16666667,4.1875 L8.22222222,4.1875 C8.22222222,6.4948125 10.0681111,8.375 12.3333333,8.375 L24.6666667,8.375 C26.936,8.375 28.7777778,6.4948125 28.7777778,4.1875 L30.8333333,4.1875 C31.9638889,4.1875 32.8888889,5.1255 32.8888889,6.28125 L32.8888889,60.71875 Z" id="Fill-1"></path>
                    </g>
                    <g id="Group-3-Copy" transform="translate(23.000000, 48.000000) rotate(-90.000000) translate(-23.000000, -48.000000) translate(4.000000, 25.000000)">
                        <mask id="mask-2" fill="white">
                            <use xlink:href="#path-1"></use>
                        </mask>
                        <g id="Clip-2"></g>
                        <path d="M34.2272455,0.000104293183 L3.17278271,0.000104293183 C1.45857636,0.000104293183 0.0673364268,1.40180468 0.0673364268,3.12889979 L0.0673364268,63.6189461 C0.0673364268,65.3460412 1.45857636,66.7477416 3.17278271,66.7477416 L34.2272455,66.7477416 C35.9414518,66.7477416 37.3326918,65.3460412 37.3326918,63.6189461 L37.3326918,3.12889979 C37.3326918,1.40180468 35.9414518,0.000104293183 34.2272455,0.000104293183 L34.2272455,0.000104293183 Z M33.1920967,60.4901506 C33.1920967,61.6373756 32.2604628,62.5760143 31.1217992,62.5760143 L6.27822898,62.5760143 C5.13542475,62.5760143 4.20793147,61.6415473 4.20793147,60.4901506 L4.20793147,6.25769529 C4.20793147,5.10629855 5.13542475,4.17183163 6.27822898,4.17183163 L8.3485265,4.17183163 C8.3485265,6.47045338 10.2076537,8.34355896 12.4891215,8.34355896 L24.9109067,8.34355896 C27.1965151,8.34355896 29.0515017,6.47045338 29.0515017,4.17183163 L31.1217992,4.17183163 C32.2604628,4.17183163 33.1920967,5.10629855 33.1920967,6.25769529 L33.1920967,60.4901506 Z" id="Fill-1" fill="#B6B6B6" mask="url(#mask-2)"></path>
                    </g>
                    <path d="M33.3724156,12.6101579 L31.3297861,14.3832628 C30.8999181,14.7565662 30.868875,15.3907807 31.2603337,15.8012137 C31.4676385,16.0184723 31.7528141,16.1288577 32.0385159,16.1288577 C32.2910699,16.1288577 32.5446763,16.0425564 32.7467195,15.867445 L36.6560455,12.473595 C37.0859136,12.1007934 37.1169567,11.4660772 36.7260241,11.0561459 L33.1671167,7.32762741 C32.7761841,6.91819785 32.110599,6.88859449 31.680731,7.26089441 C31.250863,7.63419783 31.2192937,8.268914 31.6107525,8.67884532 L33.3068678,10.4560417 C30.1675756,10.1958443 27.0914775,11.0750872 24.6079025,12.9467471 C22.023959,14.894548 20.3886716,17.6862957 20.0077359,20.8046838 C19.9714313,21.0992122 20.0650867,21.3776845 20.2429269,21.5924343 C20.420767,21.8066824 20.6848964,21.9567062 20.9916444,21.9928323 C21.6056664,22.0605689 22.1633899,21.6406025 22.235473,21.055058 C22.5469563,18.5011408 23.8839143,16.2176678 25.998002,14.6241037 C28.0977766,13.0413287 30.7145289,12.32675 33.3724156,12.6101579 L33.3724156,12.6101579 Z" id="Combined-Shape" fill="#8B8B8B"></path>
                </g>
                <path d="M4.08007812,92.1679688 L4.08007812,86.1757812 L9.31054688,86.1757812 L9.31054688,91.4570312 C9.34440121,91.930992 9.0904975,92.1510418 8.54882812,92.1171875 L7.48242188,92.1171875 L7.27929688,91.4570312 L8.29492188,91.4570312 C8.53190223,91.4908856 8.63346371,91.406251 8.59960938,91.203125 L8.59960938,90.0859375 L4.79101562,90.0859375 L4.79101562,92.1679688 L4.08007812,92.1679688 Z M3.62304688,82.3164062 L3.62304688,81.65625 L6.36523438,81.65625 L6.36523438,80.4882812 L7.02539062,80.4882812 L7.02539062,81.65625 L9.81835938,81.65625 L9.81835938,82.3164062 L7.02539062,82.3164062 L7.02539062,83.1796875 L9.51367188,83.1796875 L9.51367188,83.8398438 L7.02539062,83.8398438 L7.02539062,84.703125 L10.1738281,84.703125 L10.1738281,85.3632812 L3.31835938,85.3632812 L3.31835938,84.703125 L6.36523438,84.703125 L6.36523438,83.8398438 L3.87695312,83.8398438 L3.87695312,83.1796875 L6.36523438,83.1796875 L6.36523438,82.3164062 L3.62304688,82.3164062 Z M1.94726562,91.9648438 L1.43945312,91.4570312 L1.79492188,91.0507812 L1.79492188,85.2617188 L0.626953125,85.2617188 L0.626953125,84.5507812 L2.50585938,84.5507812 L2.50585938,90.2890625 L3.47070312,89.2226562 L3.97851562,89.7304688 L1.94726562,91.9648438 Z M4.79101562,88.4609375 L4.79101562,89.4257812 L8.59960938,89.4257812 L8.59960938,88.4609375 L4.79101562,88.4609375 Z M4.79101562,86.8359375 L4.79101562,87.8007812 L8.59960938,87.8007812 L8.59960938,86.8359375 L4.79101562,86.8359375 Z M2.50585938,83.3320312 L1.13476562,81.1484375 L1.69335938,80.7929688 L3.11523438,82.9257812 L2.50585938,83.3320312 Z M20.2285156,86.53125 L19.5683594,86.3789062 L19.9238281,84.9570312 L18.5527344,84.9570312 L18.5527344,87.6484375 L20.4316406,87.6484375 L20.4316406,88.359375 L18.5527344,88.359375 L18.5527344,91.203125 L20.9394531,91.203125 L20.7871094,91.9140625 L19.0097656,91.9140625 C17.6217379,91.9479168 16.7246114,91.2708403 16.3183594,89.8828125 C16.081379,90.7630252 15.7259138,91.6093709 15.2519531,92.421875 L14.6425781,92.0664062 C15.5904995,90.5768155 16.0475262,88.697928 16.0136719,86.4296875 L16.7246094,86.4804688 C16.7246094,86.6835948 16.7076825,86.9882792 16.6738281,87.3945312 C16.6738281,87.8007833 16.6569012,88.0885408 16.6230469,88.2578125 C16.8261729,89.7474033 17.2324188,90.6445297 17.8417969,90.9492188 L17.8417969,84.9570312 L15.9121094,84.9570312 L15.9121094,84.3984375 C15.878255,84.4322918 15.8444012,84.4999995 15.8105469,84.6015625 C15.7428382,84.7031255 15.6920575,84.7877601 15.6582031,84.8554688 L15.0488281,84.5 C15.7597692,83.3489526 16.3014304,81.9947995 16.6738281,80.4375 L17.3847656,80.5898438 C17.3509113,80.6575524 17.3170575,80.7591139 17.2832031,80.8945312 C17.2154945,81.1992203 17.0800791,81.6223931 16.8769531,82.1640625 L20.8378906,82.1640625 L20.8378906,82.8242188 L16.6230469,82.8242188 C16.5214839,83.0611991 16.3691416,83.3828105 16.1660156,83.7890625 C16.0644526,84.0260429 15.996745,84.195312 15.9628906,84.296875 L20.6347656,84.296875 L20.6347656,84.9570312 L20.2285156,86.53125 Z M11.4433594,83.2304688 L11.4433594,82.5703125 L13.0683594,82.5703125 L13.0683594,80.4882812 L13.7285156,80.5898438 L13.7285156,82.5703125 L15.1503906,82.5703125 L15.1503906,83.2304688 L12.9667969,83.2304688 L12.9667969,85.1601562 L14.7441406,85.1601562 L14.7441406,91.3046875 C14.777995,91.7786482 14.5410182,91.9986981 14.0332031,91.9648438 L13.1699219,91.9648438 L13.0175781,91.3046875 L13.7792969,91.3046875 C13.9824229,91.3385418 14.0670575,91.2539073 14.0332031,91.0507812 L14.0332031,85.8710938 L12.9667969,85.8710938 C12.9667969,88.511732 12.6282586,90.66145 11.9511719,92.3203125 L11.2402344,92.015625 C11.6464864,91.0677036 11.917317,90.1197964 12.0527344,89.171875 C12.1881517,88.2578079 12.2558594,86.9205817 12.2558594,85.1601562 L12.2558594,83.2304688 L11.4433594,83.2304688 Z M26.6269531,83.078125 L26.6269531,82.3671875 L27.9980469,82.3671875 C28.0996099,81.7239551 28.2011714,81.0976593 28.3027344,80.4882812 L28.9628906,80.5898438 C28.895182,81.1653675 28.8105474,81.7578095 28.7089844,82.3671875 L31.3496094,82.3671875 L31.3496094,83.078125 L28.6074219,83.078125 C28.5735675,83.2135423 28.5227868,83.4505191 28.4550781,83.7890625 C28.3535151,84.1953145 28.2858075,84.499999 28.2519531,84.703125 L31.5019531,84.703125 L31.5019531,85.4140625 L28.0996094,85.4140625 C28.065755,85.5833342 27.9980474,85.8372379 27.8964844,86.1757812 C27.8287757,86.5481789 27.761068,86.8359365 27.6933594,87.0390625 L31.0957031,87.0390625 L31.0957031,87.75 L29.4707031,90.8476562 L30.6894531,91.8632812 L30.2324219,92.3710938 L26.6269531,89.2734375 L27.0839844,88.765625 L28.9628906,90.3398438 L30.3339844,87.75 L26.9824219,87.75 L26.9824219,87.0390625 C27.0839849,86.5312475 27.2194002,85.9895862 27.3886719,85.4140625 L26.1699219,85.4140625 L26.1699219,84.703125 L27.5410156,84.703125 C27.6425786,84.1276013 27.7441401,83.58594 27.8457031,83.078125 L26.6269531,83.078125 Z M22.2597656,83.0273438 L22.2597656,82.3164062 L23.6308594,82.3164062 C23.8001311,81.7408825 23.9524733,81.1315136 24.0878906,80.4882812 L24.7988281,80.5898438 C24.6972651,81.0976588 24.5618498,81.6731739 24.3925781,82.3164062 L26.2714844,82.3164062 L26.2714844,83.0273438 L24.1894531,83.0273438 C23.8170554,84.3815172 23.4954441,85.4479128 23.2246094,86.2265625 L24.3417969,86.2265625 L24.3417969,83.7890625 L25.0527344,83.7890625 L25.0527344,86.2265625 L26.0683594,86.2265625 L26.0683594,86.9375 L25.0527344,86.9375 L25.0527344,88.7148438 L26.3730469,88.5117188 L26.4746094,89.2226562 L25.0527344,89.4257812 L25.0527344,92.3203125 L24.3417969,92.3203125 L24.3417969,89.5273438 L22.2089844,89.8320312 L22.1074219,89.1210938 L24.3417969,88.8164062 L24.3417969,86.9375 L22.4628906,86.9375 L22.4628906,86.2265625 C22.6660166,85.7187475 23.0045549,84.6523519 23.4785156,83.0273438 L22.2597656,83.0273438 Z M33.8886719,85.0585938 L33.8886719,84.3476562 L37.3417969,84.3476562 L37.3417969,82.2148438 C37.0032535,82.2148438 36.4954461,82.2317707 35.8183594,82.265625 C34.768875,82.3333337 34.0240907,82.3671875 33.5839844,82.3671875 L33.5839844,81.65625 C36.3938943,81.554687 38.9837121,81.4023448 41.3535156,81.1992188 L41.4550781,81.9101562 C41.0826804,81.9440106 40.4394577,81.9947913 39.5253906,82.0625 C38.8821582,82.0963543 38.3912777,82.1302082 38.0527344,82.1640625 L38.0527344,84.3476562 L41.2519531,84.3476562 L41.2519531,85.0585938 L38.0527344,85.0585938 L38.0527344,87.140625 L42.1660156,87.140625 L42.1660156,87.8515625 L38.0527344,87.8515625 L38.0527344,91.203125 C38.0865887,91.8802117 37.7649773,92.2018231 37.0878906,92.1679688 L35.8183594,92.1679688 L35.6152344,91.40625 L36.7832031,91.40625 C37.1894552,91.4401043 37.3756512,91.2708352 37.3417969,90.8984375 L37.3417969,87.8515625 L32.9746094,87.8515625 L32.9746094,87.140625 L37.3417969,87.140625 L37.3417969,85.0585938 L33.8886719,85.0585938 Z M46.8378906,92.3710938 L46.2285156,92.015625 C46.9394567,90.8645776 47.3626295,89.9166704 47.4980469,89.171875 C47.6673186,88.4947883 47.7519531,87.1406352 47.7519531,85.109375 L47.7519531,81.3515625 L51.2558594,81.3515625 L51.2558594,90.8984375 C51.222005,91.1354179 51.3235665,91.2369793 51.5605469,91.203125 L51.9160156,91.203125 C52.1868503,91.2369793 52.3053387,91.1354179 52.2714844,90.8984375 L52.2714844,89.0195312 L52.9316406,89.1210938 L52.9316406,91.1015625 C52.965495,91.6770862 52.6608105,91.9479168 52.0175781,91.9140625 L51.4082031,91.9140625 C50.7988251,91.9479168 50.5110675,91.6770862 50.5449219,91.1015625 L50.5449219,82.1132812 L48.4628906,82.1132812 L48.4628906,85.109375 C48.4628906,87.2083438 48.3782561,88.6302046 48.2089844,89.375 C48.0397127,90.1875041 47.582686,91.186192 46.8378906,92.3710938 Z M46.9394531,87.546875 L45.8222656,86.0742188 L45.8222656,92.3203125 L45.1621094,92.3203125 L45.1621094,86.1757812 C44.823566,87.1237027 44.434247,88.0208291 43.9941406,88.8671875 L43.3847656,88.5117188 C44.231124,86.8867106 44.7897122,85.2955807 45.0605469,83.7382812 L43.7402344,83.7382812 L43.7402344,83.0273438 L45.1621094,83.0273438 L45.1621094,80.4882812 L45.8222656,80.4882812 L45.8222656,83.0273438 L47.1425781,83.0273438 L47.1425781,83.7382812 L45.8222656,83.7382812 L45.8222656,85.6679688 L46.1777344,85.4140625 L47.4980469,87.140625 L46.9394531,87.546875 Z M57.6035156,85.0585938 L57.6035156,81.25 L62.9355469,81.25 L62.9355469,85.0585938 L57.6035156,85.0585938 Z M56.9433594,87.4960938 L56.9433594,86.7851562 L59.9394531,86.7851562 L59.9394531,85.6679688 L60.6503906,85.6679688 L60.6503906,86.7851562 L63.5957031,86.7851562 L63.5957031,87.4960938 L60.8535156,87.4960938 C61.6321654,88.7487042 62.6477802,89.8828074 63.9003906,90.8984375 L63.4941406,91.4570312 C62.4108019,90.6106729 61.4628947,89.5612042 60.6503906,88.3085938 L60.6503906,92.3710938 L59.9394531,92.3710938 L59.9394531,88.3085938 C59.1608034,89.4934955 58.1959693,90.5429642 57.0449219,91.4570312 L56.5878906,90.8984375 C57.9082097,89.8489531 58.9407515,88.7148498 59.6855469,87.4960938 L56.9433594,87.4960938 Z M54.7089844,87.2929688 L54.0996094,86.9375 C55.0475308,85.1093659 55.8092419,82.9596478 56.3847656,80.4882812 L57.0449219,80.640625 C56.8756502,81.4192747 56.6048196,82.4348896 56.2324219,83.6875 L56.2324219,92.3710938 L55.5214844,92.3710938 L55.5214844,85.6679688 L54.7089844,87.2929688 Z M58.3144531,84.3476562 L62.2246094,84.3476562 L62.2246094,81.9609375 L58.3144531,81.9609375 L58.3144531,84.3476562 Z M65.0683594,83.6875 L65.0683594,82.9765625 L66.2871094,82.9765625 L66.2871094,80.4882812 L66.9472656,80.4882812 L66.9472656,82.9765625 L68.0644531,82.9765625 L68.0644531,83.6875 L66.9472656,83.6875 L66.9472656,86.328125 L67.9628906,85.9726562 L68.2167969,86.6328125 L66.9472656,87.0898438 L66.9472656,91.40625 C66.98112,91.9479194 66.7441432,92.2018231 66.2363281,92.1679688 L65.3730469,92.1679688 L65.1699219,91.4570312 L65.9824219,91.4570312 C66.1855479,91.4570312 66.2871094,91.3554698 66.2871094,91.1523438 L66.2871094,87.34375 L65.1191406,87.75 L64.8652344,87.0898438 L66.2871094,86.5820312 L66.2871094,83.6875 L65.0683594,83.6875 Z M68.6230469,82.9257812 L68.6230469,82.2148438 L70.9589844,82.2148438 L70.9589844,80.5390625 L71.6699219,80.5390625 L71.6699219,82.2148438 L73.9042969,82.2148438 L73.9042969,82.9257812 L71.6699219,82.9257812 L71.6699219,84.6015625 L74.4628906,84.6015625 L74.4628906,85.3125 L68.0644531,85.3125 L68.0644531,84.6015625 L70.9589844,84.6015625 L70.9589844,82.9257812 L68.6230469,82.9257812 Z M68.2675781,87.5976562 L68.2675781,86.9375 L72.2792969,86.9375 L72.2792969,85.8203125 L73.0410156,85.8203125 L73.0410156,86.9375 L74.3105469,86.9375 L74.3105469,87.5976562 L73.0410156,87.5976562 L73.0410156,91.40625 C73.07487,91.9479194 72.8040393,92.2018231 72.2285156,92.1679688 L71.1113281,92.1679688 L70.9082031,91.4570312 L71.9746094,91.4570312 C72.2115897,91.4908856 72.3131512,91.3893241 72.2792969,91.1523438 L72.2792969,87.5976562 L68.2675781,87.5976562 Z M70.3496094,90.3398438 L68.7753906,88.5625 L69.2832031,88.0546875 L70.9082031,89.8828125 L70.3496094,90.3398438 Z M79.4394531,85.9726562 L79.1347656,85.3125 C80.082687,84.906248 80.8613251,84.5338559 81.4707031,84.1953125 C80.8274707,83.5859345 80.3365902,82.8242233 79.9980469,81.9101562 L79.5410156,81.9101562 L79.5410156,81.1992188 L84.3652344,81.1992188 L84.3652344,81.9101562 C83.9589823,82.8242233 83.3834673,83.5859345 82.6386719,84.1953125 C83.1803412,84.5677102 84.026687,84.9739561 85.1777344,85.4140625 L84.8730469,86.0742188 C83.6881451,85.6341124 82.7402379,85.1601588 82.0292969,84.6523438 C81.3860645,85.0924501 80.5227919,85.5325499 79.4394531,85.9726562 Z M75.8847656,91.8125 L75.8847656,91.1015625 L80.8613281,91.1015625 L82.4355469,88.0546875 L83.0957031,88.4609375 L81.6738281,91.1015625 L84.9746094,91.1015625 L84.9746094,91.8125 L75.8847656,91.8125 Z M76.5449219,87.9023438 L76.5449219,87.1914062 L80.0996094,87.1914062 L80.0996094,85.8710938 L80.8105469,86.0234375 L80.8105469,87.1914062 L84.3652344,87.1914062 L84.3652344,87.9023438 L76.5449219,87.9023438 Z M78.2714844,86.2773438 L78.2714844,80.4882812 L78.9824219,80.4882812 L78.9824219,86.2773438 L78.2714844,86.2773438 Z M76.3925781,85.8710938 L76.3925781,81.0976562 L77.0527344,81.0976562 L77.0527344,85.8710938 L76.3925781,85.8710938 Z M80.7089844,81.9101562 C81.0813821,82.688806 81.5384088,83.3151018 82.0800781,83.7890625 C82.7910192,83.2473931 83.2818997,82.6210973 83.5527344,81.9101562 L80.7089844,81.9101562 Z M79.0332031,90.6953125 L77.7636719,88.4609375 L78.4238281,88.1054688 L79.6425781,90.3398438 L79.0332031,90.6953125 Z M87.0058594,92.3710938 L86.3457031,92.0664062 C86.8196638,90.9830675 87.1243483,89.9843796 87.2597656,89.0703125 C87.4290373,88.0885368 87.5136719,86.7513105 87.5136719,85.0585938 L87.5136719,81.1992188 L95.2324219,81.1992188 L95.2324219,84.0429688 L88.2246094,84.0429688 L88.2246094,85.0585938 C88.292318,88.1731927 87.8860721,90.6106683 87.0058594,92.3710938 Z M88.8339844,86.53125 L88.8339844,85.8203125 L90.8652344,85.8203125 L89.8496094,84.5 L90.4082031,84.09375 L91.4746094,85.4648438 L91.0175781,85.8203125 L92.5917969,85.8203125 L93.8105469,84.09375 L94.3691406,84.5 L93.4550781,85.8203125 L95.3339844,85.8203125 L95.3339844,86.53125 L93.8613281,86.53125 L93.8613281,88.2070312 L95.7910156,88.2070312 L95.7910156,88.9179688 L93.8613281,88.9179688 L93.8613281,92.2695312 L93.1503906,92.2695312 L93.1503906,88.9179688 L90.9667969,88.9179688 C90.9667969,90.1028705 90.2558665,91.2708276 88.8339844,92.421875 L88.3261719,91.8632812 C89.6126366,90.8137968 90.2558594,89.8320358 90.2558594,88.9179688 L88.3769531,88.9179688 L88.3769531,88.2070312 L90.3066406,88.2070312 L90.3066406,86.53125 L88.8339844,86.53125 Z M88.2246094,81.9101562 L88.2246094,83.3320312 L94.5214844,83.3320312 L94.5214844,81.9101562 L88.2246094,81.9101562 Z M91.0175781,86.53125 L91.0175781,88.2070312 L93.1503906,88.2070312 L93.1503906,86.53125 L91.0175781,86.53125 Z M99.7519531,90.0351562 L99.2441406,89.6289062 L99.2441406,92.3710938 L98.5332031,92.3710938 L98.5332031,85.3125 C98.2285141,86.0911497 97.9069027,86.7682263 97.5683594,87.34375 L96.9589844,86.9882812 C97.8730514,85.1940014 98.6686164,83.0273564 99.3457031,80.4882812 L100.056641,80.640625 C99.8873689,81.4192747 99.6165383,82.3164012 99.2441406,83.3320312 L99.2441406,89.4765625 C100.733731,87.5468654 101.7832,85.5664164 102.392578,83.5351562 L99.9042969,83.5351562 L99.9042969,82.8242188 L102.646484,82.8242188 L102.646484,80.4882812 L103.408203,80.4882812 L103.408203,82.8242188 L106.201172,82.8242188 L106.201172,83.5351562 L103.662109,83.5351562 C104.37305,85.7695424 105.439446,87.7669183 106.861328,89.5273438 L106.302734,89.984375 C105.117833,88.5286386 104.152999,86.7513126 103.408203,84.6523438 L103.408203,89.0703125 L105.083984,89.0703125 L105.083984,89.78125 L103.408203,89.78125 L103.408203,92.3710938 L102.646484,92.3710938 L102.646484,89.78125 L100.919922,89.78125 L100.919922,89.0703125 L102.646484,89.0703125 L102.646484,84.7539062 C102.037106,86.5143317 101.072272,88.2747308 99.7519531,90.0351562 Z M109.197266,92.1171875 L109.044922,91.4570312 L110.212891,91.4570312 C110.483725,91.4908856 110.602214,91.3554703 110.568359,91.0507812 L110.568359,86.9375 L108.181641,86.9375 L108.435547,82.5703125 L109.095703,82.6210938 L108.943359,86.2265625 L110.060547,86.2265625 L110.263672,81.9101562 L108.029297,81.9101562 L108.029297,81.1992188 L110.974609,81.1992188 L110.720703,86.2265625 L111.279297,86.2265625 L111.279297,91.203125 C111.313151,91.8463574 111.008467,92.1510418 110.365234,92.1171875 L109.197266,92.1171875 Z M111.583984,85.6679688 L111.076172,85.2109375 C112.261074,83.9244727 113.242835,82.4010505 114.021484,80.640625 L114.529297,80.640625 C115.375655,82.5026135 116.374343,84.0091088 117.525391,85.1601562 L117.017578,85.6679688 C115.968094,84.5507757 115.05404,83.2304764 114.275391,81.7070312 C113.530595,83.2304764 112.633469,84.5507757 111.583984,85.6679688 Z M111.431641,91.8125 L111.431641,91.1015625 L114.833984,91.1015625 L116.154297,86.5820312 L116.865234,86.7851562 L115.544922,91.1015625 L117.220703,91.1015625 L117.220703,91.8125 L111.431641,91.8125 Z M112.701172,90.4414062 L111.787109,86.8359375 L112.447266,86.6328125 L113.361328,90.2382812 L112.701172,90.4414062 Z M112.498047,85.4648438 L112.498047,84.7539062 L116.052734,84.7539062 L116.052734,85.4648438 L112.498047,85.4648438 Z M114.326172,89.78125 L113.666016,86.4296875 L114.376953,86.2773438 L114.986328,89.6796875 L114.326172,89.78125 Z M107.826172,89.4257812 L107.724609,88.7148438 L110.212891,88.3085938 L110.314453,89.0195312 L107.826172,89.4257812 Z" id="请旋转手机保持竖屏体验" fill="#212E46" fill-rule="nonzero"></path>
            </g>
        </g>
    </g>
</svg>