<?xml version="1.0" encoding="UTF-8"?>
<svg width="166px" height="60px" viewBox="0 0 166 60" version="1.1" xmlns="http://www.w3.org/2000/svg" xmlns:xlink="http://www.w3.org/1999/xlink">
    <!-- Generator: Sketch 61 (89581) - https://sketch.com -->
    <title>编组</title>
    <desc>Created with Sketch.</desc>
    <defs>
        <linearGradient x1="50%" y1="3.83991003%" x2="50%" y2="95.0654728%" id="linearGradient-1">
            <stop stop-color="#7888FD" offset="0%"></stop>
            <stop stop-color="#6073FF" offset="100%"></stop>
        </linearGradient>
        <rect id="path-2" x="0" y="0" width="156" height="50" rx="8"></rect>
        <filter x="-5.8%" y="-12.0%" width="111.5%" height="136.0%" filterUnits="objectBoundingBox" id="filter-3">
            <feOffset dx="0" dy="3" in="SourceAlpha" result="shadowOffsetOuter1"></feOffset>
            <feGaussianBlur stdDeviation="2.5" in="shadowOffsetOuter1" result="shadowBlurOuter1"></feGaussianBlur>
            <feColorMatrix values="0 0 0 0 0.376470588   0 0 0 0 0.450980392   0 0 0 0 1  0 0 0 0.444661458 0" type="matrix" in="shadowBlurOuter1"></feColorMatrix>
        </filter>
    </defs>
    <g id="CN-" stroke="none" stroke-width="1" fill="none" fill-rule="evenodd">
        <g id="landing-copy" transform="translate(-105.000000, -373.000000)" fill-rule="nonzero">
            <g id="编组" transform="translate(110.000000, 375.000000)">
                <g id="Rectangle">
                    <use fill="black" fill-opacity="1" filter="url(#filter-3)" xlink:href="#path-2"></use>
                    <use fill="url(#linearGradient-1)" xlink:href="#path-2"></use>
                </g>
                <path d="M31.9296875,36.8320312 C35.3151042,33.6419271 36.9752604,29.9960938 36.9101562,25.8945312 L36.9101562,25.8945312 L41.890625,25.8945312 L41.890625,36.6367188 L44.3320312,36.6367188 L44.3320312,25.8945312 L48.6289062,25.8945312 L48.6289062,23.453125 L44.3320312,23.453125 L44.3320312,17.59375 L47.5546875,17.59375 L47.5546875,15.1523438 L31.2460938,15.1523438 L31.2460938,17.59375 L34.5664062,17.59375 L34.5664062,23.453125 L30.171875,23.453125 L30.171875,25.8945312 L34.46875,25.8945312 C34.5338542,29.2799479 33.0364583,32.3072917 29.9765625,34.9765625 L29.9765625,34.9765625 L31.9296875,36.8320312 Z M41.890625,23.453125 L37.0078125,23.453125 L37.0078125,17.59375 L41.890625,17.59375 L41.890625,23.453125 Z M72.671875,24.8203125 L74.7226562,23.7460938 L71.5,17.1054688 L69.3515625,18.0820312 L70.8164062,21.109375 L66.6171875,21.3046875 C67.8541667,18.9609375 68.8958333,16.6822917 69.7421875,14.46875 L69.7421875,14.46875 L67.4960938,13.6875 C66.5846354,16.2916667 65.3476562,18.8958333 63.7851562,21.5 L63.7851562,21.5 L63.1992188,21.5 L63.296875,23.84375 L71.9882812,23.453125 L72.671875,24.8203125 Z M57.2421875,36.734375 C58.4140625,35.3020833 59.3580729,33.9023438 60.0742188,32.5351562 L60.0742188,32.5351562 L62.0273438,34.8789062 L63.6875,33.4140625 C62.90625,32.3072917 62.0598958,31.2330729 61.1484375,30.1914062 C62.4505208,27.1966146 63.1341146,23.1927083 63.1992188,18.1796875 L63.1992188,18.1796875 L59.5859375,18.1796875 C59.78125,16.6822917 59.9440104,15.25 60.0742188,13.8828125 L60.0742188,13.8828125 L57.828125,13.7851562 C57.7630208,14.3059896 57.6653646,15.0872396 57.5351562,16.1289062 C57.4700521,17.0403646 57.4049479,17.7239583 57.3398438,18.1796875 L57.3398438,18.1796875 L55.484375,18.1796875 L55.484375,20.4257812 L57.046875,20.4257812 C56.5911458,23.4856771 56.2005208,25.796875 55.875,27.359375 C56.7864583,28.3359375 57.6653646,29.4101562 58.5117188,30.5820312 C57.7955729,32.1445312 56.7864583,33.7070312 55.484375,35.2695312 L55.484375,35.2695312 L57.2421875,36.734375 Z M59.4882812,28.140625 C59.0976562,27.6197917 58.7070312,27.1640625 58.3164062,26.7734375 C58.7070312,24.4296875 59.0325521,22.3138021 59.2929688,20.4257812 L59.2929688,20.4257812 L60.7578125,20.4257812 C60.6927083,23.3554688 60.2695312,25.9270833 59.4882812,28.140625 Z M73.453125,35.7578125 L73.453125,25.796875 L64.078125,25.796875 L64.078125,35.7578125 L73.453125,35.7578125 Z M71.109375,33.4140625 L66.421875,33.4140625 L66.421875,28.140625 L71.109375,28.140625 L71.109375,33.4140625 Z M88.1210938,36.8320312 C91.0507812,33.3815104 92.4179688,28.921875 92.2226562,23.453125 L92.2226562,23.453125 L92.2226562,13.7851562 L89.8789062,13.7851562 L89.8789062,20.5234375 L88.21875,17.203125 L86.4609375,18.0820312 L85.3867188,18.0820312 L85.3867188,13.7851562 L83.0429688,13.7851562 L83.0429688,18.0820312 L81.3828125,18.0820312 L81.3828125,20.4257812 L83.0429688,20.4257812 L83.0429688,24.8203125 L80.8945312,25.3085938 L81.3828125,27.5546875 L83.0429688,27.2617188 L83.0429688,33.3164062 C83.0429688,33.6419271 82.8476562,33.8046875 82.4570312,33.8046875 L82.4570312,33.8046875 L80.9921875,33.8046875 L81.6757812,36.2460938 L83.3359375,36.2460938 C84.7682292,36.3111979 85.4518229,35.6276042 85.3867188,34.1953125 L85.3867188,34.1953125 L85.3867188,26.6757812 L87.1445312,26.2851562 L86.7539062,24.0390625 L85.3867188,24.3320312 L85.3867188,20.4257812 L86.8515625,20.4257812 L86.8515625,19.4492188 L88.7070312,23.2578125 L89.8789062,22.7695312 L89.8789062,24.0390625 L86.0703125,27.8476562 L87.828125,29.4101562 L89.6835938,27.5546875 C89.3580729,30.1588542 88.21875,32.7304688 86.265625,35.2695312 L86.265625,35.2695312 L88.1210938,36.8320312 Z M97.8867188,36.1484375 C99.2539062,36.1484375 99.9375,35.5625 99.9375,34.390625 L99.9375,34.390625 L99.9375,31.5585938 L97.6914062,31.1679688 L97.6914062,33.3164062 C97.6914062,33.6419271 97.5611979,33.8046875 97.3007812,33.8046875 L97.3007812,33.8046875 L95.9335938,33.8046875 C95.6731771,33.8046875 95.5429688,33.6419271 95.5429688,33.3164062 L95.5429688,33.3164062 L95.5429688,27.0664062 L98.0820312,29.4101562 L99.546875,27.6523438 L95.5429688,24.0390625 L95.5429688,22.7695312 L96.6171875,23.2578125 L99.15625,18.1796875 L97.203125,17.203125 L95.5429688,20.5234375 L95.5429688,13.7851562 L93.1992188,13.7851562 L93.1992188,34.390625 C93.1992188,35.5625 93.8502604,36.1484375 95.1523438,36.1484375 L95.1523438,36.1484375 L97.8867188,36.1484375 Z M115.191406,35.5625 L115.191406,24.1367188 L112.359375,24.1367188 L112.359375,20.2304688 L115.777344,20.2304688 L115.777344,17.8867188 L112.359375,17.8867188 L112.359375,13.7851562 L110.015625,13.7851562 L110.015625,24.1367188 L107.476562,24.1367188 L107.476562,35.5625 L115.191406,35.5625 Z M122.613281,36.734375 C123.85026,36.7994792 124.696615,35.8880208 125.152344,34 C125.152344,33.8697917 125.184896,33.609375 125.25,33.21875 C125.380208,32.3072917 125.477865,31.65625 125.542969,31.265625 L125.542969,31.265625 L123.101562,30.484375 C123.101562,31.7213542 123.06901,32.6328125 123.003906,33.21875 C123.003906,33.609375 122.90625,33.8372396 122.710938,33.9023438 C122.580729,33.9023438 122.417969,33.6744792 122.222656,33.21875 C121.96224,32.5026042 121.766927,31.8841146 121.636719,31.3632812 C121.571615,31.0377604 121.50651,30.7773438 121.441406,30.5820312 C122.808594,29.0195312 124.078125,27.2617188 125.25,25.3085938 L125.25,25.3085938 L123.101562,24.0390625 C122.515625,25.1458333 121.799479,26.2851562 120.953125,27.4570312 C120.757812,26.2200521 120.595052,24.6901042 120.464844,22.8671875 L120.464844,22.8671875 L125.054688,22.1835938 L124.761719,19.8398438 L120.269531,20.4257812 L120.269531,20.4257812 L120.269531,19.3515625 C120.204427,18.8958333 120.171875,18.5703125 120.171875,18.375 L120.171875,18.375 L119.878906,13.7851562 L117.4375,13.7851562 L117.730469,18.4726562 C117.730469,18.7330729 117.763021,19.1236979 117.828125,19.6445312 L117.828125,19.6445312 L117.828125,20.8164062 L115.191406,21.2070312 L115.582031,23.6484375 L118.023438,23.2578125 C118.21875,25.9921875 118.479167,28.2382812 118.804688,29.9960938 C117.828125,31.1679688 116.688802,32.2421875 115.386719,33.21875 L115.386719,33.21875 L116.949219,35.0742188 C117.795573,34.4231771 118.641927,33.6419271 119.488281,32.7304688 C119.488281,32.7955729 119.520833,32.8932292 119.585938,33.0234375 C119.716146,33.6744792 119.878906,34.0976562 120.074219,34.2929688 C120.790365,35.9856771 121.636719,36.7994792 122.613281,36.734375 Z M122.613281,19.546875 L124.664062,18.0820312 L122.222656,14.7617188 L120.269531,16.1289062 L122.613281,19.546875 Z M112.847656,33.21875 L109.820312,33.21875 L109.820312,26.4804688 L112.847656,26.4804688 L112.847656,33.21875 Z" id="开始挑战" fill="#FFFFFF"></path>
            </g>
        </g>
    </g>
</svg>