<?xml version="1.0" encoding="UTF-8"?>
<svg width="69px" height="17px" viewBox="0 0 69 17" version="1.1" xmlns="http://www.w3.org/2000/svg" xmlns:xlink="http://www.w3.org/1999/xlink">
    <!-- Generator: Sketch 61 (89581) - https://sketch.com -->
    <title>暴击次数</title>
    <desc>Created with Sketch.</desc>
    <g id="CN-" stroke="none" stroke-width="1" fill="none" fill-rule="evenodd">
        <g id="GAME-Copy-2" transform="translate(-154.000000, -577.000000)" fill="#212E46" fill-rule="nonzero">
            <path d="M155.125,590.664062 C156.15625,590.101562 157.09375,589.492188 157.9375,588.835938 L157.9375,588.835938 L159.695312,589.960938 L160.1875,589.1875 L158.710938,588.273438 C159.085938,587.898438 159.4375,587.546875 159.765625,587.21875 L159.765625,587.21875 L163.070312,587.21875 C163.15067,587.299107 163.261639,587.410077 163.403221,587.551658 L163.874512,588.022949 C163.971191,588.119629 164.054688,588.203125 164.125,588.273438 L164.125,588.273438 L162.789062,589.117188 L163.28125,589.890625 L164.898438,588.90625 C165.742188,589.515625 166.679688,590.078125 167.710938,590.59375 L167.710938,590.59375 L168.132812,589.75 C166.867188,589.234375 165.578125,588.390625 164.265625,587.21875 L164.265625,587.21875 L167.640625,587.21875 L167.640625,586.375 L164.265625,586.375 L164.265625,585.039062 L167.007812,585.039062 L167.007812,584.195312 L164.265625,584.195312 L164.265625,582.929688 L166.234375,582.929688 L166.234375,578.359375 L156.53125,578.359375 L156.53125,582.929688 L158.570312,582.929688 L158.570312,584.195312 L155.828125,584.195312 L155.828125,585.039062 L158.570312,585.039062 L158.570312,586.375 L155.125,586.375 L155.125,587.21875 L158.5,587.21875 C157.46875,588.203125 156.203125,589.070312 154.703125,589.820312 L154.703125,589.820312 L155.125,590.664062 Z M165.320312,580.328125 L157.445312,580.328125 L157.445312,579.203125 L165.320312,579.203125 L165.320312,580.328125 Z M165.320312,582.15625 L157.445312,582.15625 L157.445312,581.03125 L165.320312,581.03125 L165.320312,582.15625 Z M163.28125,584.195312 L159.554688,584.195312 L159.554688,582.929688 L163.28125,582.929688 L163.28125,584.195312 Z M163.28125,586.375 L159.554688,586.375 L159.554688,585.039062 L163.28125,585.039062 L163.28125,586.375 Z M161.101562,593.617188 C161.804688,593.664062 162.132812,593.3125 162.085938,592.5625 L162.085938,592.5625 L162.085938,588.0625 L161.171875,588.0625 L161.171875,592.210938 C161.21875,592.585938 161.03125,592.75 160.609375,592.703125 L160.609375,592.703125 L159.625,592.703125 L159.835938,593.617188 L161.101562,593.617188 Z M166.867188,592.914062 L167.21875,592.140625 L162.789062,589.960938 L162.4375,590.804688 L166.867188,592.914062 Z M155.898438,592.914062 L160.539062,590.875 L160.1875,590.03125 L155.546875,592.070312 L155.898438,592.914062 Z M184.48125,592.984375 L184.48125,587.429688 L183.496875,587.429688 L183.496875,592 L179.910937,592 L179.910937,585.8125 L185.8875,585.8125 L185.8875,584.828125 L179.910937,584.828125 L179.910937,581.523438 L184.903125,581.523438 L184.903125,580.539062 L179.910937,580.539062 L179.910937,577.445312 L178.926562,577.445312 L178.926562,580.539062 L174.004687,580.539062 L174.004687,581.523438 L178.926562,581.523438 L178.926562,584.828125 L173.020312,584.828125 L173.020312,585.8125 L178.926562,585.8125 L178.926562,592 L175.410937,592 L175.410937,587.429688 L174.35625,587.429688 L174.35625,592.984375 L184.48125,592.984375 Z M202.025,584.6875 L203.501563,581.171875 L203.501563,580.1875 L197.595313,580.1875 C197.782813,579.765625 197.99375,579.132812 198.228125,578.289062 C198.321875,578.007812 198.392188,577.796875 198.439063,577.65625 L198.439063,577.65625 L197.454688,577.375 C196.798438,579.8125 195.884375,582.0625 194.7125,584.125 L194.7125,584.125 L195.626563,584.617188 C196.189063,583.585938 196.728125,582.4375 197.24375,581.171875 L197.24375,581.171875 L202.446875,581.171875 L201.110938,584.265625 L202.025,584.6875 Z M193.376563,583 L194.290625,582.507812 L192.040625,578.429688 L191.126563,578.921875 L193.376563,583 Z M203.43125,593.898438 L204.134375,593.195312 C200.99375,590.289062 199.4,587.21875 199.353125,583.984375 L199.353125,583.984375 L199.353125,582.578125 L198.36875,582.578125 L198.36875,583.84375 C198.603125,586.9375 196.939063,590.03125 193.376563,593.125 L193.376563,593.125 L194.079688,593.898438 C196.704688,591.507812 198.298438,589.304688 198.860938,587.289062 C199.564063,589.445312 201.0875,591.648438 203.43125,593.898438 L203.43125,593.898438 Z M191.759375,591.71875 L194.501563,585.460938 L193.5875,585.039062 L190.845313,591.367188 L191.759375,591.71875 Z M221.467187,593.898438 L222.240625,593.265625 C221.115625,591.765625 220.107812,590.21875 219.217187,588.625 C220.107812,586.890625 220.69375,584.5 220.975,581.453125 L220.975,581.453125 L222.029687,581.453125 L222.029687,580.46875 L218.021875,580.46875 C218.303125,579.53125 218.560937,578.570312 218.795312,577.585938 L218.795312,577.585938 L217.810937,577.375 C217.295312,579.90625 216.545312,582.085938 215.560937,583.914062 L215.560937,583.914062 L216.475,584.335938 C216.615625,584.195312 216.709375,584.007812 216.75625,583.773438 C217.0375,585.554688 217.50625,587.171875 218.1625,588.625 C217.50625,589.9375 216.475,591.507812 215.06875,593.335938 L215.06875,593.335938 L215.9125,593.898438 C217.084375,592.351562 218.021875,590.96875 218.725,589.75 C219.521875,591.15625 220.435937,592.539062 221.467187,593.898438 L221.467187,593.898438 Z M209.303125,585.671875 C210.475,584.921875 211.459375,584.054688 212.25625,583.070312 L212.25625,583.070312 L212.25625,585.25 L213.240625,585.25 L213.240625,583.84375 L215.701562,585.53125 L216.19375,584.828125 L213.6625,583 L213.240625,583.5625 L213.240625,582.015625 L216.053125,582.015625 L216.053125,581.101562 L213.240625,581.101562 L213.240625,577.445312 L212.25625,577.445312 L212.25625,581.101562 L209.232812,581.101562 L209.232812,582.015625 L212.045312,582.015625 C211.107812,583.140625 210.00625,584.101562 208.740625,584.898438 L208.740625,584.898438 L209.303125,585.671875 Z M211.13125,580.679688 L211.834375,580.117188 L210.217187,578.21875 L209.514062,578.78125 L211.13125,580.679688 Z M214.435937,580.679688 L215.982812,578.78125 L215.279687,578.21875 L213.732812,580.117188 L214.435937,580.679688 Z M218.725,587.429688 C218.06875,585.789062 217.646875,584.007812 217.459375,582.085938 L217.459375,582.085938 L217.670312,581.453125 L219.990625,581.453125 C219.803125,583.890625 219.38125,585.882812 218.725,587.429688 Z M209.303125,593.828125 C210.896875,593.078125 212.232812,592.257812 213.310937,591.367188 C213.967187,591.695312 214.389062,591.90625 214.576562,592 C214.810937,592.140625 214.998437,592.234375 215.139062,592.28125 L215.139062,592.28125 L215.63125,591.4375 C215.209375,591.203125 214.670312,590.945312 214.014062,590.664062 C214.717187,589.914062 215.209375,588.929688 215.490625,587.710938 L215.490625,587.710938 L215.490625,586.796875 L212.115625,586.796875 C212.25625,586.421875 212.396875,586.070312 212.5375,585.742188 L212.5375,585.742188 L211.623437,585.460938 C211.482812,585.882812 211.365625,586.1875 211.271875,586.375 C211.178125,586.5625 211.107812,586.703125 211.060937,586.796875 L211.060937,586.796875 L209.092187,586.796875 L209.092187,587.78125 L210.709375,587.78125 C210.334375,588.484375 210.00625,589.09375 209.725,589.609375 C209.959375,589.703125 210.334375,589.867188 210.85,590.101562 C211.50625,590.429688 212.021875,590.6875 212.396875,590.875 C211.834375,591.390625 210.6625,592.117188 208.88125,593.054688 L208.88125,593.054688 L209.303125,593.828125 Z M213.1,590.171875 C212.06875,589.703125 211.365625,589.375 210.990625,589.1875 C211.271875,588.765625 211.50625,588.296875 211.69375,587.78125 L211.69375,587.78125 L214.50625,587.78125 C214.225,588.8125 213.75625,589.609375 213.1,590.171875 Z" id="暴击次数"></path>
        </g>
    </g>
</svg>