<?xml version="1.0" encoding="UTF-8"?>
<svg width="122px" height="62px" viewBox="0 0 122 62" version="1.1" xmlns="http://www.w3.org/2000/svg" xmlns:xlink="http://www.w3.org/1999/xlink">
    <!-- Generator: Sketch 61 (89581) - https://sketch.com -->
    <title>任意点击屏幕快速击败它</title>
    <desc>Created with Sketch.</desc>
    <g id="CN-" stroke="none" stroke-width="1" fill="none" fill-rule="evenodd">
        <g id="ready" transform="translate(-124.000000, -451.000000)" fill="#212E46" fill-rule="nonzero">
            <path d="M129.042969,474.636719 L129.042969,457.15625 C129.628906,455.463542 130.019531,454.19401 130.214844,453.347656 C130.410156,452.891927 130.540365,452.533854 130.605469,452.273438 L130.605469,452.273438 L128.847656,451.882812 C127.545573,456.765625 125.917969,460.736979 123.964844,463.796875 L123.964844,463.796875 L125.429688,464.773438 C126.080729,463.796875 126.699219,462.625 127.285156,461.257812 L127.285156,461.257812 L127.285156,474.636719 L129.042969,474.636719 Z M141.835938,473.367188 L141.835938,471.707031 L137.246094,471.707031 L137.246094,463.894531 L142.617188,463.894531 L142.617188,462.234375 L137.246094,462.234375 L137.246094,455.300781 C138.938802,455.105469 140.436198,454.910156 141.738281,454.714844 L141.738281,454.714844 L141.445312,453.054688 C138.645833,453.510417 135.16276,453.835938 130.996094,454.03125 L130.996094,454.03125 L131.09375,455.789062 C132.526042,455.658854 134.023438,455.561198 135.585938,455.496094 L135.585938,455.496094 L135.585938,462.234375 L130.117188,462.234375 L130.117188,463.894531 L135.585938,463.894531 L135.585938,471.707031 L130.898438,471.707031 L130.898438,473.367188 L141.835938,473.367188 Z M162.832031,459.011719 L162.832031,457.546875 L157.851562,457.546875 L159.023438,455.59375 L158.730469,455.496094 L161.855469,455.496094 L161.855469,453.933594 L154.921875,453.933594 L154.921875,452.078125 L153.261719,451.785156 L153.261719,453.933594 L146.328125,453.933594 L146.328125,455.496094 L149.453125,455.496094 L149.160156,455.59375 L150.332031,457.546875 L145.253906,457.546875 L145.253906,459.011719 L162.832031,459.011719 Z M155.898438,457.546875 L152.382812,457.546875 L151.015625,455.496094 L157.167969,455.496094 L155.898438,457.546875 Z M155.019531,471.121094 L156.191406,470.144531 L154.042969,467.605469 L160.78125,467.605469 L160.78125,460.28125 L147.304688,460.28125 L147.304688,467.605469 L153.75,467.605469 L152.773438,468.484375 L155.019531,471.121094 Z M159.121094,463.308594 L148.964844,463.308594 L148.964844,461.84375 L159.121094,461.84375 L159.121094,463.308594 Z M159.121094,466.042969 L148.964844,466.042969 L148.964844,464.675781 L159.121094,464.675781 L159.121094,466.042969 Z M162.246094,472.878906 L163.515625,471.902344 L160.683594,468.09375 L159.414062,469.070312 L162.246094,472.878906 Z M145.9375,472.976562 L148.574219,469.070312 L147.304688,468.191406 L144.570312,472.097656 L145.9375,472.976562 Z M157.65625,473.855469 C158.697917,473.920573 159.186198,473.432292 159.121094,472.390625 L159.121094,472.390625 L159.121094,470.535156 L157.460938,470.242188 L157.460938,471.707031 C157.526042,472.16276 157.330729,472.358073 156.875,472.292969 L156.875,472.292969 L151.601562,472.292969 C151.210938,472.292969 151.015625,472.097656 151.015625,471.707031 L151.015625,471.707031 L151.015625,468.289062 L149.355469,468.289062 L149.355469,472.292969 C149.290365,473.39974 149.84375,473.920573 151.015625,473.855469 L151.015625,473.855469 L157.65625,473.855469 Z M181.777344,467.410156 L181.777344,459.109375 L175.039062,459.109375 L175.039062,456.277344 L183.4375,456.277344 L183.4375,454.617188 L175.039062,454.617188 L175.039062,451.785156 L173.28125,451.785156 L173.28125,459.109375 L167.617188,459.109375 L167.617188,467.410156 L181.777344,467.410156 Z M180.019531,465.75 L169.375,465.75 L169.375,460.867188 L180.019531,460.867188 L180.019531,465.75 Z M167.128906,474.636719 L169.667969,469.167969 L168.007812,468.386719 L165.566406,473.953125 L167.128906,474.636719 Z M182.265625,474.539062 L183.828125,473.855469 L181.289062,468.484375 L179.726562,469.167969 L182.265625,474.539062 Z M172.597656,474.246094 L174.257812,473.5625 L172.5,468.679688 L170.9375,469.265625 L172.597656,474.246094 Z M177.1875,473.953125 L178.75,473.367188 L176.992188,468.679688 L175.332031,469.363281 L177.1875,473.953125 Z M202.480469,473.367188 L202.480469,465.652344 L200.722656,465.652344 L200.722656,471.609375 L196.132812,471.609375 L196.132812,463.503906 L204.238281,463.503906 L204.238281,461.746094 L196.132812,461.746094 L196.132812,457.644531 L202.96875,457.644531 L202.96875,455.886719 L196.132812,455.886719 L196.132812,451.785156 L194.472656,451.785156 L194.472656,455.886719 L187.636719,455.886719 L187.636719,457.644531 L194.472656,457.644531 L194.472656,461.746094 L186.269531,461.746094 L186.269531,463.503906 L194.472656,463.503906 L194.472656,471.609375 L189.785156,471.609375 L189.785156,465.652344 L188.125,465.652344 L188.125,473.367188 L202.480469,473.367188 Z M211.660156,474.734375 C214.329427,472.651042 215.729167,470.470052 215.859375,468.191406 L215.859375,468.191406 L219.570312,468.191406 L219.570312,474.539062 L221.328125,474.539062 L221.328125,468.191406 L224.746094,468.191406 L224.746094,466.53125 L221.328125,466.53125 L221.328125,463.601562 L223.964844,463.601562 L223.964844,461.941406 L220.742188,461.941406 L222.402344,459.597656 L221.132812,458.71875 L223.867188,458.71875 L223.867188,453.054688 L208.730469,453.054688 L208.730469,460.671875 C208.730469,464.057292 208.60026,466.628906 208.339844,468.386719 C208.014323,470.144531 207.428385,472 206.582031,473.953125 L206.582031,473.953125 L208.242188,474.636719 C209.869792,471.186198 210.61849,466.53125 210.488281,460.671875 L210.488281,460.671875 L210.488281,458.71875 L214.492188,458.71875 L213.320312,459.597656 L215.078125,461.941406 L211.5625,461.941406 L211.5625,463.601562 L214.199219,463.601562 L214.199219,466.53125 L210.78125,466.53125 L210.78125,468.191406 L214.101562,468.191406 C213.971354,469.884115 212.766927,471.641927 210.488281,473.464844 L210.488281,473.464844 L211.660156,474.734375 Z M222.109375,457.058594 L210.488281,457.058594 L210.488281,454.714844 L222.109375,454.714844 L222.109375,457.058594 Z M218.691406,461.941406 L215.859375,461.941406 L216.738281,461.257812 L214.785156,458.71875 L220.9375,458.71875 L218.691406,461.941406 Z M219.570312,466.53125 L215.859375,466.53125 L215.859375,463.601562 L219.570312,463.601562 L219.570312,466.53125 Z M234.21875,456.179688 L234.21875,454.910156 L238.808594,454.910156 L238.808594,456.179688 L240.46875,456.179688 L240.46875,454.910156 L245.449219,454.910156 L245.449219,453.445312 L240.46875,453.445312 L240.46875,451.785156 L238.808594,451.785156 L238.808594,453.445312 L234.21875,453.445312 L234.21875,451.785156 L232.558594,451.785156 L232.558594,453.445312 L227.578125,453.445312 L227.578125,454.910156 L232.558594,454.910156 L232.558594,456.179688 L234.21875,456.179688 Z M237.34375,474.636719 L237.34375,469.460938 L241.054688,469.460938 L241.054688,471.023438 C241.054688,471.348958 240.826823,471.511719 240.371094,471.511719 L240.371094,471.511719 L239.199219,471.511719 L239.589844,472.976562 L241.152344,472.976562 C242.19401,472.976562 242.714844,472.455729 242.714844,471.414062 L242.714844,471.414062 L242.714844,468.777344 C243.43099,469.167969 244.244792,469.591146 245.15625,470.046875 L245.15625,470.046875 L245.839844,468.582031 C243.886719,467.670573 242.259115,466.69401 240.957031,465.652344 L240.957031,465.652344 L245.15625,465.652344 L245.15625,464.1875 L235.390625,464.1875 C235.455729,464.122396 235.520833,463.992188 235.585938,463.796875 C235.911458,463.40625 236.106771,463.080729 236.171875,462.820312 L236.171875,462.820312 L243.300781,462.820312 L243.300781,456.375 L229.824219,456.375 L229.824219,462.820312 L234.316406,462.820312 C234.05599,463.276042 233.730469,463.731771 233.339844,464.1875 L233.339844,464.1875 L227.871094,464.1875 L227.871094,465.652344 L231.875,465.652344 C230.638021,466.69401 229.042969,467.670573 227.089844,468.582031 L227.089844,468.582031 L227.871094,470.046875 C228.066406,469.916667 228.326823,469.786458 228.652344,469.65625 C229.433594,469.200521 229.986979,468.875 230.3125,468.679688 L230.3125,468.679688 L230.3125,472.976562 L231.972656,472.976562 L231.972656,469.460938 L235.683594,469.460938 L235.683594,474.636719 L237.34375,474.636719 Z M241.640625,459.011719 L231.484375,459.011719 L231.484375,457.742188 L241.640625,457.742188 L241.640625,459.011719 Z M241.640625,461.453125 L231.484375,461.453125 L231.484375,460.183594 L241.640625,460.183594 L241.640625,461.453125 Z M235.683594,467.996094 L231.386719,467.996094 C232.428385,467.214844 233.339844,466.433594 234.121094,465.652344 L234.121094,465.652344 L238.808594,465.652344 C239.264323,466.173177 240.143229,466.954427 241.445312,467.996094 L241.445312,467.996094 L237.34375,467.996094 L237.34375,466.238281 L235.683594,466.238281 L235.683594,467.996094 Z M141.103516,512.734375 C143.837891,510.195312 145.563151,507.65625 146.279297,505.117188 C147.125651,507.591146 148.948568,510.097656 151.748047,512.636719 L151.748047,512.636719 L153.017578,511.367188 C149.697266,508.4375 147.744141,505.507812 147.158203,502.578125 L147.158203,502.578125 L152.919922,502.578125 L152.919922,500.917969 L150.966797,500.917969 L150.966797,493.886719 L146.767578,493.886719 L146.767578,489.882812 L145.107422,489.882812 L145.107422,493.886719 L141.884766,493.886719 L141.884766,495.546875 L145.107422,495.546875 L145.107422,500.917969 L141.103516,500.917969 L141.103516,502.578125 L145.009766,502.578125 C144.749349,505.768229 143.024089,508.730469 139.833984,511.464844 L139.833984,511.464844 L141.103516,512.734375 Z M139.736328,512.636719 L139.736328,496.230469 L141.591797,498.476562 L142.666016,497.5 L140.419922,494.667969 L139.736328,495.351562 L139.736328,489.882812 L138.076172,489.882812 L138.076172,512.636719 L139.736328,512.636719 Z M136.708984,505.800781 L136.708984,493.984375 L135.146484,493.984375 L135.146484,505.800781 L136.708984,505.800781 Z M149.306641,500.917969 L146.767578,500.917969 L146.767578,495.546875 L149.306641,495.546875 L149.306641,500.917969 Z M167.763672,509.414062 L167.763672,504.335938 L172.158203,507.851562 L173.134766,506.484375 L168.740234,502.96875 L167.763672,504.238281 L167.763672,502.1875 L172.255859,502.1875 L172.255859,495.839844 L167.763672,495.839844 L167.763672,493.886719 L172.939453,493.886719 L172.939453,492.226562 L167.763672,492.226562 L167.763672,489.785156 L166.005859,489.785156 L166.005859,492.226562 L160.732422,492.226562 L160.732422,493.886719 L166.005859,493.886719 L166.005859,495.839844 L161.416016,495.839844 L161.416016,502.1875 L165.322266,502.1875 C164.150391,503.75 162.42513,505.214844 160.146484,506.582031 L160.146484,506.582031 L161.123047,508.046875 C163.336589,506.614583 164.964193,505.247396 166.005859,503.945312 L166.005859,503.945312 L166.005859,509.414062 L167.763672,509.414062 Z M158.779297,495.351562 L160.244141,494.472656 L157.705078,490.175781 L156.142578,491.054688 L158.779297,495.351562 Z M170.595703,500.625 L167.763672,500.625 L167.763672,497.402344 L170.595703,497.402344 L170.595703,500.625 Z M166.005859,500.625 L163.076172,500.625 L163.076172,497.402344 L166.005859,497.402344 L166.005859,500.625 Z M156.533203,512.148438 L158.486328,509.21875 C159.788411,510.911458 161.64388,511.757812 164.052734,511.757812 L164.052734,511.757812 L173.232422,511.757812 L173.720703,510.097656 L164.052734,510.097656 C161.839193,510.16276 160.276693,509.21875 159.365234,507.265625 L159.365234,507.265625 L159.365234,497.890625 L155.458984,497.890625 L155.458984,499.648438 L157.705078,499.648438 L157.705078,507.167969 L155.068359,511.269531 L156.533203,512.148438 Z M192.177734,511.367188 L192.177734,503.652344 L190.419922,503.652344 L190.419922,509.609375 L185.830078,509.609375 L185.830078,501.503906 L193.935547,501.503906 L193.935547,499.746094 L185.830078,499.746094 L185.830078,495.644531 L192.666016,495.644531 L192.666016,493.886719 L185.830078,493.886719 L185.830078,489.785156 L184.169922,489.785156 L184.169922,493.886719 L177.333984,493.886719 L177.333984,495.644531 L184.169922,495.644531 L184.169922,499.746094 L175.966797,499.746094 L175.966797,501.503906 L184.169922,501.503906 L184.169922,509.609375 L179.482422,509.609375 L179.482422,503.652344 L177.822266,503.652344 L177.822266,511.367188 L192.177734,511.367188 Z M213.759766,512.636719 L214.931641,511.464844 C212.978516,509.446615 211.48112,507.428385 210.439453,505.410156 C211.806641,502.871094 212.718099,499.550781 213.173828,495.449219 L213.173828,495.449219 L214.638672,495.449219 L214.638672,493.789062 L208.583984,493.789062 C208.974609,492.617188 209.30013,491.380208 209.560547,490.078125 L209.560547,490.078125 L207.998047,489.785156 C207.151693,493.365885 205.979818,496.523438 204.482422,499.257812 L204.482422,499.257812 L204.482422,490.957031 L197.255859,490.957031 L197.255859,505.214844 L198.818359,505.214844 L198.818359,492.617188 L202.919922,492.617188 L202.919922,505.214844 L204.482422,505.214844 L204.482422,500.039062 L205.556641,500.722656 C205.882161,500.201823 206.17513,499.648438 206.435547,499.0625 C206.95638,501.471354 207.639974,503.58724 208.486328,505.410156 C207.57487,507.167969 206.044922,509.21875 203.896484,511.5625 L203.896484,511.5625 L205.166016,512.636719 C206.923828,510.813802 208.35612,508.990885 209.462891,507.167969 C210.504557,508.990885 211.936849,510.813802 213.759766,512.636719 L213.759766,512.636719 Z M197.451172,512.539062 C199.208984,510.390625 200.348307,508.470052 200.869141,506.777344 L200.869141,506.777344 L203.798828,510.390625 L204.970703,509.414062 L201.357422,504.824219 C201.552734,503.652344 201.650391,502.317708 201.650391,500.820312 L201.650391,500.820312 L201.650391,494.277344 L200.185547,494.277344 L200.185547,500.820312 C200.185547,503.294271 199.92513,505.182292 199.404297,506.484375 C198.948568,507.851562 197.906901,509.544271 196.279297,511.5625 L196.279297,511.5625 L197.451172,512.539062 Z M209.462891,503.457031 C208.746745,501.829427 208.128255,499.453125 207.607422,496.328125 C207.802734,496.002604 207.932943,495.709635 207.998047,495.449219 L207.998047,495.449219 L211.416016,495.449219 C211.155599,498.313802 210.504557,500.983073 209.462891,503.457031 Z M219.619141,497.695312 L219.619141,494.570312 L232.802734,494.570312 L232.802734,497.695312 L234.560547,497.695312 L234.560547,492.8125 L227.041016,492.8125 L227.041016,490.078125 L225.380859,489.785156 L225.380859,492.8125 L217.861328,492.8125 L217.861328,497.695312 L219.619141,497.695312 Z M220.400391,509.707031 C220.270182,511.269531 220.953776,511.985677 222.451172,511.855469 L222.451172,511.855469 L231.923828,511.855469 C233.35612,511.920573 234.039714,511.236979 233.974609,509.804688 L233.974609,509.804688 L233.974609,507.167969 L232.216797,506.777344 L232.216797,509.316406 C232.216797,509.902344 231.923828,510.195312 231.337891,510.195312 L231.337891,510.195312 L222.939453,510.195312 C222.353516,510.195312 222.060547,509.902344 222.060547,509.316406 L222.060547,509.316406 L222.060547,505.019531 C225.250651,503.847656 228.896484,502.089844 232.998047,499.746094 L232.998047,499.746094 L232.021484,498.28125 C229.352214,499.973958 226.031901,501.601562 222.060547,503.164062 L222.060547,503.164062 L222.060547,497.5 L220.400391,497.5 L220.400391,509.707031 Z" id="任意点击屏幕快速击败它"></path>
        </g>
    </g>
</svg>