<?xml version="1.0" encoding="UTF-8"?>
<svg width="316px" height="197px" viewBox="0 0 316 197" version="1.1" xmlns="http://www.w3.org/2000/svg" xmlns:xlink="http://www.w3.org/1999/xlink">
    <!-- Generator: Sketch 61 (89581) - https://sketch.com -->
    <title>编组</title>
    <desc>Created with Sketch.</desc>
    <g id="CN-" stroke="none" stroke-width="1" fill="none" fill-rule="evenodd">
        <g id="GAME-Copy-2" transform="translate(-31.000000, -218.000000)" fill-rule="nonzero">
            <g id="编组" transform="translate(31.312500, 218.000000)">
                <g id="Group" opacity="0.899321057" transform="translate(114.687500, 0.000000)">
                    <polygon id="Path-2" fill="#FFFFFF" points="82.8916016 36.0439453 75.1450195 36.0439453 67.722168 32.4482422 65.652832 28.8222656 61.1879883 23.8818359 54.171875 18.6733398 50.8618164 18.6733398 50.2192383 20.684082 51.5161133 25.2729492 52.152832 27.3586426 24.5522461 15.15625 21.7675781 15.15625 20.8994141 17.3183594 16.2966842 17.3183594 13.9956055 18.6733398 13.9956055 22.4179688 13.9956055 25.6000977 12.8789062 27.3586426 17.9018555 32.4482422 17.9018555 36.0439453 18.5498047 38.1044922 29.3920898 48.28125 21.7675781 51.6875 21.7675781 54.815918 22.5185547 56.5048828 19.3647461 58.7412109 19.3647461 62.5 22.5185547 64.0722656 23.5043945 65.284668 24.5522461 67.8452148 33.1279297 68.6640625 35.1245117 71.6835938 41.5039062 71.6835938 58.4135742 68.6640625 71.7197266 62.5 82.8916016 56.5048828"></polygon>
                    <path d="M33.5,73 C35.4298899,73 37,74.7943908 37,76.9999537 C37,79.2056092 35.4298899,81 33.5,81 C31.5701101,81 30,79.2056092 30,76.9999537 C30,74.7943908 31.5701101,73 33.5,73 Z M33.5,75.2738449 C32.6672604,75.2738449 31.9896373,76.0481698 31.9896373,76.9999537 C31.9896373,77.9518302 32.6672604,78.7261551 33.5,78.7261551 C34.3327396,78.7261551 35.0103627,77.9518302 35.0103627,76.9999537 C35.0103627,76.0481698 34.3327396,75.2738449 33.5,75.2738449 Z M13.5000829,68 C15.4299856,68 17,69.5700973 17,71.5 C17,73.4299027 15.4299855,75 13.5000829,75 C11.5701802,75 10,73.4299027 10,71.5 C10,69.5700973 11.5701802,68 13.5000829,68 Z M21.3153635,14.4849786 C23.1231874,13.4044828 26.0851667,14.4355252 26.6605964,14.6533139 C26.6855773,14.6627294 26.7100378,14.6731128 26.7341514,14.6843763 L26.7341514,14.6843763 L50.7387783,25.9001851 C49.9137125,24.3572733 49.1063415,22.6000047 49.0145712,21.4894144 C49.0104077,21.4379371 49.0097138,21.3861958 49.0128364,21.3346304 C49.1207403,19.5071415 49.7469992,18.2771414 50.8746123,17.6789485 C52.8035245,16.6558257 55.2402096,18.0984227 55.5115307,18.26623 C55.5479613,18.2886688 55.5828305,18.3133076 55.616312,18.3399702 L55.616312,18.3399702 L63.3550337,24.5212088 C63.3727285,24.535464 63.3900764,24.5502473 63.4069039,24.5655585 C65.361491,26.3424501 67.7402341,30.768092 67.840505,30.9556982 C67.9188307,31.1021556 67.9591212,31.2588314 67.9670578,31.4148363 C68.9825601,31.8700807 69.856547,32.3335966 70.6650889,32.7630362 C72.7704293,33.8813701 74.1622507,34.6198277 76.362831,34.363409 C80.6061257,33.8687867 83.1203559,34.5731901 83.2253106,34.6034605 C83.6890198,34.7369496 84.0066597,35.1695351 84,35.6585257 L84,35.6585257 L83.711572,56.9620419 C83.7051533,57.4433769 83.3857786,57.8623231 82.9281411,57.9898285 C80.6376988,58.6316671 74.4717371,61.0817237 67.5357024,65.7589445 L67.5357024,65.7589445 L67.5114153,65.7748717 C67.2501561,65.9408311 61.0311098,69.8502038 54.0216935,70.7184546 C47.2487291,71.557491 36.3821822,72.9769452 36.2732374,72.9911125 C36.2279594,72.9970961 36.1825079,73 36.1370565,73 C36.0043451,73 35.8723276,72.9748333 35.7479432,72.9253799 C35.4722852,72.8156496 33.0321305,71.8014143 32.2823546,69.9920524 C32.1886326,69.7659042 32.1277415,69.5353891 32.092612,69.3034112 C31.6459471,69.3138717 31.1206963,69.3218792 30.5562392,69.3218792 C28.5005139,69.3218792 25.930597,69.2160208 24.7960447,68.7381176 C24.740358,68.7146228 24.686753,68.6864643 24.6359237,68.653818 C24.533094,68.5880634 22.4504795,67.2238373 22.1194383,64.8619302 C21.1278761,64.8108268 19.7282047,64.5529892 18.7418048,63.6053445 C18.1936114,63.0787799 17.5600664,62.1185738 17.6547859,60.5344802 C17.6597734,60.4201081 17.8283082,57.5595859 21.1680365,55.903083 C20.9388274,55.6004337 20.1607744,54.4338674 20.491859,52.9127565 C20.7970084,51.5113414 21.9312137,50.3343146 23.8630751,49.4144984 C23.8741777,49.4092187 23.8852804,49.4041149 23.8965565,49.3992752 L23.8965565,49.3992752 L27.754381,47.7246123 C25.3447586,45.825627 18.9621665,40.7415704 17.6901756,39.1768467 C16.7126218,37.9743012 16.4775578,36.4474926 17.0104851,34.7615003 C17.1537353,34.3083569 17.3329825,33.9075047 17.5018642,33.5812177 C15.9433295,32.1992715 13.3112204,29.671108 13.1802438,29.5453075 C13.1752129,29.5404678 13.1703555,29.535628 13.1653246,29.5307003 C12.3543106,28.7200865 11.9528803,27.7363856 12.0044036,26.6858962 C12.0673764,25.3979072 12.7881814,24.2659341 13.4309208,23.5026617 C13.425196,23.4952811 13.4211193,23.4869326 13.4156113,23.47942 C13.3990007,23.4568051 13.3841249,23.4330794 13.3692924,23.4091446 C13.3570622,23.3893346 13.3443548,23.3699206 13.3334257,23.3494177 C13.3303898,23.343731 13.3264865,23.3386603 13.3235374,23.3329186 C10.9654382,18.7214304 14.693674,16.3511856 14.7316659,16.3277788 C16.4939516,15.2594484 18.6697244,15.8251269 20.047883,16.3952163 C20.1882708,15.5571589 20.6252643,14.8974462 21.3153635,14.4849786 Z M4,65 C6.20553698,65 8,66.7943965 8,69.0000429 C8,71.2056035 6.205537,73 4,73 C1.794463,73 -9.23705556e-14,71.2056035 -9.23705556e-14,69.0000429 C-9.23705556e-14,66.7943965 1.79446302,65 4,65 Z M13.5000829,70.0369906 C12.6932768,70.0369906 12.0369906,70.6932768 12.0369906,71.5 C12.0369906,72.3067232 12.6932768,72.9630095 13.5000829,72.9630095 C14.3067232,72.9630095 14.9630094,72.3067232 14.9630094,71.5 C14.9630094,70.6932768 14.3067232,70.0369906 13.5000829,70.0369906 Z M4,67.1064767 C2.9558584,67.1064767 2.1064541,67.9558901 2.1064541,69.0000429 C2.1064541,70.0441099 2.9558584,70.8935233 4,70.8935233 C5.0441416,70.8935233 5.8935459,70.0441099 5.8935459,69.0000429 C5.8935459,67.9558901 5.0441416,67.1064767 4,67.1064767 Z M55.4979083,30.7749461 L55.4131682,30.7744276 C51.5822329,30.7744276 47.7932795,32.1582437 47.2216664,32.3757684 C45.8563872,33.2321398 46.4571448,35.2504029 46.5254955,35.4639678 C46.8308184,36.0404258 49.3684682,36.9870806 51.865871,37.4546003 C52.3280188,37.5410998 52.6796606,37.9244958 52.7317043,38.3982632 C52.783748,38.8720306 52.523703,39.3245031 52.0917405,39.5120213 L52.0917405,39.5120213 L24.7523281,51.3799642 C23.4907893,51.9835248 22.7389316,52.6681292 22.5775962,53.3606532 C22.4244143,54.018155 22.8457947,54.5698863 22.8638365,54.5930291 C23.0004078,54.7584605 23.0784299,54.9524794 23.1021965,55.1508211 C28.5158668,53.2958446 45.8813682,47.8877888 46.6765956,47.6402467 C47.2386674,47.4651358 47.8354349,47.7858791 48.0082199,48.3567054 C48.1808315,48.9276197 47.8645794,49.5325003 47.3018137,49.7076112 C47.0919042,49.7729917 26.2579518,56.2611584 22.7653004,57.5594429 C19.9506048,58.6056205 19.7844119,60.6279313 19.7835445,60.6479943 C19.7460731,61.2755777 19.8841623,61.7225944 20.2044044,62.0321623 C20.9095096,62.7134449 22.3668627,62.7439133 22.9686611,62.692975 L22.9686611,62.692975 L48.1497787,55.1937739 C48.715667,55.0249987 49.3070567,55.3536616 49.4727291,55.9266878 C49.6385749,56.499626 49.3150367,57.1005467 48.7503628,57.268706 L48.7503628,57.268706 L24.234667,64.5697743 C24.4149116,65.7475051 25.420569,66.5657746 25.704207,66.7753797 C26.8384123,67.1680592 30.6024281,67.2084271 33.0788398,67.1087283 L33.0788398,67.1087283 L49.5769899,61.6299352 C50.1357655,61.4438249 50.7382579,61.7536568 50.9214516,62.3211392 C51.1046454,62.8887097 50.7994959,63.499398 50.2400264,63.6851563 L50.2400264,63.6851563 L34.202246,69.0110794 C34.2119608,69.057629 34.2270535,69.1048825 34.2473505,69.153896 C34.5297742,69.8352446 35.6209567,70.4979381 36.2885036,70.8087379 C38.060244,70.5776619 47.6021057,69.3350786 53.76321,68.5718942 C60.161113,67.7794075 66.0809081,64.1287413 66.369924,63.9483507 C73.7049603,59.0045037 79.549292,56.8199293 81.5907921,56.1449164 L81.5907921,56.1449164 L81.8562149,36.5305603 C80.8935803,36.383784 79.0812459,36.2232803 76.6060485,36.5119053 C73.753014,36.844528 71.8638284,35.8408522 69.6762591,34.6789606 C68.3907802,33.9961161 66.9339041,33.2222844 65.007594,32.5651345 C60.1644092,30.913015 55.8787295,30.7833243 55.4979083,30.7749461 Z M9.9999097,53 C12.2054859,53 14,54.7944238 14,57 C14,59.2055762 12.205486,61 9.9999097,61 C7.79433344,61 6,59.2055763 6,57 C6,54.7944237 7.79433346,53 9.9999097,53 Z M9.99990968,55.2193024 C9.01812843,55.2193024 8.21930239,56.0181284 8.21930239,57 C8.21930239,57.9818716 9.01812843,58.7806976 9.99990968,58.7806976 C10.9818715,58.7806976 11.7806976,57.9818716 11.7806976,57 C11.7806976,56.0181284 10.9818715,55.2193024 9.99990968,55.2193024 Z M15,41 C17.7569399,41 20,43.2430218 20,46 C20,48.7569782 17.7569399,51 15,51 C12.2430615,51 10,48.7569782 10,46 C10,43.2430218 12.2430615,41 15,41 Z M15.0000007,43.1558273 C13.4316998,43.1558273 12.1558654,44.4317269 12.1558654,46 C12.1558654,47.5682731 13.4316998,48.8441727 15.0000007,48.8441727 C16.5683015,48.8441727 17.844136,47.5682731 17.844136,46 C17.844136,44.4317269 16.5683015,43.1558273 15.0000007,43.1558273 Z M25.8811542,16.6667372 C24.8656085,16.2928447 23.0813777,15.9381351 22.3968298,16.3486338 C22.2972529,16.4082067 22.1876142,16.4956741 22.1456323,16.7795474 C22.1352236,16.8495917 22.1373054,16.8614711 22.1166614,16.9192841 C22.1029565,16.9970721 22.062189,17.3298708 22.2568323,17.7835752 C23.6196828,18.9808409 35.4459151,25.7799834 42.7230094,29.864203 C43.2380683,30.153268 43.4247317,30.8112098 43.1397058,31.3337266 C42.8548534,31.8563314 42.2065626,32.0454336 41.6911567,31.7564566 C41.6401539,31.7278581 36.5393528,28.864047 31.4428888,25.9146164 C21.8614738,20.3693867 20.7692505,19.4654427 20.4814056,19.0096154 C20.4136187,18.9849217 20.3473063,18.9530343 20.2835095,18.9133484 C19.5064973,18.4321894 17.1987084,17.3644529 15.8422767,18.1736589 C15.4944514,18.401039 13.9570811,19.5832576 15.0892046,22.075024 L15.0892046,22.075024 L38.3945379,36.4514525 C38.8974533,36.7617243 39.0574009,37.4268817 38.7515575,37.9370792 C38.5508424,38.2718138 38.1997211,38.4567802 37.8397523,38.4567802 C37.6510072,38.4567802 37.4600069,38.4059189 37.2870484,38.2991804 L37.2870484,38.2991804 L15.2384846,24.6980356 C14.7468887,25.2348297 14.1682063,26.0402078 14.1331636,26.7973865 C14.1206731,27.0689403 14.1612671,27.4867426 14.6544678,27.9831248 C14.8492846,28.1702031 18.4068171,31.5834576 19.5509093,32.5075855 C20.4091095,33.2008135 28.0170281,38.0088835 32.921451,41.0715642 C33.4226317,41.384564 33.5789362,42.0506013 33.2703172,42.5591269 C33.0690816,42.8909576 32.7195216,43.0737241 32.3616345,43.0738121 C32.1711547,43.0738121 31.9782461,43.0219828 31.8038998,42.9131325 C30.7582305,42.2601155 22.9458242,37.3769357 19.6123679,35.1643734 L19.2345718,34.9121265 C18.8819325,35.7130718 18.5939141,36.8895707 19.3347545,37.8009503 C20.4627146,39.1883741 27.3366438,44.671369 29.8902537,46.6670173 C29.9253398,46.6944278 29.9575201,46.7241263 29.9882693,46.7548807 L29.9882693,46.7548807 L48.3390429,38.7888749 C46.6432863,38.2281681 44.9536015,37.3909796 44.5261494,36.2152727 C44.4864228,36.1014947 44.1873451,35.2053493 44.2097239,34.0970469 C44.2421644,32.4829468 44.9600202,31.190646 46.2309269,30.4579961 C46.2746436,30.4328294 46.3200951,30.4107426 46.3669344,30.3919995 C46.5030286,30.3376294 48.9358104,29.3782263 52.0444661,28.8911056 L52.0444661,28.8911056 Z M8.99991732,29 C10.6541716,29 12,30.3458284 12,32 C12,33.6541716 10.6541716,35 8.99991732,35 C7.34582841,35 6,33.6541716 6,32 C6,30.3458284 7.34582841,29 8.99991732,29 Z M8.99991732,31.032138 C8.46624956,31.032138 8.03213803,31.4663322 8.03213803,32 C8.03213803,32.5336677 8.46624956,32.9678619 8.99991732,32.9678619 C9.53358508,32.9678619 9.96786197,32.5336677 9.96786197,32 C9.96786197,31.4663322 9.53358508,31.032138 8.99991732,31.032138 Z M54.3535588,20.0839515 C53.792528,19.7562565 52.5226622,19.2422753 51.8603196,19.5963689 C51.3612207,19.863083 51.1953749,20.6942878 51.1462803,21.3782762 C51.3037992,22.5950769 53.0651308,25.8101657 54.2933616,27.747737 C54.4652359,28.0188619 54.5019267,28.3445989 54.4155775,28.6396916 C54.7483101,28.6223015 55.0834281,28.6119401 55.4201073,28.6119401 C55.4421391,28.6119401 55.4639975,28.6119401 55.4860293,28.6120281 C55.679545,28.6141289 59.9286947,28.6802135 64.9939759,30.2882089 C64.1281425,28.8508806 62.9455367,27.0619776 62.0081432,26.1978736 L62.0081432,26.1978736 Z M39.5,8 C41.9813133,8 44,10.0186867 44,12.5 C44,14.9813133 41.9813133,17 39.5,17 C37.0186867,17 35,14.9813133 35,12.5 C35,10.0186867 37.0186867,8 39.5,8 Z M39.5,10.1549494 C38.2069953,10.1549494 37.1549493,11.2069077 37.1549493,12.5 C37.1549493,13.7930924 38.2069953,14.8450507 39.5,14.8450507 C40.7930047,14.8450507 41.8450507,13.7930924 41.8450507,12.5 C41.8450507,11.2069077 40.7930047,10.1549494 39.5,10.1549494 Z M52.5,3 C54.9812242,3 57,5.01868747 57,7.5 C57,9.98131253 54.9812242,12 52.5,12 C50.0187758,12 48,9.98131253 48,7.5 C48,5.01868747 50.0187758,3 52.5,3 Z M19.5000847,5 C21.4299062,5 23,6.57009346 23,8.5 C23,10.4299065 21.4299062,12 19.5000847,12 C17.5700938,12 16,10.4299065 16,8.5 C16,6.57009346 17.5700938,5 19.5000847,5 Z M19.5000847,7.09892389 C18.7275071,7.09892389 18.0989243,7.72742246 18.0989243,8.5 C18.0989243,9.27257754 18.7275071,9.90107611 19.5000847,9.90107611 C20.2726624,9.90107611 20.9010757,9.27257754 20.9010757,8.5 C20.9010757,7.72742246 20.2726624,7.09892389 19.5000847,7.09892389 Z M52.5,5.16974689 C51.2150677,5.16974689 50.1697469,6.21506767 50.1697469,7.49999998 C50.1697469,8.78493229 51.2150677,9.83025307 52.5,9.83025307 C53.7849323,9.83025307 54.8302531,8.78493229 54.8302531,7.49999998 C54.8302531,6.21506767 53.7849323,5.16974689 52.5,5.16974689 Z M32,0 C34.2056954,0 36,1.79441125 36,3.99995646 C36,6.20558875 34.2056954,8 32,8 C29.7943046,8 28,6.20558877 28,3.99995646 C28,1.79441125 29.7943046,0 32,0 Z M32,2.14023058 C30.974484,2.14023058 30.1402073,2.9745164 30.1402073,3.99995647 C30.1402073,5.02548362 30.974484,5.85976946 32,5.85976946 C33.025516,5.85976946 33.8597927,5.02548362 33.8597927,3.99995647 C33.8597927,2.97451642 33.025516,2.14023058 32,2.14023058 Z" id="Combined-Shape" fill="#000000"></path>
                </g>
                <path d="M47.8125,157.25 C49.4375,157.375 50.1875,156.625 50.0625,155 L50.0625,155 L50.0625,149.65625 L57.375,149.65625 L57.375,147.6875 L50.0625,147.6875 L50.0625,144.5 L55.6875,144.5 L55.6875,142.53125 L50.0625,142.53125 L50.0625,139.15625 C50.6875,139.09375 51.5625,139.03125 52.6875,138.96875 C54.25,138.84375 55.375,138.75 56.0625,138.6875 L56.0625,138.6875 L55.875,136.71875 C52.1875,137.09375 47.40625,137.34375 41.53125,137.46875 L41.53125,137.46875 L41.625,139.4375 C42.8125,139.4375 44.96875,139.375 48.09375,139.25 L48.09375,139.25 L48.09375,142.53125 L42.09375,142.53125 L42.09375,144.5 L48.09375,144.5 L48.09375,147.6875 L40.40625,147.6875 L40.40625,149.65625 L48.09375,149.65625 L48.09375,154.25 C48.15625,155 47.78125,155.34375 46.96875,155.28125 L46.96875,155.28125 L44.71875,155.28125 L45.28125,157.25 L47.8125,157.25 Z M66.65625,157.53125 C67.96875,155.46875 68.78125,153.59375 69.09375,151.90625 C69.46875,150.34375 69.65625,147.625 69.65625,143.75 L69.65625,143.75 L69.65625,138.96875 L72.28125,138.96875 L72.28125,154.90625 C72.21875,156.28125 72.90625,156.9375 74.34375,156.875 L74.34375,156.875 L75.28125,156.875 C76.78125,156.9375 77.5,156.28125 77.4375,154.90625 L77.4375,154.90625 L77.4375,151.625 L75.5625,151.25 L75.5625,154.4375 C75.5625,154.75 75.40625,154.90625 75.09375,154.90625 L75.09375,154.90625 L74.71875,154.90625 C74.46875,154.90625 74.34375,154.75 74.34375,154.4375 L74.34375,154.4375 L74.34375,136.90625 L67.6875,136.90625 L67.6875,143.75 C67.6875,144.3125 67.65625,145.09375 67.59375,146.09375 L67.59375,146.09375 L67.59375,147.6875 L65.25,144.59375 L64.5,145.15625 L64.5,141.96875 L66.5625,141.96875 L66.5625,140.09375 L64.5,140.09375 L64.5,135.59375 L62.625,135.59375 L62.625,140.09375 L60.1875,140.09375 L60.1875,141.96875 L62.4375,141.96875 C61.75,144.84375 60.65625,147.5625 59.15625,150.125 L59.15625,150.125 L60.84375,151.0625 C61.46875,149.875 62.0625,148.625 62.625,147.3125 L62.625,147.3125 L62.625,157.4375 L64.5,157.4375 L64.5,146.75 L66.1875,148.90625 L67.59375,147.875 C67.59375,151.125 66.71875,154.03125 64.96875,156.59375 L64.96875,156.59375 L66.65625,157.53125 Z M94.875,144.59375 L94.875,136.625 L82.125,136.625 L82.125,144.59375 L94.875,144.59375 Z M93,139.8125 L84,139.8125 L84,138.3125 L93,138.3125 L93,139.8125 Z M93,142.90625 L84,142.90625 L84,141.40625 L93,141.40625 L93,142.90625 Z M81.09375,157.53125 C82.09375,156.28125 82.875,154.90625 83.4375,153.40625 C84.625,155.65625 86.9375,156.75 90.375,156.6875 L90.375,156.6875 L96.9375,156.6875 L97.40625,154.8125 L90.375,154.8125 C90.0625,154.8125 89.8125,154.78125 89.625,154.71875 L89.625,154.71875 L89.625,152 L95.625,152 L95.625,150.3125 L89.625,150.3125 L89.625,147.875 L96.65625,147.875 L96.65625,146.09375 L80.34375,146.09375 L80.34375,147.875 L87.65625,147.875 L87.65625,154.4375 C85.96875,153.9375 84.8125,152.625 84.1875,150.5 C84.3125,150 84.40625,149.46875 84.46875,148.90625 L84.46875,148.90625 L82.5,148.8125 C82.25,152 81.21875,154.53125 79.40625,156.40625 L79.40625,156.40625 L81.09375,157.53125 Z M101.4375,157.53125 C103.625,154.84375 104.625,150.875 104.4375,145.625 L104.4375,145.625 L104.4375,139.8125 L116.90625,139.8125 L116.90625,137.9375 L111.09375,137.9375 L111.09375,135.96875 L109.125,135.59375 L109.125,137.9375 L102.46875,137.9375 L102.46875,143.5625 L101.15625,140.09375 L99.28125,140.75 L101.15625,145.625 L102.46875,145.15625 L102.46875,146.28125 L99,148.8125 L100.125,150.5 L102.375,148.8125 C102.25,151.875 101.375,154.40625 99.75,156.40625 L99.75,156.40625 L101.4375,157.53125 Z M107.15625,157.34375 L107.15625,152.9375 L108.375,153.96875 C109.5,152.78125 110.3125,151.6875 110.8125,150.6875 L110.8125,150.6875 L113.15625,153.5 L114.375,152.5625 L114.375,154.71875 C114.4375,155.21875 114.21875,155.4375 113.71875,155.375 L113.71875,155.375 L111.84375,155.375 L112.3125,157.25 L114.28125,157.25 C115.78125,157.3125 116.46875,156.6875 116.34375,155.375 L116.34375,155.375 L116.34375,145.625 L111.84375,145.625 L111.84375,143.5625 L116.71875,143.5625 L116.71875,141.6875 L105.1875,141.6875 L105.1875,143.5625 L109.875,143.5625 L109.875,145.625 L105.28125,145.625 L105.28125,157.34375 L107.15625,157.34375 Z M107.15625,152.375 L107.15625,147.5 L109.78125,147.5 C109.65625,149.0625 108.78125,150.6875 107.15625,152.375 L107.15625,152.375 Z M114.375,152.09375 L111.9375,148.90625 L111.28125,149.46875 C111.53125,148.96875 111.6875,148.3125 111.75,147.5 L111.75,147.5 L114.375,147.5 L114.375,152.09375 Z M125.8125,140.46875 L125.8125,139.15625 L130.125,139.15625 L130.125,140.46875 L132.09375,140.46875 L132.09375,139.15625 L136.5,139.15625 L136.5,137.375 L132.09375,137.375 L132.09375,135.59375 L130.125,135.59375 L130.125,137.375 L125.8125,137.375 L125.8125,135.59375 L123.9375,135.59375 L123.9375,137.375 L119.53125,137.375 L119.53125,139.15625 L123.9375,139.15625 L123.9375,140.46875 L125.8125,140.46875 Z M135.5625,156.6875 L135.5625,140.9375 L120.375,140.9375 L120.375,156.6875 L135.5625,156.6875 Z M133.6875,154.8125 L122.34375,154.8125 L122.34375,142.8125 L133.6875,142.8125 L133.6875,154.8125 Z M128.90625,154.34375 L128.90625,151.15625 L132.1875,153.3125 L133.21875,151.90625 L129.65625,149.46875 L128.90625,150.5 L128.90625,148.90625 L132.84375,148.90625 L132.84375,147.21875 L128.90625,147.21875 L128.90625,145.71875 C130.15625,145.59375 130.25,145.59375 129.1875,145.71875 C130.625,145.59375 131.65625,145.53125 132.28125,145.53125 L132.28125,145.53125 L132.09375,143.75 C131.34375,143.75 130.03125,143.8125 128.15625,143.9375 C126.03125,144 124.53125,144.0625 123.65625,144.125 L123.65625,144.125 L123.75,145.8125 C124.8125,145.8125 125.90625,145.78125 127.03125,145.71875 L127.03125,145.71875 L127.03125,147.21875 L123.1875,147.21875 L123.1875,148.90625 L126.5625,148.90625 C125.5625,150.15625 124.25,151.25 122.625,152.1875 L122.625,152.1875 L123.65625,153.6875 C124.96875,152.75 126.09375,151.75 127.03125,150.6875 L127.03125,150.6875 L127.03125,154.34375 L128.90625,154.34375 Z M154.21875,157.625 L155.34375,155.9375 L152.53125,154.15625 L155.625,149.28125 L155.625,147.40625 L148.21875,147.40625 L148.96875,144.96875 L156.5625,144.96875 L156.5625,143.09375 L149.4375,143.09375 C149.6875,142.28125 149.90625,141.46875 150.09375,140.65625 L150.09375,140.65625 L155.90625,140.65625 L155.90625,138.78125 L150.5625,138.78125 C150.625,138.40625 150.75,137.84375 150.9375,137.09375 C151.0625,136.53125 151.15625,136.125 151.21875,135.875 L151.21875,135.875 L149.15625,135.59375 C149.09375,135.84375 149.03125,136.1875 148.96875,136.625 C148.71875,137.5625 148.5625,138.28125 148.5,138.78125 L148.5,138.78125 L145.125,138.78125 L145.125,140.65625 L148.03125,140.65625 C147.78125,141.46875 147.5625,142.28125 147.375,143.09375 L147.375,143.09375 L144.28125,143.09375 L144.28125,144.96875 L146.8125,144.96875 C146.75,145.21875 146.625,145.625 146.4375,146.1875 C146.3125,146.6875 146.1875,147.09375 146.0625,147.40625 L146.0625,147.40625 L146.0625,149.28125 L153.375,149.28125 L150.84375,153.125 L147.1875,150.78125 L146.0625,152.46875 L154.21875,157.625 Z M143.53125,157.4375 L143.53125,140.75 C144.09375,139.125 144.53125,137.5625 144.84375,136.0625 L144.84375,136.0625 L142.96875,135.59375 C141.78125,140.15625 140.28125,144.03125 138.46875,147.21875 L138.46875,147.21875 L140.15625,148.34375 C140.65625,147.59375 141.125,146.71875 141.5625,145.71875 L141.5625,145.71875 L141.5625,157.4375 L143.53125,157.4375 Z M161.15625,157.0625 C162.28125,157.125 162.8125,156.5625 162.75,155.375 L162.75,155.375 L162.75,147.21875 L163.875,146.5625 L164.90625,147.875 C166.65625,146.8125 168.125,145.6875 169.3125,144.5 L169.3125,144.5 L169.3125,147.03125 L171.1875,147.03125 L171.1875,144.40625 C172.3125,145.53125 173.6875,146.625 175.3125,147.6875 L175.3125,147.6875 L165.375,147.6875 L165.375,156.6875 L175.40625,156.6875 L175.40625,147.6875 L175.40625,147.6875 L175.59375,147.78125 L176.625,146.375 C175.25,145.5625 173.96875,144.625 172.78125,143.5625 L172.78125,143.5625 L175.875,143.5625 L175.875,141.78125 L173.34375,141.78125 L175.03125,139.53125 L173.625,138.5 L171.84375,140.84375 L173.25,141.78125 L171.1875,141.78125 L171.1875,138.40625 C172.5,138.40625 173.90625,138.34375 175.40625,138.21875 L175.40625,138.21875 L175.3125,136.53125 C171.875,136.71875 168.4375,136.875 165,137 L165,137 L165.09375,138.6875 L165.09375,138.6875 L165.84375,138.6875 C166.21875,138.625 166.53125,138.59375 166.78125,138.59375 L166.78125,138.59375 L165.375,139.53125 L167.15625,141.78125 L164.625,141.78125 L164.625,143.5625 L168,143.5625 C167.0625,144.375 166,145.15625 164.8125,145.90625 L164.8125,145.90625 L163.875,144.3125 L162.75,145.0625 L162.75,141.875 L164.34375,141.875 L164.34375,139.90625 L162.75,139.90625 L162.75,135.6875 L160.875,135.6875 L160.875,139.90625 L158.8125,139.90625 L158.8125,141.875 L160.875,141.875 L160.875,146.1875 L158.4375,147.5 L159.46875,149.1875 L160.875,148.34375 L160.875,154.71875 C160.9375,155.09375 160.78125,155.25 160.40625,155.1875 L160.40625,155.1875 L159,155.1875 L159.46875,157.0625 L161.15625,157.0625 Z M169.3125,141.78125 L167.25,141.78125 L168.65625,140.84375 L166.96875,138.59375 C167.21875,138.59375 167.625,138.5625 168.1875,138.5 L168.1875,138.5 L169.3125,138.5 L169.3125,141.78125 Z M173.53125,151.34375 L171.28125,151.34375 L171.28125,149.28125 L173.53125,149.28125 L173.53125,151.34375 Z M169.5,151.34375 L167.25,151.34375 L167.25,149.28125 L169.5,149.28125 L169.5,151.34375 Z M173.53125,155.09375 L171.28125,155.09375 L171.28125,152.9375 L173.53125,152.9375 L173.53125,155.09375 Z M169.5,155.09375 L167.25,155.09375 L167.25,152.9375 L169.5,152.9375 L169.5,155.09375 Z M193.3125,157.15625 C194.8125,157.21875 195.53125,156.53125 195.46875,155.09375 L195.46875,155.09375 L195.46875,139.25 L190.21875,139.25 C190.34375,138.875 190.53125,138.34375 190.78125,137.65625 C190.96875,136.90625 191.125,136.375 191.25,136.0625 L191.25,136.0625 L189.375,135.5 C188.6875,137.9375 187.65625,140.65625 186.28125,143.65625 L186.28125,143.65625 L186.28125,139.34375 L183.375,139.34375 L184.21875,136.0625 L182.34375,135.59375 L181.40625,139.34375 L179.34375,139.34375 L179.34375,156.3125 L186.28125,156.3125 L186.28125,143.9375 L187.875,144.6875 C188.4375,143.625 188.96875,142.46875 189.46875,141.21875 L189.46875,141.21875 L193.40625,141.21875 L193.40625,154.25 C193.46875,154.9375 193.1875,155.25 192.5625,155.1875 L192.5625,155.1875 L190.59375,155.1875 L191.15625,157.15625 L193.3125,157.15625 Z M184.3125,146.75 L181.3125,146.75 L181.3125,141.21875 L184.3125,141.21875 L184.3125,146.75 Z M190.59375,150.59375 L192.28125,149.5625 L189.1875,144.6875 L187.59375,145.71875 L190.59375,150.59375 Z M184.3125,154.4375 L181.3125,154.4375 L181.3125,148.625 L184.3125,148.625 L184.3125,154.4375 Z M211.125,157.53125 L211.125,152.375 C212.3125,153.8125 213.78125,155.1875 215.53125,156.5 L215.53125,156.5 L216.65625,154.8125 C214.59375,153.4375 212.96875,151.96875 211.78125,150.40625 L211.78125,150.40625 L215.90625,150.40625 L215.90625,148.53125 L211.125,148.53125 L211.125,146.84375 L214.125,146.84375 L214.125,139.53125 L216,139.53125 L216,137.75 L214.125,137.75 L214.125,135.59375 L212.25,135.59375 L212.25,137.75 L208.125,137.75 L208.125,135.59375 L206.25,135.59375 L206.25,137.75 L204.5625,137.75 L204.5625,139.53125 L206.25,139.53125 L206.25,146.84375 L209.25,146.84375 L209.25,148.53125 L204.5625,148.53125 L204.5625,150.40625 L208.59375,150.40625 C207.34375,152.03125 205.65625,153.5 203.53125,154.8125 L203.53125,154.8125 L204.5625,156.5 C206.5,155.125 208.0625,153.75 209.25,152.375 L209.25,152.375 L209.25,157.53125 L211.125,157.53125 Z M201.6885,139.221 L201.695472,139.163425 C201.861288,137.600606 201.973214,136.441964 202.03125,135.6875 L202.03125,135.6875 L200.15625,135.59375 L200.15625,135.59375 L200.15625,135.875 C200.03125,137.6875 199.90625,139.0625 199.78125,140 L199.78125,140 L198.1875,140 L198.1875,141.78125 L199.59375,141.78125 C199.15625,145.03125 198.78125,147.375 198.46875,148.8125 C199.21875,149.5 200.0625,150.3125 201,151.25 C200.375,152.625 199.375,154.28125 198,156.21875 L198,156.21875 L199.5,157.34375 C200.6875,155.65625 201.65625,154.09375 202.40625,152.65625 C202.53125,152.84375 202.75,153.09375 203.0625,153.40625 C203.375,153.71875 203.59375,153.96875 203.71875,154.15625 L203.71875,154.15625 L205.03125,152.84375 C204.46875,152.15625 203.84375,151.5 203.15625,150.875 C204.09375,148.375 204.625,144.75 204.75,140 L204.75,140 L201.5625,140 C201.729911,138.660714 201.77276,138.392658 201.691048,139.195831 L201.6885,139.221 Z M212.25,141.5 L208.125,141.5 L208.125,139.53125 L212.25,139.53125 L212.25,141.5 Z M201.65625,149.375 C201.21875,148.9375 200.8125,148.53125 200.4375,148.15625 C200.875,145.59375 201.1875,143.46875 201.375,141.78125 L201.375,141.78125 L202.875,141.78125 C202.6875,144.96875 202.28125,147.5 201.65625,149.375 Z M212.25,145.0625 L208.125,145.0625 L208.125,143.1875 L212.25,143.1875 L212.25,145.0625 Z M234.75,146.1875 L235.875,144.5 C232.3125,142 229.59375,139.125 227.71875,135.875 L227.71875,135.875 L226.03125,135.875 C224.09375,139.25 221.375,142.125 217.875,144.5 L217.875,144.5 L219,146.1875 C222.125,144.0625 224.75,141.40625 226.875,138.21875 C228.875,141.28125 231.5,143.9375 234.75,146.1875 L234.75,146.1875 Z M220.40625,157.625 C223.40625,154.9375 224.8125,151.8125 224.625,148.25 L224.625,148.25 L224.625,144.40625 L222.65625,144.40625 L222.65625,148.25 C222.90625,151.25 221.65625,153.90625 218.90625,156.21875 L218.90625,156.21875 L220.40625,157.625 Z M231,157.4375 L231,144.40625 L228.9375,144.40625 L228.9375,157.4375 L231,157.4375 Z M239.4375,156.6875 C239.6875,156.4375 240.125,155.90625 240.75,155.09375 C241.1875,154.53125 241.5,154.15625 241.6875,153.96875 C242,153.59375 242.21875,153.4375 242.34375,153.5 C242.40625,153.4375 242.53125,153.5 242.71875,153.6875 C244.34375,155.75 246.625,156.6875 249.5625,156.5 L249.5625,156.5 L255,156.5 L255.46875,154.53125 L249.5625,154.53125 C247.3125,154.65625 245.59375,154.03125 244.40625,152.65625 C248.21875,149.21875 251.4375,145.65625 254.0625,141.96875 L254.0625,141.96875 L254.0625,140 L247.78125,140 L247.78125,136.0625 L245.71875,135.6875 L245.71875,140 L239.71875,140 L239.71875,141.96875 L251.53125,141.96875 C249.15625,145.34375 246.21875,148.5 242.71875,151.4375 L242.71875,151.4375 L242.53125,151.34375 L242.53125,151.34375 L242.34375,151.34375 C241.65625,151.34375 240.90625,151.84375 240.09375,152.84375 C239.15625,153.78125 238.4375,154.65625 237.9375,155.46875 L237.9375,155.46875 L239.4375,156.6875 Z M275.15625,146.65625 L275.15625,144.6875 L257.8125,144.6875 L257.8125,146.65625 L275.15625,146.65625 Z M4.875,196.53125 L4.875,180.21875 C5.125,179.46875 5.46875,178.34375 5.90625,176.84375 C6.09375,176.03125 6.25,175.4375 6.375,175.0625 L6.375,175.0625 L4.40625,174.59375 C3.15625,179.34375 1.6875,183.21875 0,186.21875 L0,186.21875 L1.6875,187.34375 C2.0625,186.65625 2.4375,185.90625 2.8125,185.09375 L2.8125,185.09375 L2.8125,196.53125 L4.875,196.53125 Z M7.59375,183.875 C8.34375,182.4375 9,180.96875 9.5625,179.46875 L9.5625,179.46875 L15.75,179.46875 L14.53125,182.84375 L16.40625,183.5 L17.90625,179.46875 L17.90625,177.5 L10.21875,177.5 C10.46875,176.625 10.65625,175.96875 10.78125,175.53125 C10.84375,175.34375 10.875,175.1875 10.875,175.0625 L10.875,175.0625 L8.90625,174.59375 C8.34375,177.28125 7.3125,180.03125 5.8125,182.84375 L5.8125,182.84375 L7.59375,183.875 Z M11.25,196.15625 C12.5,196.21875 13.09375,195.625 13.03125,194.375 L13.03125,194.375 L13.03125,180.875 L10.96875,180.875 L10.96875,193.625 C11.03125,194 10.875,194.15625 10.5,194.09375 L10.5,194.09375 L8.71875,194.09375 L9.28125,196.15625 L11.25,196.15625 Z M7.21875,192.875 C8.53125,190.125 9.5,187.59375 10.125,185.28125 L10.125,185.28125 L8.25,184.625 C7.625,186.9375 6.65625,189.4375 5.34375,192.125 L5.34375,192.125 L7.21875,192.875 Z M16.59375,192.875 L18.46875,192.125 L15.5625,184.625 L13.6875,185.375 L16.59375,192.875 Z M35.34375,196.25 C36.53125,196.3125 37.125,195.78125 37.125,194.65625 L37.125,194.65625 L37.125,174.6875 L35.25,174.6875 L35.25,193.8125 C35.25,194.1875 35.0625,194.375 34.6875,194.375 L34.6875,194.375 L32.71875,194.375 L33.28125,196.25 L35.34375,196.25 Z M28.96875,196.0625 C30.28125,196.125 30.90625,195.53125 30.84375,194.28125 L30.84375,194.28125 L30.84375,175.8125 L21.375,175.8125 L21.375,196.0625 L23.15625,196.0625 L23.15625,191.1875 L24.5625,191.65625 L26.0625,187.625 L27.65625,191.65625 L29.0625,191.1875 L29.0625,193.4375 C29.0625,194 28.8125,194.25 28.3125,194.1875 L28.3125,194.1875 L26.71875,194.1875 L27.28125,196.0625 L28.96875,196.0625 Z M33.9375,190.53125 L33.9375,177.21875 L32.15625,177.21875 L32.15625,190.53125 L33.9375,190.53125 Z M26.0625,182.5625 L24.75,178.90625 L23.15625,179.5625 L23.15625,177.6875 L29.0625,177.6875 L29.0625,179.5625 L27.46875,178.90625 L26.0625,182.5625 Z M29.0625,190.15625 L27.09375,185.09375 L29.0625,180.03125 L29.0625,190.15625 Z M23.15625,190.15625 L23.15625,180.03125 L25.125,185.09375 L23.15625,190.15625 Z M55.125,196.25 C56.3125,196.3125 56.90625,195.78125 56.90625,194.65625 L56.90625,194.65625 L56.90625,174.6875 L55.03125,174.6875 L55.03125,193.8125 C55.03125,194.1875 54.84375,194.375 54.46875,194.375 L54.46875,194.375 L52.5,194.375 L53.0625,196.25 L55.125,196.25 Z M48.75,196.0625 C50.0625,196.125 50.6875,195.53125 50.625,194.28125 L50.625,194.28125 L50.625,175.8125 L41.15625,175.8125 L41.15625,196.0625 L42.9375,196.0625 L42.9375,191.1875 L44.34375,191.65625 L45.84375,187.625 L47.4375,191.65625 L48.84375,191.1875 L48.84375,193.4375 C48.84375,194 48.59375,194.25 48.09375,194.1875 L48.09375,194.1875 L46.5,194.1875 L47.0625,196.0625 L48.75,196.0625 Z M53.71875,190.53125 L53.71875,177.21875 L51.9375,177.21875 L51.9375,190.53125 L53.71875,190.53125 Z M45.84375,182.5625 L44.53125,178.90625 L42.9375,179.5625 L42.9375,177.6875 L48.84375,177.6875 L48.84375,179.5625 L47.25,178.90625 L45.84375,182.5625 Z M48.84375,190.15625 L46.875,185.09375 L48.84375,180.03125 L48.84375,190.15625 Z M42.9375,190.15625 L42.9375,180.03125 L44.90625,185.09375 L42.9375,190.15625 Z M61.21875,196.4375 C61.96875,194.6875 62.375,192.59375 62.4375,190.15625 L62.4375,190.15625 L63.46875,190.15625 L63.46875,193.8125 L65.0625,193.8125 L65.0625,190.15625 L66.09375,190.15625 L66.09375,194 C66.15625,194.4375 65.9375,194.625 65.4375,194.5625 L65.4375,194.5625 L64.40625,194.5625 L64.875,196.25 L66.1875,196.25 C67.25,196.3125 67.75,195.78125 67.6875,194.65625 L67.6875,194.65625 L67.6875,180.21875 L66.09375,180.21875 L66.9375,178.4375 L66.9375,176.75 L63.9375,176.75 C64.125,176.1875 64.3125,175.59375 64.5,174.96875 L64.5,174.96875 L62.90625,174.5 C62.21875,177.1875 61.125,179.5 59.625,181.4375 L59.625,181.4375 L60.84375,182.375 L60.84375,187.71875 C60.90625,191.28125 60.5,194 59.625,195.875 L59.625,195.875 L61.21875,196.4375 Z M76.3125,196.4375 L77.90625,196.0625 L76.3125,190.15625 L74.71875,190.53125 L75.375,193.15625 L73.875,193.25 L73.875,187.90625 L76.96875,187.90625 L76.96875,178.4375 L73.875,178.4375 L73.875,174.6875 L71.90625,174.6875 L71.90625,178.4375 L68.71875,178.4375 L68.71875,187.90625 L71.90625,187.90625 L71.90625,193.4375 L68.34375,193.71875 L68.4375,195.59375 L75.9375,195.03125 L76.3125,196.4375 Z M64.3125,180.21875 L62.4375,180.21875 C62.75,179.65625 63.03125,179.0625 63.28125,178.4375 L63.28125,178.4375 L65.15625,178.4375 L64.3125,180.21875 Z M71.90625,186.03125 L70.40625,186.03125 L70.40625,180.40625 L71.90625,180.40625 L71.90625,186.03125 Z M75.28125,186.03125 L73.875,186.03125 L73.875,180.40625 L75.28125,180.40625 L75.28125,186.03125 Z M66.09375,184.4375 L65.0625,184.4375 L65.0625,181.8125 L66.09375,181.8125 L66.09375,184.4375 Z M63.46875,184.4375 L62.4375,184.4375 L62.4375,181.8125 L63.46875,181.8125 L63.46875,184.4375 Z M66.09375,188.5625 L65.0625,188.5625 L65.0625,186.03125 L66.09375,186.03125 L66.09375,188.5625 Z M63.46875,188.5625 L62.4375,188.5625 L62.4375,186.03125 L63.46875,186.03125 L63.46875,188.5625 Z M81.84375,196.15625 C83.03125,196.21875 83.59375,195.625 83.53125,194.375 L83.53125,194.375 L83.53125,186.875 L85.6875,186.03125 L84.9375,184.34375 L83.53125,184.8125 L83.53125,180.78125 L85.125,180.78125 L85.125,179 L83.53125,179 L83.53125,174.59375 L81.65625,174.59375 L81.65625,179 L79.6875,179 L79.6875,180.78125 L81.65625,180.78125 L81.65625,185.65625 L79.3125,186.5 L80.0625,188.28125 L81.65625,187.625 L81.65625,193.625 C81.65625,194 81.46875,194.1875 81.09375,194.1875 L81.09375,194.1875 L79.96875,194.1875 L80.4375,196.15625 L81.84375,196.15625 Z M89.53125,179.5625 L89.53125,178.15625 L92.15625,178.15625 L92.15625,179.5625 L94.03125,179.5625 L94.03125,178.15625 L96.84375,178.15625 L96.84375,176.375 L94.03125,176.375 L94.03125,174.59375 L92.15625,174.59375 L92.15625,176.375 L89.53125,176.375 L89.53125,174.59375 L87.75,174.59375 L87.75,176.375 L85.03125,176.375 L85.03125,178.15625 L87.75,178.15625 L87.75,179.5625 L89.53125,179.5625 Z M95.8125,187.53125 L95.8125,179.9375 L85.875,179.9375 L85.875,187.53125 L95.8125,187.53125 Z M93.84375,182.9375 L87.75,182.9375 L87.75,181.71875 L93.84375,181.71875 L93.84375,182.9375 Z M93.84375,185.84375 L87.75,185.84375 L87.75,184.53125 L93.84375,184.53125 L93.84375,185.84375 Z M96.65625,196.53125 L97.40625,194.65625 C94.65625,193.59375 92.875,192.40625 92.0625,191.09375 L92.0625,191.09375 L96.75,191.09375 L96.75,189.3125 L91.78125,189.3125 L91.78125,187.90625 L89.8125,187.90625 L89.8125,189.3125 L84.9375,189.3125 L84.9375,191.09375 L89.53125,191.09375 C89.09375,192.21875 87.3125,193.4375 84.1875,194.75 L84.1875,194.75 L85.03125,196.53125 C87.96875,195.21875 89.9375,193.9375 90.9375,192.6875 C92.0625,194.125 93.96875,195.40625 96.65625,196.53125 L96.65625,196.53125 Z M107.4375,196.15625 C109.0625,196.28125 109.8125,195.53125 109.6875,193.90625 L109.6875,193.90625 L109.6875,183.96875 L116.25,178.15625 L116.25,176.09375 L100.3125,176.09375 L100.3125,178.15625 L113.25,178.15625 L107.71875,183.125 L107.71875,193.25 C107.78125,193.9375 107.4375,194.25 106.6875,194.1875 L106.6875,194.1875 L104.0625,194.1875 L104.625,196.15625 L107.4375,196.15625 Z M120.375,196.625 C128.3125,194.25 133.5625,191.1875 136.125,187.4375 L136.125,187.4375 L136.125,185.46875 L129.375,185.46875 C129.75,185.15625 130.09375,184.8125 130.40625,184.4375 L130.40625,184.4375 L129,183.3125 C131.9375,181.9375 134.1875,180.40625 135.75,178.71875 L135.75,178.71875 L135.75,176.84375 L128.0625,176.84375 C128.3125,176.65625 128.5625,176.40625 128.8125,176.09375 L128.8125,176.09375 L129.1875,175.71875 L127.59375,174.5 C125.84375,176.4375 123.40625,178.3125 120.28125,180.125 L120.28125,180.125 L121.40625,181.71875 C121.71875,181.53125 122.125,181.28125 122.625,180.96875 C123.1875,180.59375 123.59375,180.34375 123.84375,180.21875 L123.84375,180.21875 L126.65625,182.1875 C124.71875,183 122.46875,183.78125 119.90625,184.53125 L119.90625,184.53125 L120.5625,186.40625 C123.25,185.59375 125.96875,184.59375 128.71875,183.40625 C126.40625,185.71875 123.5625,187.78125 120.1875,189.59375 L120.1875,189.59375 L121.3125,191.28125 C122.3125,190.71875 123.28125,190.125 124.21875,189.5 L124.21875,189.5 L127.5,191.75 C125.375,192.8125 122.71875,193.8125 119.53125,194.75 L119.53125,194.75 L120.375,196.625 Z M128.625,181.34375 L125.4375,179.09375 C125.5,179.03125 125.59375,178.96875 125.71875,178.90625 C125.78125,178.78125 125.84375,178.71875 125.90625,178.71875 L125.90625,178.71875 L132.84375,178.71875 C131.71875,179.65625 130.3125,180.53125 128.625,181.34375 L128.625,181.34375 Z M129.46875,190.71875 L125.8125,188.46875 C126.3125,188.09375 126.75,187.75 127.125,187.4375 L127.125,187.4375 L133.59375,187.4375 C132.53125,188.625 131.15625,189.71875 129.46875,190.71875 L129.46875,190.71875 Z M154.21875,184.34375 L156.1875,179.9375 L156.1875,177.875 L148.59375,177.875 C148.96875,177 149.28125,176.0625 149.53125,175.0625 L149.53125,175.0625 L147.65625,174.5 C146.65625,177.9375 145.40625,180.9375 143.90625,183.5 L143.90625,183.5 L145.6875,184.34375 C146.4375,182.96875 147.15625,181.5 147.84375,179.9375 L147.84375,179.9375 L154.03125,179.9375 L152.34375,183.59375 L154.21875,184.34375 Z M142.125,182.28125 L143.90625,181.34375 L140.90625,175.71875 L139.125,176.65625 L142.125,182.28125 Z M155.34375,196.53125 L156.75,195.03125 C153,191.59375 151,187.5625 150.75,182.9375 L150.75,182.9375 L150.75,181.4375 L148.78125,181.4375 L148.78125,182.75 C149.03125,187.0625 146.9375,191.1875 142.5,195.125 L142.5,195.125 L144,196.53125 C147.0625,193.71875 149,191.09375 149.8125,188.65625 C150.8125,191.34375 152.65625,193.96875 155.34375,196.53125 L155.34375,196.53125 Z M140.625,193.8125 L144.28125,185.46875 L142.5,184.71875 L138.84375,192.96875 L140.625,193.8125 Z M163.6875,196.625 C166.25,194.6875 167.59375,192.65625 167.71875,190.53125 L167.71875,190.53125 L170.90625,190.53125 L170.90625,196.4375 L172.875,196.4375 L172.875,190.53125 L176.0625,190.53125 L176.0625,188.65625 L172.875,188.65625 L172.875,186.125 L175.40625,186.125 L175.40625,184.15625 L172.59375,184.15625 L174,182.1875 L172.78125,181.34375 L175.3125,181.34375 L175.3125,175.71875 L160.59375,175.71875 L160.59375,183.125 C160.59375,186.3125 160.46875,188.75 160.21875,190.4375 C159.96875,192.0625 159.4375,193.84375 158.625,195.78125 L158.625,195.78125 L160.5,196.53125 C161.3125,194.53125 161.875,192.625 162.1875,190.8125 C162.4375,189 162.5625,186.4375 162.5625,183.125 L162.5625,183.125 L162.5625,181.34375 L166.125,181.34375 L165.09375,182.28125 L166.59375,184.15625 L163.5,184.15625 L163.5,186.125 L165.84375,186.125 L165.84375,188.65625 L162.75,188.65625 L162.75,190.53125 L165.75,190.53125 C165.625,191.96875 164.5,193.53125 162.375,195.21875 L162.375,195.21875 L163.6875,196.625 Z M173.25,179.46875 L162.5625,179.46875 L162.5625,177.6875 L173.25,177.6875 L173.25,179.46875 Z M170.15625,184.15625 L167.8125,184.15625 L168.5625,183.59375 L166.78125,181.34375 L172.21875,181.34375 L170.15625,184.15625 Z M170.90625,188.65625 L167.8125,188.65625 L167.8125,186.125 L170.90625,186.125 L170.90625,188.65625 Z M188.25,196.53125 L188.25,191.75 L191.4375,191.75 L191.4375,192.78125 C191.4375,193.15625 191.21875,193.34375 190.78125,193.34375 L190.78125,193.34375 L189.84375,193.34375 L190.21875,195.03125 L191.71875,195.03125 C192.84375,195.03125 193.375,194.46875 193.3125,193.34375 L193.3125,193.34375 L193.3125,190.90625 C194,191.34375 194.75,191.75 195.5625,192.125 L195.5625,192.125 L196.40625,190.53125 C194.71875,189.78125 193.3125,188.9375 192.1875,188 L192.1875,188 L195.75,188 L195.75,186.3125 L186.46875,186.3125 C186.46875,186.25 186.53125,186.1875 186.65625,186.125 C186.84375,185.75 187,185.46875 187.125,185.28125 L187.125,185.28125 L193.96875,185.28125 L193.96875,178.90625 L191.34375,178.90625 L191.34375,177.6875 L196.03125,177.6875 L196.03125,176 L191.34375,176 L191.34375,174.59375 L189.375,174.59375 L189.375,176 L185.25,176 L185.25,174.59375 L183.28125,174.59375 L183.28125,176 L178.6875,176 L178.6875,177.6875 L183.28125,177.6875 L183.28125,178.90625 L180.75,178.90625 L180.75,185.28125 L184.96875,185.28125 C184.71875,185.65625 184.4375,186 184.125,186.3125 L184.125,186.3125 L178.96875,186.3125 L178.96875,188 L182.34375,188 C181.28125,188.8125 179.90625,189.65625 178.21875,190.53125 L178.21875,190.53125 L179.25,192.125 C180,191.6875 180.46875,191.40625 180.65625,191.28125 C181.03125,191.09375 181.28125,190.96875 181.40625,190.90625 L181.40625,190.90625 L181.40625,195.03125 L183.28125,195.03125 L183.28125,191.75 L186.375,191.75 L186.375,196.53125 L188.25,196.53125 Z M189.375,178.90625 L185.25,178.90625 L185.25,177.6875 L189.375,177.6875 L189.375,178.90625 Z M192.09375,181.34375 L182.71875,181.34375 L182.71875,180.40625 L192.09375,180.40625 L192.09375,181.34375 Z M192.09375,183.6875 L182.71875,183.6875 L182.71875,182.75 L192.09375,182.75 L192.09375,183.6875 Z M182.9015,189.895 L183.052145,189.77071 C183.988536,188.994083 184.658654,188.403846 185.0625,188 L185.0625,188 L189.65625,188 C190.34375,188.6875 191.09375,189.34375 191.90625,189.96875 L191.90625,189.96875 L192.09375,190.15625 L188.25,190.15625 L188.25,188.5625 L186.375,188.5625 L186.375,190.15625 L182.53125,190.15625 C183.390625,189.46875 183.541016,189.358941 182.982422,189.826823 L182.9015,189.895 Z M200.15625,196.625 C201.84375,195.625 202.65625,194 202.59375,191.75 L202.59375,191.75 L202.59375,189.03125 L199.875,189.03125 L199.875,192.125 L201.375,192.125 L201.375,192.3125 C201.4375,193.625 200.8125,194.75 199.5,195.6875 L199.5,195.6875 L200.15625,196.625 Z M233.15625,196.0625 C234.40625,196.125 235,195.5625 234.9375,194.375 L234.9375,194.375 L234.9375,174.6875 L232.875,174.6875 L232.875,193.625 C232.9375,194 232.75,194.15625 232.3125,194.09375 L232.3125,194.09375 L229.96875,194.09375 L230.53125,196.0625 L233.15625,196.0625 Z M227.34375,183.125 L227.34375,175.625 L219.1875,175.625 L219.1875,183.125 L227.34375,183.125 Z M231.09375,190.34375 L231.09375,177.03125 L229.03125,177.03125 L229.03125,190.34375 L231.09375,190.34375 Z M225.28125,181.15625 L221.15625,181.15625 L221.15625,177.59375 L225.28125,177.59375 L225.28125,181.15625 Z M219.375,196.53125 C221.75,193.65625 223.0625,190.71875 223.3125,187.71875 L223.3125,187.71875 L225.5625,187.71875 L225.5625,193.4375 C225.625,193.875 225.40625,194.0625 224.90625,194 L224.90625,194 L222.84375,194 L223.40625,195.96875 L225.65625,195.96875 C226.96875,196.03125 227.59375,195.5 227.53125,194.375 L227.53125,194.375 L227.53125,185.65625 L223.40625,185.65625 L223.5,183.6875 L221.4375,183.6875 L221.4375,185.65625 L218.53125,185.65625 L218.53125,187.71875 L221.25,187.71875 C221.0625,190.28125 219.90625,192.8125 217.78125,195.3125 L217.78125,195.3125 L219.375,196.53125 Z M253.78125,185.5625 L253.78125,183.6875 L242.53125,183.6875 L242.53125,179.375 L255.09375,179.375 L255.09375,177.5 L247.6875,177.5 L247.6875,174.875 L245.71875,174.59375 L245.71875,177.5 L238.40625,177.5 L238.40625,179.375 L240.46875,179.375 L240.46875,185.5625 L253.78125,185.5625 Z M247.6875,190.71875 L249.375,189.6875 L247.125,185.9375 L245.53125,186.96875 L247.6875,190.71875 Z M249.375,195.875 C251.0625,196 251.84375,195.25 251.71875,193.625 L251.71875,193.625 L251.71875,191.375 L249.75,191 L249.75,192.96875 C249.8125,193.65625 249.46875,193.96875 248.71875,193.90625 L248.71875,193.90625 L245.25,193.90625 C244.5625,193.96875 244.25,193.65625 244.3125,192.96875 L244.3125,192.96875 L244.3125,187.25 L242.34375,187.25 L242.34375,193.71875 C242.40625,195.21875 243.09375,195.9375 244.40625,195.875 L244.40625,195.875 L249.375,195.875 Z M254.0625,193.71875 L255.75,192.875 L253.3125,187.625 L251.53125,188.375 L254.0625,193.71875 Z M239.4375,194 L241.5,188.46875 L239.71875,187.71875 L237.65625,193.34375 L239.4375,194 Z M262.96875,196.625 C266.21875,193.3125 267.71875,189.875 267.46875,186.3125 L267.46875,186.3125 L267.46875,186.125 L269.34375,186.125 L269.34375,194.375 C269.34375,195.5 269.875,196.03125 270.9375,195.96875 L270.9375,195.96875 L273.65625,195.96875 C274.71875,196.03125 275.25,195.5 275.25,194.375 L275.25,194.375 L275.25,191.1875 L273.375,190.8125 L273.375,193.53125 C273.375,193.90625 273.1875,194.09375 272.8125,194.09375 L272.8125,194.09375 L271.875,194.09375 C271.5625,194.09375 271.40625,193.90625 271.40625,193.53125 L271.40625,193.53125 L271.40625,186.125 L274.96875,186.125 L274.96875,184.25 L270.09375,184.25 L270.09375,180.59375 L274.03125,180.59375 L274.03125,178.625 L270.09375,178.625 L270.09375,174.59375 L268.125,174.59375 L268.125,178.625 L265.96875,178.625 C266.15625,178.1875 266.34375,177.5625 266.53125,176.75 C266.65625,176.3125 266.75,175.96875 266.8125,175.71875 L266.8125,175.71875 L264.84375,175.25 C264.28125,177.8125 263.46875,180.28125 262.40625,182.65625 L262.40625,182.65625 L264.28125,183.5 C264.40625,183.1875 264.59375,182.6875 264.84375,182 C265.09375,181.375 265.28125,180.90625 265.40625,180.59375 L265.40625,180.59375 L268.125,180.59375 L268.125,184.25 L262.59375,184.25 L262.59375,186.125 L265.5,186.125 L265.5,186.3125 C265.5,188.125 265.21875,189.59375 264.65625,190.71875 C264.15625,191.90625 263.0625,193.4375 261.375,195.3125 L261.375,195.3125 L262.96875,196.625 Z M261.375,179.84375 L262.78125,178.53125 L259.40625,175.0625 L258,176.46875 L261.375,179.84375 Z M260.71875,185.65625 L262.125,184.25 L258.84375,181.0625 L257.4375,182.46875 L260.71875,185.65625 Z M259.59375,196.25 L261.84375,187.8125 L259.96875,187.34375 L257.71875,195.6875 L259.59375,196.25 Z M285.1875,196.25 C286.8125,196.375 287.5625,195.625 287.4375,194 L287.4375,194 L287.4375,188.65625 L294.75,188.65625 L294.75,186.6875 L287.4375,186.6875 L287.4375,183.5 L293.0625,183.5 L293.0625,181.53125 L287.4375,181.53125 L287.4375,178.15625 C288.0625,178.09375 288.9375,178.03125 290.0625,177.96875 C291.625,177.84375 292.75,177.75 293.4375,177.6875 L293.4375,177.6875 L293.25,175.71875 C289.5625,176.09375 284.78125,176.34375 278.90625,176.46875 L278.90625,176.46875 L279,178.4375 C280.1875,178.4375 282.34375,178.375 285.46875,178.25 L285.46875,178.25 L285.46875,181.53125 L279.46875,181.53125 L279.46875,183.5 L285.46875,183.5 L285.46875,186.6875 L277.78125,186.6875 L277.78125,188.65625 L285.46875,188.65625 L285.46875,193.25 C285.53125,194 285.15625,194.34375 284.34375,194.28125 L284.34375,194.28125 L282.09375,194.28125 L282.65625,196.25 L285.1875,196.25 Z M312.84375,196.4375 C313.84375,196.5625 314.4375,195.75 314.625,194 L314.625,194 L314.625,193.71875 C314.8125,192.84375 314.90625,192.125 314.90625,191.5625 L314.90625,191.5625 L313.59375,190.8125 C313.59375,191 313.5625,191.34375 313.5,191.84375 C313.4375,192.65625 313.375,193.1875 313.3125,193.4375 C313.1875,193.875 313.0625,194.09375 312.9375,194.09375 C312.75,194.09375 312.625,193.875 312.5625,193.4375 C312.1875,192.1875 311.90625,190.875 311.71875,189.5 C312.78125,188.0625 313.75,186.46875 314.625,184.71875 L314.625,184.71875 L312.9375,183.78125 C312.5,184.78125 312,185.71875 311.4375,186.59375 C311.3125,185.40625 311.25,184.125 311.25,182.75 L311.25,182.75 L314.53125,182.75 L314.53125,180.78125 L311.15625,180.78125 C311.09375,180.21875 311.0625,179.625 311.0625,179 C311.0625,177.9375 311.03125,177.1875 310.96875,176.75 L310.96875,176.75 L312.84375,179.75 L314.4375,178.8125 L312.5625,175.71875 L310.96875,176.5625 L310.96875,176.5625 L310.96875,174.59375 L309.09375,174.59375 C309.09375,175.71875 309.125,177.21875 309.1875,179.09375 L309.1875,179.09375 L309.1875,180.78125 L307.125,180.78125 L307.125,177.6875 C307.6875,177.5625 308.1875,177.46875 308.625,177.40625 L308.625,177.40625 L308.25,175.53125 C307.8125,175.59375 307.6875,175.625 307.875,175.625 C305.9375,175.9375 304.375,176.15625 303.1875,176.28125 L303.1875,176.28125 L303.46875,178.15625 C304.03125,178.15625 304.53125,178.09375 304.96875,177.96875 L304.96875,177.96875 L305.25,177.96875 L305.25,180.78125 L303.1875,180.78125 L303.1875,182.75 L305.25,182.75 L305.25,186.5 L302.8125,187.15625 L302.8125,176.46875 L297.84375,176.46875 L297.84375,193.0625 L302.8125,193.0625 L302.8125,187.25 L303.375,188.9375 L305.25,188.46875 L305.25,193.625 C305.25,194 305.03125,194.1875 304.59375,194.1875 L304.59375,194.1875 L303.1875,194.1875 L303.65625,196.0625 L305.34375,196.0625 C306.53125,196.0625 307.125,195.5 307.125,194.375 L307.125,194.375 L307.125,192.21875 L308.34375,193.4375 C308.96875,192.8125 309.5625,192.1875 310.125,191.5625 C310.3125,192.5 310.53125,193.375 310.78125,194.1875 C311.15625,195.6875 311.84375,196.4375 312.84375,196.4375 Z M301.03125,191.1875 L299.71875,191.1875 L299.71875,178.34375 L301.03125,178.34375 L301.03125,191.1875 Z M307.125,191.9375 L307.125,188 L309,187.4375 L308.53125,185.5625 L307.125,185.9375 L307.125,182.75 L309.28125,182.75 C309.40625,185.0625 309.5625,187.15625 309.75,189.03125 C309,189.96875 308.125,190.9375 307.125,191.9375 L307.125,191.9375 Z" id="手机是病菌传播的媒介之一你刚刚触摸了多次屏幕，别忘洗手哦" fill="#212E46"></path>
            </g>
        </g>
    </g>
</svg>